<?xml version="1.0" encoding="UTF-8" standalone="no"?>
<!DOCTYPE svg PUBLIC "-//W3C//DTD SVG 1.1//EN" "http://www.w3.org/Graphics/SVG/1.1/DTD/svg11.dtd">
<svg width="100%" height="100%" viewBox="0 0 300 300" version="1.1" xmlns="http://www.w3.org/2000/svg" xmlns:xlink="http://www.w3.org/1999/xlink" xml:space="preserve" xmlns:serif="http://www.serif.com/" style="fill-rule:evenodd;clip-rule:evenodd;stroke-linecap:round;stroke-linejoin:round;stroke-miterlimit:1.5;">
    <g transform="matrix(0.525617,0,0,0.515948,-71.6435,-6.84081)">
        <circle cx="422.356" cy="301.088" r="34.929" style="fill:rgb(235,235,235);"/>
    </g>
    <g transform="matrix(0.525617,0,0,0.515948,-71.6435,-6.84081)">
        <path d="M278.474,435.503C278.575,435.335 278.677,435.167 278.781,435C253.662,448.526 221.495,440.487 206.993,417.059C192.491,393.631 201.11,363.629 226.228,350.103C197.224,350.103 173.676,328.14 173.676,301.088C173.676,274.036 197.224,252.073 226.228,252.073C201.11,238.547 192.491,208.545 206.993,185.117C221.293,162.015 252.77,153.877 277.728,166.624C278.08,166.804 278.431,166.988 278.781,167.176C264.278,143.749 272.898,113.747 298.016,100.221C323.135,86.695 355.302,94.734 369.804,118.161C369.804,91.109 393.352,69.146 422.356,69.146C451.36,69.146 474.908,91.109 474.908,118.161C489.41,94.734 521.577,86.695 546.696,100.221C571.814,113.747 580.434,143.749 565.931,167.176C566.889,166.661 567.857,166.176 568.834,165.723C593.477,154.286 623.77,162.583 637.719,185.117C652.221,208.545 643.602,238.547 618.484,252.073C647.488,252.073 671.036,274.036 671.036,301.088C671.036,328.14 647.488,350.103 618.484,350.103C643.602,363.629 652.221,393.631 637.719,417.059C623.217,440.487 591.05,448.526 565.931,435C580.434,458.428 571.814,488.43 546.696,501.956C521.577,515.482 489.41,507.443 474.908,484.015C474.908,511.067 451.36,533.03 422.356,533.03C393.352,533.03 369.804,511.067 369.804,484.015C355.302,507.443 323.135,515.482 298.016,501.956C273.077,488.526 264.402,458.855 278.474,435.503ZM422.356,266.159C403.078,266.159 387.427,281.81 387.427,301.088C387.427,320.366 403.078,336.017 422.356,336.017C441.634,336.017 457.285,320.366 457.285,301.088C457.285,281.81 441.634,266.159 422.356,266.159Z" style="fill:rgb(239,222,222);"/>
    </g>
    <g id="flower" transform="matrix(0.453475,0,0,0.445134,-54.4176,16.3337)">
        <g transform="matrix(1.45044,0,0,1.45044,-1.06992,-33.1015)">
            <path d="M268.991,85.984C268.991,64.366 287.809,46.815 310.987,46.815C334.165,46.815 352.983,64.366 352.983,85.984C364.572,67.263 390.277,60.839 410.35,71.648C430.423,82.457 437.311,106.432 425.722,125.154C445.795,114.345 471.5,120.769 483.089,139.49C494.678,158.212 487.79,182.187 467.718,192.996C490.896,192.996 509.713,210.548 509.713,232.166C509.713,253.784 490.896,271.335 467.718,271.335C487.79,282.144 494.678,306.119 483.089,324.841C471.5,343.563 445.795,349.987 425.722,339.178C437.311,357.899 430.423,381.875 410.35,392.684C390.277,403.493 364.572,397.069 352.983,378.347C352.983,399.965 334.165,417.516 310.987,417.516C287.809,417.516 268.991,399.965 268.991,378.347C257.402,397.069 231.697,403.493 211.624,392.684C191.551,381.875 184.664,357.899 196.253,339.178C176.18,349.987 150.474,343.563 138.885,324.841C127.296,306.119 134.184,282.144 154.257,271.335C131.079,271.335 112.261,253.784 112.261,232.166C112.261,210.548 131.079,192.996 154.257,192.996C134.184,182.187 127.296,158.212 138.885,139.49C150.474,120.769 176.18,114.345 196.253,125.154C184.664,106.432 191.551,82.457 211.624,71.648C231.697,60.839 257.402,67.263 268.991,85.984Z" style="fill:none;stroke:rgb(198,170,170);stroke-width:18.49px;"/>
        </g>
        <g transform="matrix(1,0,0,1,0.119427,-1.97108)">
            <circle cx="449.881" cy="305.613" r="40.486" style="fill:none;stroke:rgb(198,170,170);stroke-width:26.82px;"/>
        </g>
        <g transform="matrix(0.999937,-0.0112492,0.0112492,0.999937,-1.97804,4.64351)">
            <path d="M390.764,93.153L432.803,263.156" style="fill:none;stroke:rgb(198,170,170);stroke-width:26.81px;"/>
        </g>
        <g transform="matrix(0.869495,0.493942,-0.493942,0.869495,216.689,-179.914)">
            <path d="M390.764,93.153L432.803,263.156" style="fill:none;stroke:rgb(198,170,170);stroke-width:27.03px;"/>
        </g>
        <g transform="matrix(0.462485,0.890925,-0.926781,0.515778,526.245,-250.22)">
            <path d="M390.764,93.153L432.803,263.156" style="fill:none;stroke:rgb(198,170,170);stroke-width:25.79px;"/>
        </g>
        <g transform="matrix(-0.0574396,1.00265,-1.06769,-0.0264768,796.009,-141.384)">
            <path d="M390.764,93.153L432.803,263.156" style="fill:none;stroke:rgb(198,170,170);stroke-width:25.43px;"/>
        </g>
        <g transform="matrix(-0.532406,0.851561,-0.923567,-0.536528,970.843,78.222)">
            <path d="M390.764,93.153L432.803,263.156" style="fill:none;stroke:rgb(198,170,170);stroke-width:25.25px;"/>
        </g>
        <g transform="matrix(-0.846494,0.534478,-0.551046,-0.855943,996.789,328.341)">
            <path d="M390.764,93.153L432.803,263.156" style="fill:none;stroke:rgb(198,170,170);stroke-width:26.23px;"/>
        </g>
        <g transform="matrix(-1.00102,0.00430729,-0.0127137,-1.01666,904.456,607.65)">
            <path d="M390.764,93.153L432.803,263.156" style="fill:none;stroke:rgb(198,170,170);stroke-width:26.47px;"/>
        </g>
        <g transform="matrix(-0.865289,-0.501557,0.501656,-0.867752,679.833,791.206)">
            <path d="M390.764,93.153L432.803,263.156" style="fill:none;stroke:rgb(198,170,170);stroke-width:26.99px;"/>
        </g>
        <g transform="matrix(-0.479171,-0.880658,0.904593,-0.515906,385.85,851.96)">
            <path d="M390.764,93.153L432.803,263.156" style="fill:none;stroke:rgb(198,170,170);stroke-width:26.18px;"/>
        </g>
        <g transform="matrix(0.0326574,-1.0048,1.08382,-0.0077754,107.993,753.589)">
            <path d="M390.764,93.153L432.803,263.156" style="fill:none;stroke:rgb(198,170,170);stroke-width:25.14px;"/>
        </g>
        <g transform="matrix(0.50446,-0.870465,0.971148,0.506179,-68.5966,537.425)">
            <path d="M390.764,93.153L432.803,263.156" style="fill:none;stroke:rgb(198,170,170);stroke-width:24.75px;"/>
        </g>
        <g transform="matrix(0.852456,-0.528594,0.57334,0.878013,-104.392,272.327)">
            <path d="M390.764,93.153L432.803,263.156" style="fill:none;stroke:rgb(198,170,170);stroke-width:25.62px;"/>
        </g>
    </g>
</svg>
