<?xml version="1.0" encoding="UTF-8"?>
<svg width="1200pt" height="1200pt" version="1.1" viewBox="0 0 1200 1200" xmlns="http://www.w3.org/2000/svg">
 <path d="m940.07 510.89c0 217.71-201 350.36-232.22 366.9-22.609 12.316-43.543 20.594-57.887 20.594-12.492 0-20.758-6.0742-20.758-16.543 0-10.461 10.465-22.785 20.758-31.051 28.859-20.758 109.88-128.6 109.88-230.2 0-26.836-14.516-51.645-31.051-60.078-18.734-10.293-105.82-29.027-105.82-138.73 0-64.305 51.812-120.16 124.38-120.16 95.336-0.003906 192.72 72.391 192.72 209.27z" fill="#4d4b66"/>
 <path d="m577.22 510.89c0 217.71-201.18 350.36-232.23 366.9-22.793 12.316-43.543 20.594-58.055 20.594-12.484 0-20.594-6.0742-20.594-16.543 0-10.461 10.285-22.785 20.594-31.051 29.02-20.758 109.86-128.6 109.86-230.2 0-26.836-14.508-51.645-31.051-60.078-18.738-10.301-105.82-29.027-105.82-138.73 0-64.305 51.984-120.16 124.56-120.16 95.188 0.003906 192.74 72.398 192.74 209.27z" fill="#4d4b66"/>
</svg>
