<?xml version="1.0" encoding="UTF-8"?>
<svg width="1200pt" height="1200pt" version="1.1" viewBox="0 0 1200 1200" xmlns="http://www.w3.org/2000/svg">
 <path d="m60 741.49c0-345.71 319.18-556.34 368.75-582.6 35.902-19.559 69.145-32.699 91.922-32.699 19.836 0 32.965 9.6484 32.965 26.27 0 16.609-16.621 36.18-32.965 49.309-45.828 32.965-174.47 204.2-174.47 365.53 0 42.613 23.051 82.008 49.309 95.398 29.746 16.344 168.02 46.094 168.02 220.29 0 102.11-82.273 190.8-197.51 190.8-151.39 0.011719-306.02-114.95-306.02-332.29z" fill="#4d4b66"/>
 <path d="m636.17 741.49c0-345.71 319.45-556.34 368.76-582.6 36.191-19.559 69.145-32.699 92.184-32.699 19.824 0 32.699 9.6484 32.699 26.27 0 16.609-16.332 36.18-32.699 49.309-46.078 32.965-174.45 204.2-174.45 365.53 0 42.613 23.039 82.008 49.309 95.398 29.746 16.355 168.02 46.094 168.02 220.3 0 102.11-82.547 190.8-197.79 190.8-151.15 0-306.05-114.96-306.05-332.3z" fill="#4d4b66"/>
</svg>
