<?xml version="1.0" encoding="UTF-8"?>
<svg width="1200pt" height="1200pt" version="1.1" viewBox="0 0 1200 1200" xmlns="http://www.w3.org/2000/svg">
 <path d="m498.24 1051.2c-5.8594 2.1562-11.672 4.7344-17.672 6.375-15.844 4.2656-31.266 4.4531-45-6.4219-4.8281-3.7969-9.8906-4.7344-15.75-2.3438-6.2344 2.5312-12.703 4.5938-19.078 6.8438-5.1562 1.7812-10.312 2.0156-15.703 0.75-9.3281-2.1562-18.844-3.7031-28.172-5.7656-5.1094-1.125-10.125-2.5781-15.094-4.125-6.7031-2.1094-13.406-2.4375-20.25-0.5625-16.922 4.6406-33.844 3.9375-50.391-1.125-13.781-4.2188-24.141-12.703-28.266-27.328-1.1719-4.125-2.6719-8.1562-4.0312-12.188-2.8594-8.5312-6.9375-16.406-12.656-23.484-5.7656-7.1719-11.156-14.672-16.875-21.938-7.9688-10.172-11.953-22.219-15.797-34.266-1.125-3.5156-2.0625-7.125-2.6719-10.781-1.4531-8.3906-6.375-14.484-12.562-19.781-4.3125-3.7031-9.0469-7.125-12.797-11.297-15.141-16.875-25.031-36.375-27.984-59.156-1.0781-8.4844-2.7656-16.875-1.9219-25.547 1.2188-12.234 5.5781-23.438 11.25-34.219 2.7656-5.2031 5.9531-10.172 9.1875-15.656-2.4844-2.2969-5.25-5.0625-8.2031-7.5938-8.2031-7.2188-14.625-15.562-16.922-26.438-1.3594-6.4219-2.3438-12.891-3.0469-19.406-0.46875-4.4062-1.7344-8.2969-4.4062-11.812-6.75-8.8594-13.453-17.719-20.062-26.672-1.7344-2.3438-3.375-4.8281-4.6875-7.4531-4.3594-8.7188-3.1406-16.828 3.375-24 2.2969-2.5312 2.9531-5.0625 1.7812-8.0625-2.8594-7.3594-5.7188-14.719-8.7656-21.984-5.4375-12.938-5.5312-25.641 0.14062-38.672 2.1094-4.8281 2.3438-10.5 3.3281-15.797 1.2188-6.5156 2.2031-13.078 3.5625-19.594 0.70312-3.2812 0.84375-6.4688-0.60938-9.4688-1.7812-3.7031-3.7031-7.3125-5.7656-10.828-4.4062-7.6875-7.125-15.844-4.9688-24.984 1.2188-5.1562 3.2344-10.031 7.6875-12.984 8.9062-5.9531 14.156-14.766 19.359-23.578 4.5469-7.6875 8.625-15.656 11.062-24.328 0.98438-3.6094 1.3125-7.0312 0.46875-10.641-2.1094-9.1406-2.25-18.234 2.7656-26.531 1.875-3.1406 4.1719-6.3281 7.0781-8.4375 7.125-5.1562 11.391-12.047 14.578-19.969 3.4688-8.7188 6.7969-17.578 10.922-26.016 12.281-25.219 42.281-33.328 64.875-13.266 1.6875 1.5 3.3281 3.0469 5.3906 4.9688 2.4844-8.25 5.1562-15.891 7.0312-23.672 2.25-9.3281 4.1719-18.75 5.625-28.219 1.5469-10.078 7.2656-16.078 16.594-18.891 5.8125-1.7344 11.766-3.1406 17.719-4.3594 2.3438-0.46875 4.9688-0.5625 7.3594-0.14062 8.2031 1.5938 16.312 3.4688 24.469 5.25 1.6406 0.375 3.3281 0.65625 5.25 1.0312-0.42188-3.7031-0.89062-7.0312-1.125-10.406-1.0781-15.375-0.046875-30.469 7.125-44.531 5.9062-11.578 12.891-22.453 25.125-28.266 5.25-2.4844 11.109-3.7969 16.828-5.0156 5.625-1.2188 10.688-3.2812 15.188-6.8438 3.7969-3 7.7344-5.9062 11.25-9.2344 2.6719-2.5312 5.4375-5.2969 6.9844-8.5312 5.5781-11.906 14.766-18.844 27.656-20.203 11.625-1.2188 23.344-1.6875 35.016-2.1094 6.2344-0.23438 11.719 2.25 16.453 6.1875 3.2812 2.7656 6.4688 5.5781 9.7969 8.2969 2.0625 1.6875 4.1719 3.3281 6.4219 4.7344 6.7031 4.2188 13.406 5.2969 21.047 1.7344 7.3125-3.4219 13.266-8.0625 17.953-14.531 7.3594-10.172 16.969-17.203 29.203-20.156 8.2031-1.9688 16.594-2.1562 24.938-0.42188 4.6406 0.98438 8.5781 3.0938 11.578 6.75 2.5781 3.1406 5.25 6.2812 7.5469 9.6562 1.5 2.2031 3.2344 2.7656 5.5781 2.1562 2.2969-0.5625 4.5469-1.4531 6.8906-1.875 6.4688-1.0781 12.891-0.14062 19.219 1.4062 1.7344 0.42188 3.5156 1.6406 4.8281 2.9062 7.0781 7.125 15.844 6.8906 24.797 6 4.7344-0.46875 9.4688-1.8281 14.109-1.4531 8.5312 0.70312 13.688 6.5156 18.047 13.406 4.4062 7.125 6.9375 14.719 7.6875 23.016 0.046875 0.375 0.23438 0.70312 0.42188 1.3125 1.6406-1.1719 3.1875-2.25 4.7344-3.2812 8.2031-5.6719 17.156-9 27.188-9.2344 4.8281-0.14062 9.7031-0.32812 14.531-0.42188 9.0938-0.1875 16.781 3.1406 22.266 10.266 6.6094 8.5312 15.047 12.984 25.5 14.672 5.2031 0.84375 10.453 2.25 15.328 4.2188 7.3125 2.9062 14.672 2.3438 22.172 1.6875 5.0625-0.46875 10.219-0.14062 15.328 0.046875 4.9219 0.1875 9.8438 0.9375 14.766 1.0312 7.125 0.14062 13.969 1.4062 20.719 3.4688 8.5312 2.625 17.25 4.7812 25.734 7.4531 4.125 1.3125 8.4844 2.7656 11.859 5.2969 7.875 5.9531 15.234 12.562 22.828 18.938 0.65625 0.5625 1.2656 1.2188 1.7344 1.9219 7.5 11.109 14.906 22.359 18.609 35.438 2.4375 8.7188 1.875 17.391-3.1875 25.266-4.8281 7.5938-5.625 16.172-5.25 24.75 0.42188 10.641 1.1719 21.281 2.7188 31.781 1.0781 7.4531 3.8438 14.672 5.6719 22.078 1.125 4.5 1.8281 9.0938 2.7656 13.641 0.14062 0.70312 0.23438 1.5469 0.70312 2.0625 6.2812 7.125 15.891 9.1406 24.422 5.0156 3.3281-1.5938 6.375-3.8906 9.7969-5.2031 7.4531-2.8125 15.188-4.9219 22.594-7.8281 11.672-4.5938 23.203-5.2031 35.062-0.75 6.2812 2.3438 12.938 3.8438 19.312 5.9531 11.109 3.7031 16.547 12.094 17.812 23.25 1.2188 10.734 0.60938 21.422-0.75 32.156-0.70312 5.625-0.32812 11.391-0.32812 17.109 0 0.98438 0.46875 2.1094 1.0312 2.9062 4.5469 6.4219 5.5312 13.547 4.6875 21.234-0.375 3.4688-0.32812 7.0312-0.046875 10.5 0.65625 7.7812-0.9375 14.906-5.1094 21.516-2.6719 4.1719-5.4844 8.25-7.875 12.562-2.4844 4.4531-4.9219 9.0469-6.6094 13.875-0.9375 2.6719-1.0781 6.1875-0.1875 8.8125 4.1719 12 4.9219 24.141 2.8125 36.562-0.23438 1.4062-0.5625 2.8594-0.375 4.2656 1.1719 9.375-2.0156 17.906-5.625 26.156-3.4688 7.9219-4.7812 16.219-5.4375 24.656-0.5625 7.4531-0.75 15-0.65625 22.453 0.046875 2.9531 1.3594 5.9062 1.7812 8.9062 0.98438 6.75 2.3438 13.547 2.5312 20.297 0.32812 14.062 1.1719 28.219-1.5469 42.141-1.6875 8.7656-3.9375 17.438-6.75 25.922-1.7344 5.1562-4.4062 10.219-7.7344 14.484-4.7812 6.2344-7.3594 12.891-7.7812 20.672-0.42188 7.8281-2.0156 15.562-5.25 22.688-1.7812 3.8906-4.5469 7.4062-7.125 10.922-4.1719 5.6719-8.7188 11.016-12.797 16.734-7.875 11.062-16.641 21.094-29.203 27-8.0625 3.7969-14.109 9.7969-19.359 16.828-7.0312 9.4219-12 20.062-17.391 30.422-5.625 10.734-11.906 21.094-20.766 29.531-3.375 3.2344-7.5 5.7656-11.531 8.2969-3.6094 2.25-7.4531 4.2188-11.25 6.1406-17.625 8.8125-28.547 23.578-37.219 40.734-6.6094 13.078-13.922 25.781-21.469 38.297-5.25 8.7656-12.094 16.5-20.391 22.5-4.6406 3.3281-9.9375 5.9531-15.281 8.1094-7.5938 3-15.188 2.25-22.125-2.25-3.8438-2.4375-7.5469-5.1562-11.109-8.0156-3.2344-2.5781-6.75-3.5625-10.828-3.5156-13.078 0.09375-23.391 6.4688-33.141 14.203-13.031 10.359-25.172 21.797-39.469 30.562-9.375 5.7656-19.5 9.5156-30.234 11.531-7.6406 1.4531-15-0.32812-22.031-3.0938-5.9062-2.3438-11.812-4.875-17.25-8.2031-8.0625-4.9219-16.406-6.0469-25.172-3.4688-11.25 3.3281-22.734 6.5156-33.469 11.156-16.969 7.3594-34.312 9.0469-52.172 6.0469-13.125-2.2031-31.078-14.719-34.266-33.984-1.0781-5.625-1.8281-11.25-2.7656-17.297zm318.32-682.82c0.375-0.23437 0.89062-0.51562 1.3594-0.79687 10.688-6.4219 21.234-13.078 32.109-19.125 5.5312-3.0469 11.578-5.1562 17.578-7.3125 2.6719-0.9375 5.4375 0.9375 6.4219 3.4688 1.0312 2.625 0.1875 5.4375-2.2969 6.9844-1.6875 1.0781-3.4688 1.9219-5.2969 2.7656-15.234 7.3594-30.281 15.141-44.391 24.562-5.4375 3.6094-7.0781 8.5781-5.0625 15.188 0.79688-0.51563 1.5938-0.98438 2.3906-1.5 12.891-8.0156 25.828-16.125 38.766-24.094 2.3906-1.5 5.0625-2.7188 7.7344-3.6562s5.3438 0.375 6.6094 2.6719c1.2656 2.3438 0.84375 5.2031-1.2656 7.0312-1.875 1.5938-3.8906 3.0469-6 4.3125-9.6094 5.8125-19.266 11.484-28.875 17.297-5.3438 3.2344-10.734 6.5156-15.891 10.078-3.1406 2.1094-3.6094 4.9219-1.8281 8.1562 0.9375 1.7344 2.1562 3.2812 3.2812 4.9688 14.156-10.266 29.578-17.766 45.188-24.797 5.5312-2.4844 11.297-4.4062 17.109-6.2812 2.6719-0.84375 5.2969 0.75 6.375 3.1406 1.1719 2.4844 0.42188 5.3438-1.9688 7.0781-1.125 0.84375-2.4375 1.5-3.75 2.0625-11.812 5.4844-23.719 10.781-35.438 16.453-9.4219 4.5469-18.656 9.5156-26.578 16.547-0.75 0.65625-1.7344 1.9219-1.5469 2.7188 0.75 4.125 2.7656 7.6875 4.8281 11.016 8.7656-5.5781 16.969-11.062 25.453-16.172 4.2656-2.5781 8.9062-4.6406 13.547-6.6094 3.4219-1.4531 6.375-0.23437 7.8281 2.625 1.3594 2.7188 0.42188 5.7656-2.6719 7.8281-1.6406 1.125-3.4219 2.0156-5.1562 3-10.172 5.9531-20.344 11.906-30.469 17.906-0.84375 0.51562-1.5938 1.1719-2.5312 1.875 2.8594 3.5156 5.5312 6.75 8.2031 9.9844 0.70312-0.32812 1.2188-0.5625 1.6875-0.84375 17.391-11.344 36.281-19.594 55.641-26.812 2.9062-1.0781 6-1.9219 9.0938-2.3438 3.1406-0.46875 5.6719 1.4062 6.4219 4.0781 0.79688 2.9062-0.375 5.625-3.3281 7.125-1.6875 0.84375-3.5156 1.4531-5.25 2.2031-13.406 5.5781-26.906 11.016-40.266 16.781-5.625 2.4375-10.875 5.6719-16.547 8.6719 1.7344 2.5781 3.1875 4.6875 4.5938 6.7969 4.875-2.7188 9.4219-5.3438 14.062-7.7344 5.1094-2.5781 10.219-5.0625 15.469-7.2656 3.375-1.4062 6.4219 0 7.7344 2.8594 1.3125 2.8125 0.23438 5.8594-2.8594 7.7812-1.875 1.125-3.8906 1.9688-5.8594 2.9531-7.6875 3.75-15.328 7.5-23.109 11.297 1.125 3.3281 2.1094 6.2812 3.0469 9.1406 10.875-5.2031 21.609-10.5 32.484-15.469 4.4531-2.0625 9.1875-3.6562 13.922-5.0156 2.6719-0.79688 5.2969 0.98437 6.2812 3.3281 1.0312 2.3906 0.28125 5.1562-2.0156 6.8438-1.125 0.84375-2.3906 1.5469-3.7031 2.1562-5.0156 2.25-10.078 4.4531-15.141 6.7031-8.25 3.7031-16.5 7.3594-24.703 11.109-2.7656 1.2656-4.125 3.7031-5.3438 6.8438 7.8281-3.1406 15-6.1875 22.266-8.8594 6.2344-2.25 12.562-4.4062 18.984-5.9531 3.8906-0.9375 6.4688 1.0312 7.3125 4.2188 0.79688 3.0938-0.75 5.7188-4.5469 7.125-4.0781 1.5469-8.25 2.9062-12.328 4.4062-9.375 3.4219-18.75 6.8906-28.078 10.453-1.7812 0.70312-3.9844 1.6406-4.875 3.1875-2.4375 3.9844-4.3125 8.3438-6.4219 12.562 0.14062 0 0.51562 0.046874 0.89062-0.09375 22.312-5.8125 45-9.5156 67.969-11.531 3.4688-0.28125 7.0312-0.28125 10.547 0.09375 3 0.28125 4.9219 2.6719 5.0156 5.3906 0.09375 2.6719-1.6875 5.0156-4.5938 5.7188-2.2031 0.51563-4.4531 0.89063-6.75 1.125-24.234 2.0625-48.094 6.0938-71.672 12.047-3.7031 0.9375-7.3125 2.2031-10.969 3.2812 0.046875 0.32812 0.09375 0.70312 0.14062 1.0312 9.9375-1.5 19.594 2.0156 29.672 0.98437 10.453-1.0781 21.094-0.79687 31.641-0.9375 4.2656-0.046874 8.5781 0.046876 12.797 0.46875 4.2656 0.42188 6.5625 3.0938 6.2812 6.6562-0.28125 3.375-2.8594 5.5781-7.0312 5.625-4.3594 0-8.7656-0.23437-13.125-0.32812-3.75-0.046876-7.5 0-11.344 0 5.2969 5.4844 10.312 11.062 15.703 16.219 11.766 11.297 14.578 23.203 7.9688 37.969-2.0156 4.5469-4.7344 8.9062-7.8281 12.844-7.2656 9.2812-14.906 18.234-22.406 27.328-4.6875 5.7188-7.0312 12.281-7.7344 19.594-0.98438 10.688-1.7344 21.422-3.4219 32.016-2.3906 14.625-6.5625 28.734-13.875 41.766-5.0625 9.0469-10.078 18.094-14.953 27.234-4.6875 8.7656-10.734 16.125-19.5 21.047-0.375 0.23438-0.70312 0.5625-1.3125 1.0781 0.89062 0.79687 1.7812 1.3594 2.4375 2.1562 5.625 6.5625 11.391 12.984 16.781 19.734 2.0156 2.5312 1.1719 5.7656-1.1719 7.6406-2.2031 1.7344-5.2969 1.7344-7.5469-0.42188-2.0625-1.9688-3.7031-4.3125-5.625-6.4219-4.6875-5.25-9.375-10.5-14.203-15.609-0.84375-0.84375-2.6719-1.6406-3.6562-1.3125-5.5312 1.6406-10.969 3.6562-16.734 5.6719 0.75 0.84375 1.4062 1.5938 2.1094 2.3438 5.0625 5.8125 10.266 11.484 15.141 17.484 2.0625 2.5312 3.5156 5.625 4.7344 8.6719 1.0312 2.5781-0.14062 4.9219-2.5312 6.3281s-4.7812 1.0781-6.8438-0.79687c-0.75-0.70313-1.3594-1.5938-2.0156-2.3906-7.3125-8.8594-14.625-17.766-22.031-26.578-0.98438-1.1719-2.3438-2.4375-3.75-2.8125-8.25-2.1562-16.312-0.9375-24.375 1.7344 0.23438 0.375 0.32812 0.65625 0.51562 0.84375 9.7031 10.219 19.594 20.25 28.969 30.703 4.5 4.9688 8.2969 10.641 11.953 16.266 2.2031 3.4219 1.2188 6.8438-1.5469 8.5781-2.9062 1.875-5.9531 0.9375-8.625-2.2969-9.2812-11.297-18.609-22.641-27.984-33.891-4.875-5.8594-10.219-11.25-17.016-14.906-0.46875-0.23438-1.0781-0.42188-1.5469-0.32813-4.6406 0.79688-9.2812 1.6875-14.203 2.5781 3.5156 3.2344 6.9375 6.2344 10.125 9.4219 4.875 4.9219 9.6094 10.031 14.297 15.141 1.1719 1.2656 2.1094 2.7188 2.9531 4.2188 1.875 3.3281 1.3594 6.5625-1.2188 8.3906-2.6719 1.9219-5.7656 1.5-8.3906-1.3594-3.7031-4.0781-7.2188-8.3438-10.969-12.422-6.1406-6.6562-12.047-13.5-19.875-18.234-0.5625-0.32813-1.4531-0.70313-1.9219-0.46875-3.1875 1.5469-6.3281 3.2344-9.5625 4.9219 0.42188 0.5625 0.5625 0.79688 0.75 0.98438 14.438 12.281 27.562 25.969 40.125 40.172 4.3594 4.9219 8.5781 9.9375 12.609 15.094 1.9219 2.4375 1.4062 5.5781-0.65625 7.5469s-5.0625 2.1094-7.5938 0.23437c-1.1719-0.84375-2.25-1.7812-3.1875-2.8125-10.078-10.922-19.922-22.031-30.188-32.766-6.7969-7.1719-14.062-13.922-21.328-20.625-1.6406-1.5-4.3125-2.8125-6.375-2.625-6.4688 0.60937-12.891 1.9688-19.547 3.0469 0.65625 0.75 1.3594 1.4531 1.9688 2.25 7.5469 9.1875 15.234 18.234 22.594 27.562 1.9219 2.3906 3.2344 5.3438 4.4531 8.25 1.3125 3.1406 0.14062 6.2344-2.5312 7.6406-2.625 1.4062-5.7188 0.70312-7.7812-2.0156-1.1719-1.5-2.1562-3.1406-3.2344-4.7344-7.9688-12-16.781-23.344-26.906-33.609-3.1406-3.1875-6.7969-5.5312-11.766-4.7812-2.625 0.375-5.2969 0.046876-7.9688 0.046876-0.5625 0-1.1719 0.1875-1.9688 0.32812 3.4219 3.9375 6.6562 7.5938 9.75 11.25 2.9531 3.4688 6 6.8906 8.7188 10.594 1.875 2.5781 1.2188 5.8594-0.98438 7.7344-2.25 1.9219-5.3906 1.9688-7.8281-0.09375-1.7812-1.5469-3.4219-3.2812-4.9688-5.1094-6.375-7.4531-12.703-14.906-18.938-22.453-1.7812-2.1562-3.8438-2.7656-6.2812-1.9688-3.7031 1.2188-7.3594 2.4844-10.922 4.0781-10.5 4.6875-20.859 9.6562-31.406 14.25-4.5 1.9688-9.2812 3.2344-14.109 4.875 1.1719 3.8906 1.5938 8.1562 3.5625 11.391 3.5625 5.9062 7.9219 11.344 12.281 16.688 1.5938 1.9688 4.125 3.4219 6.4688 4.5469 10.781 5.0625 22.125 7.9219 34.172 7.9688 5.9062 0 11.719 0.9375 17.203 3.5625 10.266 4.9219 20.391 10.406 31.078 14.297 13.031 4.7344 26.859 4.0781 39.75-0.14063 8.6719-2.8125 16.266-3.4688 24.422 0.28125 7.0781 3.2344 14.25 6.2344 21.516 9.0469 9.7031 3.7969 19.219 4.7344 28.453-1.7812 5.0156-3.5156 10.969-4.4531 17.203-4.125 4.3594 0.23437 8.9062 0.60937 13.078-0.28125 9.6562-2.0625 19.172-4.7344 28.688-7.4531 4.3594-1.2188 8.7188-3.2344 10.172-7.9688 2.1562-6.8438 4.0781-13.875 5.4375-20.906 2.6719-13.312 4.4062-26.812 7.3594-40.078 3.0938-13.734 6.9844-27.234 4.1719-41.625-1.875-9.5156-0.70312-19.125-0.046875-28.734 0.65625-10.031 3.2812-19.5 8.9531-27.609 6.4219-9.1875 13.828-17.672 20.766-26.484 1.5938-2.0156 3-4.125 4.3125-6.2812 1.3594-2.25 2.3906-4.7344 3.75-7.0312 6.0469-10.688 14.531-19.312 23.766-27.141 9.9375-8.3906 16.406-18.328 17.953-31.547 1.1719-10.078 4.6406-19.594 8.8594-28.781 2.4844-5.4375 4.875-10.922 7.3125-16.406 5.6719-12.656 10.266-25.453 9.1875-39.797-0.65625-9 1.7812-17.719 5.2031-26.109 2.2031-5.3438 4.6875-10.641 6.375-16.172 6.7969-22.125 9.9375-44.531 4.3125-67.453-2.0625-8.4375-3.8438-17.016-6.6562-25.219-2.1094-6.2344-5.625-12.047-8.5312-18.047-5.8594-12.281-9.9375-24.797-6.9375-38.812 2.4844-11.625 1.4062-23.109-2.3438-34.594-2.7188-8.3438-4.6406-17.109-5.8594-25.828-1.2656-8.9062-1.5469-18-1.7812-27-0.32812-11.625 1.5469-22.734 7.9219-32.812 1.125-1.7344 1.6406-4.125 1.6406-6.2344 0-3.1875-0.046875-6.6562-1.2656-9.5156-6.0938-14.156-12.469-28.219-25.406-37.875-3.3281-2.5312-6.375-5.4844-9.8906-7.6875-3.375-2.1562-7.125-3.9375-10.922-5.2031-8.0625-2.625-16.266-4.5938-24.328-7.0781-6.1406-1.9219-12.281-3.1875-18.75-3.2344-4.3594-0.046876-8.8125-0.09375-13.078-0.79688-6.1875-1.0312-12.281-0.98437-18.422 0-8.3438 1.3594-16.406 0.28125-24.328-2.7188-4.5938-1.7344-9.4688-2.6719-14.25-3.8438-2.1094-0.5625-4.2656-0.84375-6.4219-1.3594-9.9844-2.4375-18-7.9219-24.281-16.031-3.2812-4.2656-7.4531-7.0781-13.078-6.9844s-11.25 0.28125-16.828 0.60938c-6.9375 0.375-13.172 3.0469-18.656 7.1719-3.5625 2.6719-6.8906 5.6719-10.078 8.8125-4.875 4.8281-10.641 7.9688-17.344 9.3281-2.0625 0.42187-4.125 0.70312-6.1406 1.1719-8.0625 1.9219-15.984 4.6875-24.141 5.7188-12.609 1.5938-25.031-0.32812-36.938-4.875-4.7812-1.8281-9.5625-3.7031-14.344-5.5781-10.641-4.1719-21.375-6.0469-32.531-1.9688-1.5938 0.60937-3.3281 0.79687-4.9688 1.1719-14.531 3.2344-27.281 9.8438-36.75 21.469-5.8594 7.1719-11.109 15-15.844 22.922-6.0469 10.078-7.125 21.328-5.8125 32.859 0.14062 1.3125 1.1719 2.7188 2.1562 3.6562 4.6406 4.5 9.4688 8.7656 14.062 13.266 1.5469 1.5469 2.4844 3.6094 3.7031 5.4375 0.23438-0.046876 0.46875-0.14063 0.70312-0.1875-0.42188-8.5312-0.89062-17.016-1.2656-25.547-0.23438-6.4688-0.51562-12.938-0.375-19.359 0.046875-2.9062 2.5312-4.875 5.25-5.1562 2.8594-0.28125 5.4375 1.3125 6.2812 4.2656 0.51562 1.7812 0.75 3.75 0.79688 5.625 0.32812 14.578 0.5625 29.109 0.79688 43.688v3.1875c0.98438-0.32812 1.5469-0.46875 2.0625-0.65625 4.9219-1.8281 4.9688-1.8281 4.9688-6.9375 0-11.438-0.14062-22.828-0.046875-34.266 0-2.625 0.32812-5.3438 0.98438-7.875 0.98438-3.6562 3.6094-5.3438 6.7031-4.875 3.0938 0.51562 4.875 2.8125 4.8281 6.7031-0.09375 9.9844-0.28125 19.969-0.42188 29.953-0.046875 3.4688 0 6.9844 0 10.547 0.32812 0 0.70312 0.09375 1.0781 0 7.7344-1.7812 6.75 0.60938 6.8438-7.875 0.046875-5.7188 0.14062-11.391 0.70312-17.062 0.32812-3.375 3.0469-5.25 5.8594-5.0625 3.0469 0.1875 5.1562 2.4844 5.25 6.0469 0.09375 2.9531-0.09375 5.9062-0.14062 8.8594-0.046875 4.7344 0 9.4688 0 14.297 2.6719 0.46875 5.2969 0.9375 8.3438 1.5-0.32812-6.1875-0.75-11.953-0.98438-17.766-0.23438-5.2031-0.65625-10.453-0.375-15.656 0.23438-4.2188 3-6.3281 6.4688-6.0469 3.2812 0.28125 5.4375 2.7656 5.5312 6.7969 0.28125 10.547 0.46875 21.141 0.70312 31.688v3.1406c7.7812-0.42188 15.047-0.79688 22.547-1.1719 0 0 0.14062-0.42187 0.09375-0.89062-0.42188-6.4688-0.84375-12.891-1.3125-19.359-0.42188-5.8594-1.1719-11.719-1.3125-17.625-0.09375-3.9844 2.4844-6.4219 5.8125-6.4688 3.3281-0.046874 5.8125 2.3438 6.0938 6.2812 0.84375 12.703 1.5938 25.453 2.25 38.156 0.09375 1.9688 0.46875 2.9531 2.4844 3.7031 2.4375 0.89062 5.1562 2.0156 6.8906 3.8438 3.375 3.5625 6.2344 7.6406 9.1875 11.578 1.2656 1.6875 2.25 3.6094 3.7031 5.8594 0.23438-1.5 0.46875-2.3438 0.51562-3.1875 0.60938-17.109 1.2188-34.219 1.8281-51.328 0.09375-2.5781 0.046875-5.1562 0.46875-7.6406 0.51562-2.9062 2.7188-4.5469 5.4375-4.5469 2.6719 0 4.875 1.5938 5.5312 4.4531 0.5625 2.4844 0.98438 5.0625 1.1719 7.5938 1.125 17.25-0.46875 34.406-2.5312 51.516-0.5625 4.7344-1.125 9.5156-1.6875 14.25 0.23438 0.14063 0.51562 0.23438 0.79688 0.375 0.46875-0.42187 1.2188-0.75 1.3594-1.2656 1.9219-5.25 3.375-10.688 5.7656-15.75 8.7188-18.609 17.719-37.078 26.625-55.594 2.5781-5.2969 4.9219-10.734 7.7344-15.891 0.89062-1.6875 2.7656-3.1406 4.5469-3.9375 2.1094-0.9375 4.3125-0.046874 5.8594 1.8281 1.8281 2.1562 1.7344 4.5938 0.65625 6.9844-4.7344 10.359-9.3281 20.812-14.344 31.078-7.0312 14.344-14.344 28.547-21.516 42.797-0.75 1.5469-1.2656 3.1875-1.9219 4.7344 2.3438-0.75 4.125-1.8281 5.9062-2.8594 3.2812-1.9219 6.375-4.6875 9.9375-5.4844 5.9531-1.3125 7.5938-5.3906 10.078-10.125 10.406-20.062 21.375-39.891 32.391-59.672 2.6719-4.7812 6.1875-9.0938 9.6562-13.406 2.4375-3.0469 5.7656-3.375 8.3438-1.4531 2.6719 1.9688 3 5.1562 0.9375 8.625-11.766 20.016-23.531 40.031-35.203 60.047-2.4375 4.1719-4.5469 8.5781-6.75 12.891-0.70312 1.3594-1.125 2.8125 0.9375 3.375 3.4219 0.9375 6.8906 1.7812 10.125 2.625 2.7656-5.9531 5.0156-11.766 7.9688-17.156 4.7344-8.6719 9.8438-17.156 15.047-25.5 1.875-3.0469 5.0625-3.5625 7.7344-2.0625 2.625 1.4531 3.6094 4.4531 2.2031 7.7344-1.2188 2.7656-2.7656 5.3906-4.2656 8.0625-4.7344 8.3438-9.5625 16.688-14.203 25.078-1.2656 2.25-2.1094 4.7812-3.2812 7.5938 3.9844 0.75 7.4062 1.4531 10.875 1.9219 0.65625 0.09375 1.5938-0.75 2.0625-1.3594 2.3438-3.1406 4.3125-6.5156 6.7969-9.4688 9.0938-10.688 19.734-19.828 30.797-28.406 9.3281-7.2188 18.844-14.203 28.359-21.141 3.0938-2.25 6.4219-1.7344 8.4375 0.79688 1.9219 2.4375 1.6875 5.5781-0.84375 8.25-1.6406 1.7344-3.375 3.3281-5.25 4.7812-5.9531 4.5469-12.141 8.9062-18.047 13.547-12.141 9.5156-24.375 18.891-34.875 30.328-1.5469 1.6875-2.9062 3.6094-4.6406 5.7656 5.3906 1.7812 10.219 3.4688 15.094 4.9688 0.70312 0.1875 1.7344-0.375 2.4375-0.84375 7.125-5.1094 13.828-10.734 21.328-15.234 6.4688-3.8906 13.641-6.6562 20.625-9.5156 2.7656-1.125 5.5312 0.46875 6.75 2.8594 1.2656 2.5312 0.60938 5.5781-1.875 7.3594-1.9219 1.3594-4.0312 2.5781-6.2344 3.4688-9.7969 4.0312-18.938 9.2812-27.562 15.469-1.2188 0.89063-2.3906 1.8281-3.6562 2.7656 2.8125 3.1875 5.3906 6.1406 7.9219 9 20.016-14.812 41.859-26.156 64.453-36.094 2.5781-1.125 5.3906-1.9688 8.1562-2.4844 3.1875-0.60937 5.7188 1.0312 6.6094 3.7031 0.89062 2.7656-0.14062 5.3438-2.9531 7.0312-1.0781 0.65625-2.1562 1.2188-3.2812 1.7344-13.875 6.8438-27.938 13.453-41.625 20.672-8.2969 4.3594-16.078 9.75-24.047 14.766-0.79688 0.51563-1.7344 2.0625-1.5469 2.8125 1.125 6.0469 3.0469 12.094 4.9219 18.469zm182.76 140.26c0.46875-0.1875 1.0781-0.46875 1.6875-0.70312 7.0781-2.7188 14.109-5.625 21.281-8.1094 2.3438-0.79688 5.0625-0.9375 7.5938-0.79688 3.5156 0.23438 5.8594 3.5625 5.2031 6.8438-0.60938 3-2.6719 4.4062-5.5312 5.0625-10.922 2.4375-21.422 5.9531-31.078 11.719-1.2188 0.70312-2.25 2.2969-2.625 3.6562-2.2969 9.3281-4.5469 18.656-8.8125 27.375-0.46875 0.98438-0.75 2.0156-1.2656 3.4219 1.4062-0.375 2.2969-0.65625 3.1875-0.84375 13.734-3.4219 27.469-6.8906 41.25-10.219 3.75-0.89062 6.7031 0.65625 7.7344 3.6562 1.0781 3.0938-0.23438 5.8125-3.7031 7.6875-1.0781 0.5625-2.25 1.125-3.4219 1.4062-5.0625 1.2656-10.172 2.3438-15.234 3.6094-10.406 2.5781-20.812 5.25-31.266 7.7812-2.7656 0.65625-3.6562 2.25-3.7031 4.875-0.09375 4.8281-0.32812 9.7031-0.46875 14.578-0.046875 1.1719 0 2.3438 0 3.7969 4.0781-1.2656 7.5938-2.4844 11.156-3.4688 3.6562-0.98438 7.3594-1.9219 11.109-2.4844 2.9062-0.42188 5.3906 1.5469 6.0938 4.125 0.75 2.8125-0.375 5.5781-3.0938 6.9375-1.3125 0.70312-2.8594 1.0312-4.3125 1.4531-6.6562 1.9219-13.312 3.8438-20.016 5.7188-2.5312 0.70312-3.9844 2.1562-4.6875 4.7344-0.70312 2.4375-1.8281 4.7812-2.8125 7.1719-2.6719 6.375-5.3438 12.75-8.1094 19.359 0.5625-0.09375 0.89062-0.14062 1.2188-0.23438 12.75-4.6406 25.969-7.3594 39.281-9.5625 3.8438-0.60938 7.7344-0.89062 11.625-0.89062 2.8594 0 4.9219 2.3906 5.25 5.1094 0.32812 2.9062-1.0781 5.25-3.7969 6.2812-1.2656 0.46875-2.5781 0.75-3.8438 0.98438-8.1562 1.4062-16.312 2.6719-24.422 4.2656-10.359 2.0625-20.719 4.1719-30 9.6562-1.875 1.125-3.0469 2.4375-3.4688 4.5469-1.875 8.5312-3.8438 17.062-5.7188 25.594-0.046875 0.14062 0.1875 0.28125 0.375 0.5625 2.6719-0.42188 5.3438-1.125 8.0625-1.3125 3.8438-0.28125 7.7344-0.5625 11.578-0.23438 2.9531 0.23438 4.7344 2.8125 4.6875 5.5781s-1.875 4.8281-4.875 5.4844c-0.5625 0.14062-1.125 0.14062-1.6875 0.23438-6.8438 0.98438-13.734 1.7812-20.578 3-2.7188 0.46875-5.8125 1.3125-7.7812 3.0938-6.8438 6.0469-13.547 12.328-19.734 18.984-4.4062 4.7344-7.9219 10.266-11.859 15.422 5.2031 0.046875 9.7031-0.5625 14.203-0.98438 15.797-1.5 31.312 1.3594 46.922 2.8594 3.0938 0.28125 5.0156 2.6719 5.2031 5.5781 0.14062 3.0469-1.6406 5.7656-4.7812 6.1406-3.6562 0.375-7.4062 0.32812-11.062-0.09375-14.859-1.7344-29.672-3.0469-44.672-1.5-10.453 1.0781-19.125 4.5938-24.562 14.109-1.1719 2.0625-2.7656 3.8906-4.125 5.8125-0.32812 0.46875-0.5625 1.0781-0.98438 1.875 1.4062 0 2.4844-0.14062 3.5156 0 10.734 1.4531 21.469 2.8125 32.156 4.5938 2.7656 0.46875 5.4844 2.1562 7.875 3.75 2.2031 1.4531 2.625 3.9375 1.6875 6.375-0.9375 2.4844-2.9062 3.7969-5.5781 3.6094-1.5938-0.09375-3.1875-0.60938-4.7344-0.9375-5.9062-1.3594-11.812-2.9531-17.766-3.9844-5.9062-0.98438-11.859-1.6406-17.859-1.875-2.2969-0.09375-5.9062 0.5625-6.75 2.0625-2.4375 4.3594-2.9531 9.5156-2.7188 14.578 4.125 0.23438 8.1562 0.14062 12.047 0.70312 12.234 1.7344 23.672 6.2344 34.828 11.391 3 1.3594 5.9062 3.0938 8.4844 5.1562 2.7188 2.1562 3 5.6719 1.2188 8.2031-1.875 2.5781-5.0156 3.2344-8.1562 1.7344-4.9688-2.3906-9.8906-4.9219-14.906-7.0781-8.7656-3.75-17.578-7.5469-27.188-8.1562-9.0469-0.5625-7.0781-0.42188-7.0312 6.8906 0.046875 4.125 1.0781 6.8906 5.5312 9.0938 11.578 5.7656 20.484 15.094 28.875 24.703 3.7969 4.3594 6.7969 9.6094 9.5625 14.766 1.875 3.5625 0.42188 6.8906-2.5312 8.3438-3.0938 1.5-6.2812 0.42188-8.3438-3.2344-6.6094-11.719-16.125-20.906-26.016-29.719-1.4531-1.2656-3.0938-2.3438-4.2656-3.1875-2.25 10.219-4.5469 20.25-6.6094 30.328-0.14062 0.75 0.75 1.9688 1.5469 2.5312 7.5469 5.5781 14.484 11.812 19.922 19.453 1.9219 2.7188 3.2344 6.0469 4.2656 9.2344 0.84375 2.625-0.42188 4.9219-2.9062 6.1875-2.3438 1.1719-4.6875 0.79688-6.5625-1.125-0.79688-0.79688-1.4531-1.7812-1.9688-2.7656-3.7969-7.0781-9.2812-12.703-15.141-18.094-0.5625-0.51562-1.2656-0.9375-2.25-1.6875-1.2188 7.5-2.1562 14.578-3.6094 21.562-0.89062 4.3594 0.375 7.1719 3.4688 10.453 4.5938 4.8281 8.3906 10.5 12.141 16.125 1.9219 2.9062 0.65625 6.3281-2.0625 7.9219-2.5781 1.5-5.7656 0.75-7.8281-1.9219-1.0781-1.4062-1.9219-3.0938-2.9531-4.5469-1.9688-2.8125-4.0781-5.5781-5.9531-8.1562-2.3438 4.7344-3.8906 9.6094-6.8438 13.359s-7.3125 6.3281-11.25 9.6094c0.09375 0.14062 0.42188 0.79688 0.75 1.5 2.4375 5.5781 5.0625 11.062 7.3125 16.734 1.4531 3.7031 0.1875 6.75-2.7188 8.0156-3.0469 1.3125-6 0-7.9219-3.6562-0.84375-1.5938-1.5-3.2812-2.25-4.9219-1.9688-4.4062-3.9375-8.8594-5.9062-13.266-0.60938-1.3594-1.4062-2.0156-3.1406-1.4062-8.7188 3.0938-17.625 5.25-27.234 5.9531 0.75 1.1719 1.4062 2.0625 1.9219 3.0469 5.625 10.547 11.344 21.047 16.781 31.734 1.125 2.2031 1.5 4.9219 1.5938 7.4062 0.14062 2.7656-1.6875 4.5938-4.3594 5.2969-2.625 0.70312-4.7344-0.28125-6.2344-2.3438-0.79688-1.125-1.3125-2.5312-1.9219-3.7969-3.375-7.4062-6.7031-14.859-10.078-22.312 0.28125 3.8906 1.2188 7.5938 1.6406 11.344 0.375 3.2812-1.3125 5.5312-4.125 6.3281-3.3281 0.98438-6.1406-0.89062-7.4062-4.8281-2.4844-7.7812-4.9688-15.562-7.5469-23.297-0.5625-1.6875-1.4062-3.2344-2.3438-5.25-11.25 7.9688-22.828 5.7656-33.891 2.1094 6 9.1875 12.094 18.375 17.906 27.703 1.4531 2.3438 2.3906 5.2031 3.0938 7.9219 0.75 2.7656-0.89062 5.4844-3.3281 6.5625-2.5312 1.0781-5.3906 0.375-7.125-1.9219-0.9375-1.2656-1.7344-2.7188-2.4375-4.1719-5.6719-11.062-12.516-21.328-20.531-30.797-1.875-2.2031-4.0781-4.0781-5.7656-5.7656 1.0312 5.5781 2.0625 11.297 3.1406 17.062 0.14062 0.60938 0.60938 1.1719 0.9375 1.6875 4.7344 7.125 9.6094 14.203 14.109 21.422 1.5469 2.5312 2.5312 5.5781 3.0938 8.4844 0.70312 3.6094-1.2188 6.3281-4.2188 7.0781-2.9531 0.75-5.2969-0.75-6.8906-4.125-1.7344-3.6094-3.5156-7.1719-5.2969-10.734-0.46875-0.89062-1.0781-1.7344-1.6406-2.625-2.7188 14.625-9.2812 27.281-16.078 39.844-2.6719 4.9688-6.2344 9.6562-11.766 11.578-11.625 4.0312-22.922 4.4531-33.094-4.0781-0.5625-0.46875-1.1719-0.84375-2.0625-1.4531-0.42188 1.6406-0.79688 2.9531-1.1719 4.3125s-0.65625 2.7656-1.0781 4.125c-1.0312 3.2812-3.4219 4.9688-6.3281 4.5469-3-0.46875-5.1094-2.9531-4.7812-6.4219 0.28125-2.8125 1.1719-5.5781 1.7812-8.3438 0.42188-1.7812 0.9375-3.5625 1.6875-6.2344-3.5156 0.70312-6.2812 1.1719-9 1.8281-6.9844 1.7344-13.922 3.7031-20.953 5.1562-2.0625 0.42188-2.7656 1.0781-3.4219 2.8594-1.7344 4.4062-3.5156 8.8125-5.7656 12.984-1.4062 2.5781-4.6406 3.0469-7.0312 1.8281-2.2969-1.2188-3.4219-3.75-2.7188-6.5625 0.375-1.5469 1.0312-3.0469 1.6406-4.5469 0.98438-2.5781 2.1094-5.1094 3-7.6875 0.23438-0.75 0.1875-2.0156-0.32812-2.4844-4.1719-3.9375-5.1562-8.9062-4.7812-14.344 0.42188-6.2812 0.84375-12.516 1.1719-18.797 0.09375-1.4531-0.32812-2.9531-0.46875-4.4062-0.70312 0.375-0.9375 0.75-1.0781 1.1719-4.875 15.141-11.344 29.672-18.703 43.734-1.5938 3.0938-3.6094 6.0469-5.8125 8.7656-1.9688 2.3906-5.2031 2.5312-7.5 0.9375-2.3906-1.6406-3.2344-4.4531-2.1094-7.3125 0.46875-1.2188 1.125-2.3906 1.7344-3.6094 4.7344-9.5625 9.5625-19.031 14.156-28.641 4.0312-8.3906 7.8281-16.828 9.0938-26.203-2.1562-0.5625-2.6719-0.32812-3.6094 2.1562-8.5781 22.969-21.938 43.172-36.422 62.719-2.4375 3.2812-5.625 6.1875-8.8594 8.7656-2.9062 2.3438-6.2344 1.875-8.2969-0.28125-2.25-2.4375-2.1562-5.3438 0.42188-8.4844 2.6719-3.2344 5.7656-6.1406 8.1094-9.6094 8.9531-13.453 17.719-27.047 26.391-40.688 2.0625-3.2344 3.5156-6.7969 5.25-10.219-2.3438 1.3125-4.125 3-5.9062 4.6875-9.7031 9.0938-18.656 19.078-30.281 25.922-1.8281 1.0781-3.2344 2.9531-5.0156 4.2188-8.2031 6-16.219 12.281-24.75 17.719-3.4688 2.2031-4.8281 4.5938-4.5469 8.2031 0.32812 4.2656 0.79688 8.5312 1.6406 12.703 2.7188 13.266 11.578 21.188 24.047 23.859 14.203 3.0469 28.547 1.875 42.234-4.0781 12.844-5.5781 25.922-10.312 39.703-13.266 11.484-2.4375 22.172-1.2188 32.391 4.9219 5.1094 3.0469 10.688 5.4375 16.219 7.7344 6.9375 2.8125 14.016 3.1875 21.469 1.0312 10.219-3 19.453-7.7812 27.797-14.109 9.9375-7.5469 19.406-15.656 29.109-23.438 12.844-10.406 26.719-18.141 44.062-17.484 5.5312 0.23438 10.453 1.7344 14.812 5.0625 2.3906 1.875 4.875 3.7031 7.1719 5.6719 6.4688 5.4844 13.266 5.625 20.672 1.875 7.6406-3.8438 13.359-9.75 18.562-16.219 10.547-13.172 18.141-28.125 25.641-43.078 6.8906-13.641 14.625-26.484 26.391-36.469 8.5312-7.2656 18.562-12.188 28.312-17.531 3.0469-1.6406 6.0469-3.7031 8.5312-6.0938 8.6719-8.4844 14.484-19.031 20.109-29.625 3.9375-7.4531 7.7812-15.047 12.281-22.219 6.75-10.734 14.578-20.578 26.438-26.156 12.281-5.7656 20.719-15.422 27.938-26.531 2.8125-4.3594 5.9531-8.7188 9.6094-12.328 5.2031-5.2031 8.4844-11.156 9.9375-18.234 0.79688-3.7031 1.5938-7.5 1.7344-11.25 0.46875-10.078 3.8438-18.844 10.219-26.672 2.3906-2.9531 4.4531-6.5156 5.625-10.172 2.5781-8.0625 4.875-16.219 6.4688-24.516 2.5781-13.547 1.7812-27.328 1.4062-41.016-0.14062-5.3906-0.65625-10.875-2.0156-16.078-2.625-9.8906-3.1875-19.828-2.1094-29.953 1.2188-11.625 1.7812-23.344 6.7969-34.219 3.2344-7.0312 5.625-14.297 4.7812-22.312-0.23438-2.0156 0.32812-4.1719 0.70312-6.2344 1.5469-9.8438 1.2656-19.547-2.25-28.969-2.2969-6.1406-2.3438-12.281 0-18.375 1.125-2.9062 2.2031-5.9062 3.75-8.625 3.8906-6.8438 8.0625-13.594 12.188-20.297 2.7188-4.4062 3.5156-9.0938 3-14.203-0.375-3.75-0.23438-7.5938 0.09375-11.391 0.375-5.0156 0.28125-9.75-2.8125-14.203-1.5-2.1562-2.625-5.0625-2.7188-7.6875-0.23438-7.125-0.375-14.297 0.375-21.375 1.0312-9.2344 1.4531-18.375 0.70312-27.609-0.5625-6.6094-3.4688-11.578-10.266-13.594-7.3594-2.2031-14.766-4.4531-22.125-6.7031-6.2344-1.9219-12.375-1.875-18.469 0.32812-12.141 4.3594-24.938 6.9375-36.047 13.969-0.32812 0.1875-0.70312 0.32812-1.0312 0.46875-9.2812 3.6562-18.375 3.4219-27.188-1.5469-0.75-0.42188-1.5-0.75-2.25-1.125-2.4375 9.9375-3.2344 19.641 1.7344 29.016 2.4844-1.5 4.7812-3.2344 7.4062-4.3594 12.609-5.2969 25.266-10.406 37.969-15.469 1.9688-0.79688 4.2656-1.0781 6.375-1.2188 2.5312-0.14062 4.4062 1.2188 5.25 3.6562 0.84375 2.4844 0.23438 4.7812-1.9688 6.3281-1.4531 1.0312-3.0938 1.9688-4.7344 2.5781-6.5625 2.4844-13.266 4.6406-19.781 7.3594-8.0625 3.375-15.938 7.0781-23.859 10.781-0.75 0.375-1.7344 1.9219-1.5 2.4375 2.2031 4.875 4.5938 9.7031 7.0312 14.625 2.2031-1.4531 3.9844-2.7188 5.8125-3.8906 11.484-7.1719 24.047-11.812 36.844-15.891 5.6719-1.8281 11.578-3.0469 17.438-4.0781 3.0938-0.5625 5.4375 1.4062 6.1406 3.9375 0.75 2.8125-0.42188 5.3438-3.375 6.7969-1.875 0.9375-3.8438 1.5938-5.8594 2.25-9.2812 3.0938-18.656 6-27.844 9.2344-8.2969 2.9062-16.219 6.6094-23.297 11.906-0.84375 0.65625-1.7812 2.1562-1.6406 3.0938 1.2188 6.8906 2.7188 13.734 4.125 20.672 0.23438-0.046875 0.5625-0.046875 0.79688-0.1875 10.5-5.8125 21.938-9.0938 33.422-12.047 5.2969-1.3594 10.781-2.2969 16.266-2.7656 4.1719-0.375 6.9844 2.3438 7.1719 5.7656 0.1875 3.3281-2.2031 5.5781-6.2812 6.4688-8.1094 1.6875-16.172 3.3281-24.188 5.3906-8.1094 2.0625-16.172 4.4531-23.297 9.0469-0.84375 0.5625-1.9219 1.5938-1.9688 2.4844-0.51562 6.0938-0.46875 12.281-0.46875 18.656zm-835.69 250.22c-2.1094 3.9375-4.125 7.4531-5.9062 11.156-4.6406 9.6562-8.625 19.594-9.3281 30.328-0.9375 14.156 1.6875 28.078 6.2812 41.203 5.6719 16.219 14.719 30.656 28.828 41.297 10.594 8.0156 18.047 18.047 20.531 31.5 1.125 5.9531 3.0938 11.766 5.1094 17.484 2.9062 8.2969 6.75 16.031 12.422 22.922 7.125 8.6719 13.594 17.812 20.203 26.906 1.7344 2.3438 3.2344 4.9688 4.3125 7.6875 3.1875 8.1562 6.4688 16.266 9 24.609 2.9062 9.6562 9.6094 15.328 18.516 18.234 14.578 4.7344 29.484 5.5312 44.438 1.4531 9.7031-2.625 19.172-2.1562 28.641 1.0312 3.9375 1.3125 7.9688 2.4844 12.047 3.375 9.4688 2.0156 19.031 3.7031 28.5 5.7656 3.6094 0.79688 6.9375 0.75 10.359-0.46875 5.8125-2.1562 11.672-4.0312 17.438-6.3281 10.219-4.0781 19.594-2.8594 28.172 3.9375 10.547 8.3438 22.266 7.6406 34.172 4.3125 8.6719-2.4375 17.203-5.5312 25.688-8.5312 3.75-1.3125 7.6875-2.6719 10.828-4.9219 12.422-9.0469 24.609-18.469 36.891-27.75 0.70312-0.51562 1.2656-1.1719 1.9219-1.7344 7.1719-6.7969 14.156-13.875 21.562-20.438 8.8125-7.8281 19.172-10.547 30.141-5.4375 11.953 5.5312 18.609 15.141 18.281 28.734-0.14063 6-0.79688 11.953-1.2188 17.906-0.23438 3.7969 0.375 4.5469 4.2656 4.6875 1.875 0.046875 3.8438 0.046875 5.6719-0.42188 5.5781-1.5469 11.109-3.3281 16.641-4.9688 8.25-2.4844 15.797-1.0312 22.594 4.3125 2.9062 2.2969 5.625 4.8281 8.5312 7.1719 7.3125 5.7656 19.922 3.9375 24.469-4.125 4.1719-7.4062 7.7812-15.234 11.062-23.156 4.875-11.766 4.6875-24.234 3.0938-36.562-0.79687-6.2344-3.6562-11.766-9.75-14.953-1.8281-0.9375-3.2812-2.5781-4.9219-3.8438-0.65625-0.46875-1.4062-1.125-2.1094-1.0781-3.6094 0.23438-7.1719 0.70312-10.453 1.0312-0.75 7.5469-1.3125 14.953-2.25 22.266-0.9375 7.3594-2.0625 14.719-6.2344 21.141-2.2031 3.375-5.2969 4.5-8.25 3.0469-2.9531-1.5-4.1719-4.6406-2.4844-8.3438 3.2344-7.125 4.7344-14.625 5.8125-22.266 0.75-5.1562 1.1719-10.312 1.7812-15.984-3.75 0-6.75 0.23438-9.75-0.09375-2.9531-0.28125-5.9062-1.0781-9.0469-1.6875-0.32812 1.5-0.5625 2.9062-0.9375 4.2656-1.3594 4.7344-2.5312 9.5625-4.3125 14.156-1.875 4.875-5.1094 6.4688-8.4844 5.0625s-4.0312-4.5938-2.3438-9.6562 3-10.219 4.6875-15.234c0.9375-2.8125 0.23437-4.1719-2.5781-5.25-5.1562-1.9688-10.078-4.4531-15.094-6.7031-0.5625-0.23438-1.1719-0.42188-1.9688-0.70312-1.0312 2.7188-1.8281 5.3906-3.0469 7.8281-1.2188 2.5312-2.625 5.0625-4.3594 7.2656-1.5469 2.0156-3.9844 2.2031-6.2344 1.0781-2.3906-1.2188-3.375-3.3281-2.8125-5.9531 0.375-1.6406 1.0312-3.2344 1.6875-4.8281 1.2188-3.0469 2.4844-6.0469 3.9375-9.4688-3.0938-0.14062-5.6719-0.14062-8.1562-0.42188-3.75-0.46875-6.0469 1.0312-7.7344 4.3594-3.2812 6.5156-6.7969 12.938-10.406 19.312-2.0625 3.6094-5.1562 4.6406-8.1094 3.1406-2.9062-1.4531-3.7969-4.5469-2.1562-8.4375 1.0312-2.4375 2.25-4.8281 3.5156-7.1719 2.3906-4.5 4.875-8.9531 7.4531-13.641-2.4375-0.79688-4.5938-1.5-6.7031-2.2031-4.8281-1.6406-6.6094-1.1719-9.0469 3.3281-2.625 4.8281-4.9219 9.8438-7.2188 14.859-1.7344 3.7031-3.0938 7.5938-5.0156 11.156-2.0156 3.75-5.0156 4.875-7.9688 3.5156-2.9531-1.3594-3.8438-4.3125-2.4844-8.3906 0.1875-0.5625 0.375-1.0781 0.5625-1.5938 3.8438-10.453 8.2969-20.625 14.953-29.672-3.3281-3.1875-6.5156-6.2344-9.9375-9.5156-1.5469 1.9688-3.0469 3.6562-4.3125 5.4844-6.2812 8.9062-11.109 18.609-15.656 28.453-1.5 3.3281-3.6562 6.4219-5.9062 9.3281-1.8281 2.3906-4.7812 2.6719-7.2188 1.2188-2.25-1.3125-3.2812-3.9375-2.3906-6.7031 0.46875-1.4531 1.2188-2.7656 1.8281-4.1719 7.0781-15.562 14.766-30.656 27-43.172-1.2188-2.1562-2.3906-4.3125-3.75-6.7031-0.84375 0.98438-1.4531 1.6875-2.0625 2.3906-13.031 16.547-23.203 34.781-31.547 54.047-1.1719 2.7188-2.3438 5.3906-3.75 7.9688-1.8281 3.375-4.875 4.5938-7.8281 3.2812-2.8125-1.2188-4.0781-4.2188-3.1406-7.7344 0.23437-0.79688 0.51562-1.6406 0.79687-2.4375 5.7656-16.969 14.766-32.297 24.562-47.203 0.51563-0.75 1.0312-1.5938 1.5-2.3438-2.4375 0.60938-4.3594 1.6875-6.4219 2.3438-7.2188 2.3438-12.281 7.0781-16.5 13.266-10.312 15.094-18.375 31.266-25.125 48.234-1.2188 3-2.3438 6.0469-3.8438 8.8594-1.3594 2.5781-3.9844 3.4688-6.5625 2.7188-2.6719-0.79688-4.3594-3.1875-3.9844-6.1406 0.28125-2.3438 0.84375-4.6875 1.5938-6.9375 5.8594-17.016 14.062-32.812 24.047-47.766 0.5625-0.84375 1.125-1.7344 1.9688-3.0938-4.7812 0.98438-9 2.25-13.312 2.5781-5.8594 0.375-10.031 3.2812-13.359 7.6406-9.3281 12.281-16.172 25.969-21.516 40.359-0.9375 2.4844-1.6875 5.0625-2.8125 7.4531-1.3594 2.9531-4.1719 4.125-7.0781 3.2344-2.6719-0.79688-4.4531-3.4219-4.0312-6.4688 0.42188-2.8125 0.98438-5.625 1.9219-8.2969 5.0625-14.766 12.891-28.125 21.984-40.781 0.46875-0.65625 0.89063-1.3125 1.4531-2.1562-5.7656-0.46875-11.297-0.65625-16.688-1.5469-3.5156-0.60938-6.0938 0.23438-8.3906 2.7188-0.65625 0.70312-1.4062 1.2656-2.0625 1.9688-10.781 11.906-20.25 24.703-27.656 39-1.3594 2.625-2.5781 5.2969-4.2188 7.7812-1.5938 2.4375-4.6406 3.1406-7.0781 2.0156-2.3438-1.0781-3.75-3.6562-3.0938-6.375 0.60937-2.6719 1.3125-5.3906 2.4844-7.8281 7.5-15.703 18.141-29.203 30.047-41.766 0.65625-0.70312 1.3125-1.4062 2.2969-2.4375-4.875-1.0312-9.2344-2.1094-13.641-2.8125-2.6719-0.42188-5.2969 0.09375-7.2656 2.3438-4.4062 5.1094-8.8594 10.172-13.219 15.281-2.0156 2.3906-3.7969 4.9688-5.9531 7.2656-2.7656 2.9062-6.1875 3.2344-8.625 1.1719-2.5312-2.1562-3-5.5312-0.46875-8.6719 5.7656-7.1719 11.766-14.156 17.719-21.234 0.51562-0.60938 1.0781-1.1719 1.6406-1.7344-4.0781-3.4219-7.5469-3.6094-11.625-0.5625-2.0625 1.5469-4.1719 3.0938-5.8125 5.0625-7.125 8.4375-14.391 16.734-20.953 25.594-5.0625 6.8438-9.1406 14.484-13.641 21.75-2.0625 3.2812-5.1094 4.4062-7.9688 3-2.8594-1.3594-3.9375-4.4062-2.6719-8.1094 0.75-2.1562 1.4531-4.4062 2.7188-6.2812 6.0938-9.1875 11.906-18.609 18.656-27.281 7.3594-9.4219 15.188-18.609 25.641-24.984 0.46875-0.28125 0.42188-1.5469 0.5625-2.3438 0.23438-2.2969-0.23437-4.9219 0.79688-6.7969 1.3594-2.4844 3.7969-4.4062 5.9062-6.4688 1.125-1.0781 2.4375-1.875 3.7031-2.8125-0.09375-0.23438-0.1875-0.51562-0.28125-0.79688-1.3125 0-2.7188-0.28125-3.9375 0.046875-5.5781 1.5469-9.9844 5.0625-14.156 8.8125-14.109 12.703-27.422 26.109-37.969 42.047-2.4844 3.75-5.4375 4.6406-8.4375 3-3.0938-1.6875-3.9844-4.9219-1.7344-8.9531 2.9531-5.2031 6.0938-10.359 9.8438-14.953 11.906-14.297 25.125-27.281 40.734-37.688-0.1875-0.23438-0.28125-0.5625-0.46875-0.70312-3.1406-1.9688-6.375-3.8438-9.4688-5.8594-3.75-2.4844-7.4531-2.3438-11.109 0.09375-2.8594 1.875-5.7656 3.75-8.3906 5.9062-15.469 12.938-30.703 26.156-42.328 42.938-2.2969 3.3281-5.7656 3.8906-8.4375 2.1094-2.7188-1.7812-3.5156-5.1094-1.4531-8.5781 2.3906-4.0781 4.9219-8.2031 7.9688-11.812 11.766-13.969 25.5-25.828 40.266-36.562 0.75-0.5625 1.5469-1.125 2.8594-2.1094-2.8125-0.14062-4.7812-0.23438-6.7969-0.375-3.8906-0.32812-7.7344-0.79688-11.625-0.9375-1.8281-0.09375-3.9375-0.14062-5.3906 0.70312-3.4688 1.9219-6.8906 4.125-9.8438 6.75-5.9062 5.2031-11.531 10.781-17.25 16.219-1.5938 1.5-3.0469 3.1406-4.7344 4.5938-2.7188 2.2969-5.7656 2.4375-8.0156 0.42188-2.2969-1.9688-2.8594-5.2031-0.65625-7.9688 3.7031-4.5469 7.5469-9.0938 11.859-13.031 5.9531-5.3906 12.422-10.266 18.797-15.469-1.2656-1.3125-2.6719-2.8125-4.0781-4.3594-2.7656-3.0469-4.6406-3.6094-8.2031-1.5-6.1406 3.6094-12.281 7.2656-18.188 11.297-7.2188 4.9219-14.156 10.312-21.328 15.281-2.4844 1.6875-5.2969 3-8.1094 4.0312-2.6719 0.98438-5.3438-0.32812-6.6094-2.625-1.3125-2.4375-0.84375-5.25 1.4062-7.2656 1.2656-1.125 2.7188-2.0625 4.125-3.0469 13.453-9.7969 26.906-19.641 41.766-27.281 1.3125-0.65625 2.625-1.3125 4.7344-2.3906-5.2969-3.7969-9.9375-7.1719-14.719-10.406-0.46875-0.32812-1.7812 0.14062-2.5312 0.60938-4.7344 2.8125-9.3281 5.9062-14.156 8.5781-2.9531 1.6406-6.1875 2.8594-9.4688 3.8438-2.5312 0.75-4.6875-0.46875-5.9531-2.8125-1.2656-2.25-0.84375-4.9688 1.1719-6.75 0.89062-0.79688 2.0156-1.4062 3.0938-2.0156 5.1562-2.9062 10.359-5.7656 16.031-8.9062-4.0781-2.3906-7.7344-4.2656-11.109-6.5625-4.4062-3.0469-8.6719-2.7188-13.078-0.23438-3.1406 1.7344-6.4688 3.2344-9.5156 5.2031-7.6406 4.8281-15.094 9.9375-22.688 14.812-1.7344 1.125-3.7031 2.0156-5.6719 2.625-2.2969 0.75-4.3125-0.23438-5.7188-2.1562s-1.5469-4.125-0.23438-6.1406c0.70313-1.0781 1.6875-2.1562 2.7656-2.8594 7.8281-5.25 15.703-10.359 23.578-15.562 0.79688-0.51562 1.6406-1.0312 2.25-1.3594-5.8594-1.4531-11.672-2.9062-17.484-4.2656-0.65625-0.14062-1.5 0-2.1094 0.28125-3.4688 1.6875-6.8906 3.5625-10.406 5.2031-2.9062 1.3125-5.5781 0.60938-7.125-1.6406-1.5938-2.3438-1.1719-5.1562 1.2656-7.4062 1.125-1.0781 2.3438-2.0625 3.6562-3.1406-10.969-6.4219-21.891-12.094-31.078-21.469zm637.87-172.18c5.9062 1.875 11.203 3.4688 16.359 5.2969 9.3281 3.2812 17.906 7.9688 25.125 14.859 2.5312 2.4375 2.8125 5.4844 1.0312 7.9688-1.7344 2.2969-4.7344 3.0469-7.6875 1.5-2.3438-1.2188-4.6406-2.6719-6.75-4.2656-9.0938-6.75-19.406-10.781-30.281-13.453-3.2344-0.79688-7.0781-1.5938-9.9844-0.5625-3.5156 1.2656-6.3281 4.4531-9.9375 7.2188 1.3125 0.32812 1.875 0.46875 2.3906 0.60938 12.797 3.4688 25.031 8.1562 35.062 17.109 3.0938 2.7656 5.3438 6.6094 7.3594 10.312 1.6406 3 0.46875 5.9531-2.0625 7.4531-2.7188 1.5938-5.5312 0.98438-7.7812-1.875-10.312-13.078-24.609-18.984-40.219-22.5-3.375-0.75-7.7812 1.5938-9.1875 4.4531 13.594 7.5 26.156 16.547 37.828 26.812 2.9531 2.625 3.7969 5.4375 2.1094 8.25-1.6406 2.7188-4.8281 3.7031-8.25 1.8281-3.0469-1.6875-5.7656-3.9844-8.5781-6.0469-8.7188-6.4219-17.391-12.891-26.156-19.312-0.89062-0.65625-2.0156-1.0781-3.1406-1.3125-0.60938-0.14062-1.5469 0.1875-1.9219 0.60938-1.0312 1.2188-1.7812 2.625-2.7656 4.0781 10.641 5.5312 19.641 12.797 28.266 20.578 6.2812 5.625 11.812 11.859 15.516 19.547 1.3594 2.8594 0.70312 5.7656-1.5469 7.4531-2.3906 1.7812-5.4375 1.5938-7.7344-0.84375-2.2031-2.3438-4.125-4.9688-6.1875-7.5-8.6719-10.641-19.031-19.406-30.375-27.047-2.2969-1.5469-4.9219-1.0312-6.1406 0.65625-3.5156 4.875-6.4219 10.172-9.6094 15.328 3.0469 1.2656 5.625 2.0625 7.9219 3.375 14.203 7.875 27.375 17.203 38.812 28.828 2.25 2.2969 4.125 4.9688 5.7656 7.7344 1.5938 2.625 0.89062 5.4844-1.2188 7.2188-2.2031 1.8281-5.1094 1.8281-7.5938-0.14062-1.125-0.89062-2.1562-1.875-3.0938-2.9531-9.2812-10.078-20.062-18.375-31.266-26.109-2.8125-1.9219-5.7656-3.7031-8.8125-5.25-3.375-1.7344-6.9844-0.14062-8.25 3.375-1.7812 4.9219-3.5625 9.8438-5.3438 14.766-0.75 2.1094-1.5469 4.2188-2.1562 5.8594 14.156 11.156 26.297 23.484 35.391 38.625 1.3594 2.25 2.3906 4.7812 3.1875 7.3125 0.98438 3.1875-0.5625 6.1875-3.3281 7.3125-2.8594 1.2188-5.8594 0.23438-7.6406-2.625-0.89062-1.4531-1.6875-3-2.5312-4.4531-6.8438-12.281-16.219-22.5-26.25-32.156-1.875-1.8281-3.6562-1.3125-5.1094 0.84375-3.4219 5.0156-6.8438 10.078-10.5 14.906-1.1719 1.5938-1.2656 2.4375-0.1875 4.125 4.3594 6.7031 8.625 13.453 12.609 20.344 2.8594 4.9688 2.3438 8.8125-0.89062 10.641-3.3281 1.875-6.6094 0.32812-9.5625-4.6875-2.8594-4.9219-5.625-9.9375-8.4844-14.859-0.98438-1.6875-2.1094-3.2344-3.2344-4.9219-4.7344 3.8906-9.1875 7.5469-13.641 11.203 2.2969 3.8438 4.7344 7.4062 6.6094 11.25 1.7344 3.5625 3.1406 7.3125 4.2656 11.109 0.75 2.7656-0.9375 5.2969-3.3281 6.2344-2.4844 0.9375-5.1562 0.14062-6.75-2.2969-0.89062-1.3125-1.4531-2.8594-2.2031-4.3125-2.4844-4.8281-4.9688-9.6094-7.4531-14.438-0.60938-1.2188-1.3125-1.4062-2.7188-1.0312-3.4688 1.0312-6.9844 1.8281-10.547 2.4375-3.4688 0.65625-7.0312 1.0312-10.312 1.4531 1.125 5.1094 2.4375 9.7969 3.0469 14.578 0.51562 4.2188-2.0156 7.0312-5.5781 7.2188-3.4219 0.14062-5.625-2.3438-6.2812-6.4219-0.60938-3.75-1.5938-7.4062-2.4844-11.109-0.28125-1.2656-0.89062-2.0156-2.4375-1.4531-1.5938 0.5625-3.2344 0.79688-4.7344 1.125 0 1.5938 0.046875 2.9531 0 4.2656s-0.046875 2.6719-0.28125 3.9844c-0.70312 3.5156-2.9531 5.3906-6.0938 5.1562-2.9531-0.23438-4.8281-2.3438-5.1094-5.8125-0.1875-2.2031-0.14062-4.4062-0.51562-6.5625-0.14062-0.75-1.0781-1.7344-1.8281-1.9219-4.5-1.2188-8.8125-0.32812-13.078 1.5469 0.046875 0.51562 0 0.98438 0.09375 1.4531 3 14.578 3.3281 29.297 2.1562 44.062-0.375 5.0625-1.4531 10.172-2.7188 15.094-0.70312 2.8594-3.5156 4.2188-6.2344 3.7969-2.8594-0.375-4.8281-2.5781-5.1094-5.6719-0.09375-0.84375 0.046875-1.7344 0.09375-2.5781 0.60938-6.0469 1.4062-12.094 1.7344-18.188 0.60938-11.391 0.84375-22.828-1.2656-34.172-0.32812-1.7812-1.125-2.4844-2.8594-2.9062-3.1406-0.75-6.1875-1.875-9.2344-2.8594-1.2188-0.375-2.3438-0.89062-3.6094-1.4062 0 2.6719 0.14062 4.8281-0.046875 6.9844-0.79688 12.047-1.5938 24.094-2.5781 36.141-0.28125 3.4688-0.9375 6.9844-1.8281 10.359-0.9375 3.4688-3.8906 5.1562-6.8906 4.5469-3.2344-0.70312-5.0156-3.2812-4.7812-7.0312 0.14062-1.7812 0.32812-3.6094 0.51562-5.3906 1.2656-13.359 2.8125-26.672 3.7031-40.078 0.65625-10.078-0.65625-10.875-10.875-9.2812-0.09375 0-0.14062 0.14062-0.046875 0.046875 0 3.9375 0.32812 7.7344-0.09375 11.484-0.5625 4.9688-1.2656 10.031-2.7656 14.766-1.4062 4.4062-5.5312 6.2344-8.6719 4.875-3.1875-1.3594-4.0312-4.3125-2.4375-9.1406 2.25-6.75 2.4375-13.641 1.9219-20.625-0.046875-0.75-0.75-1.9219-1.3594-2.0625-3-0.75-6.0938-1.1719-9.1875-1.7344-1.4062 9.2812-2.5781 18.234-4.2188 27.094-0.89062 4.9219-2.2031 9.8438-3.9844 14.484-1.5 3.8906-4.9688 5.0625-8.1094 3.7031-3.0469-1.3125-4.0312-4.2656-3.0469-8.25 1.4062-5.5312 2.8594-11.062 4.0312-16.641 1.2188-5.625 2.0625-11.344 3.1406-17.203-2.4844 0.65625-4.6406 1.125-6.6562 1.8281-1.0312 0.375-2.1562 1.125-2.6719 2.0156-4.6406 7.6406-9.0469 15.422-13.734 23.062-1.5938 2.5781-3.5156 4.9688-5.5781 7.2188-3.4219 3.6094-7.4531 4.2188-10.125 1.8281s-2.2969-5.7656 0.70312-9.9375c5.2031-7.2656 10.266-14.625 15.328-21.984 0.5625-0.79688 0.98438-1.7344 1.5938-2.8125-1.5469-0.32812-2.7656-0.46875-3.8906-0.89062-2.1562-0.75-3.6562-0.23438-5.1094 1.6406-1.9688 2.5312-4.2656 4.875-6.6094 7.125-6.6562 6.2344-13.359 12.422-20.203 18.469-2.5312 2.2031-5.7188 1.875-7.7812-0.14062-2.25-2.1562-2.5312-5.25-0.375-7.9688 1.6406-2.0625 3.6094-3.8906 5.5781-5.7188 5.625-5.1562 11.25-10.219 16.922-15.328 0.60938-0.5625 1.0781-1.1719 1.7812-1.9688-4.4062-1.2188-8.4375-1.2656-12.469-0.09375-0.42188 0.14062-0.84375 0.375-1.1719 0.70312-4.7344 4.2656-9.4219 8.5781-14.203 12.75-1.4062 1.2656-3 2.3438-4.6406 3.2812-2.3906 1.4062-4.7812 1.2656-6.7969-0.70312-1.875-1.8281-2.2031-4.6875-0.32812-7.0312 1.8281-2.2969 4.0781-4.2188 6.1875-6.2344 0.84375-0.79688 1.7344-1.5469 2.7656-2.4375-2.7188-1.2188-5.0625-2.0156-7.2188-3.2344-2.0156-1.125-3.4219-0.84375-5.3438 0.42188-8.4844 5.6719-17.016 11.156-25.688 16.453-2.4375 1.5-5.3438 2.5312-8.1562 3.2344-2.7188 0.65625-5.2969-0.9375-6.2344-3.375-0.98438-2.5312-0.60938-4.9688 1.5469-6.75 1.3594-1.125 3-1.9688 4.5469-2.8594 7.875-4.5938 15.797-9.1406 23.672-13.734 0.65625-0.375 1.2188-0.9375 1.9219-1.5-4.1719-3-4.1719-3-8.2969-0.70312-1.5 0.84375-2.9531 1.7344-4.5 2.4844-8.6719 4.125-17.297 8.3438-26.062 12.188-3.8906 1.6875-7.125 0.23438-8.4375-2.9062-1.2656-3.1406 0.14062-6.1406 4.0312-8.0156 3.5156-1.6875 7.125-3.1875 10.688-4.7812 4.4531-2.0156 8.8594-4.125 13.266-6.1875-0.046875-0.28125-0.09375-0.5625-0.09375-0.79688-2.3906-0.375-4.7812-0.9375-7.1719-1.1719-4.5469-0.42188-9.2344-1.4531-13.594-0.70312s-8.3438 3.5625-12.562 5.2969c-2.625 1.0781-5.3438 2.0156-8.1562 2.4844-3.6562 0.65625-6.4219-1.4531-6.9375-4.7344-0.42188-2.7656 1.0312-5.0625 4.2188-6.3281 3.4219-1.3594 6.8438-2.625 10.219-3.8906-3.2812-3.8906-6.3281-7.6406-9.5625-11.25-0.42188-0.46875-1.6875-0.60938-2.3906-0.375-3.1875 0.9375-6.2344 2.3438-9.4688 3.1406-3.8438 0.9375-7.7812 1.6875-11.766 2.0156-2.7656 0.23438-4.7344-1.7344-5.25-4.2656-0.51562-2.625 0.75-5.0156 3.4688-6.1406 1.2188-0.51562 2.5312-0.79688 3.7969-1.1719l14.062-3.9375c0.046875-0.28125 0.09375-0.5625 0.14062-0.79688-2.8594-1.9688-5.7188-4.0312-8.625-5.9062-0.51562-0.32812-1.4062-0.28125-2.1094-0.1875-1.6875 0.23438-3.3281 0.79688-5.0156 0.98438-6.3281 0.75-12.656 1.5-18.984 1.9688-3.0469 0.23438-5.2031-1.8281-5.6719-4.5938-0.42188-2.7656 0.9375-5.2031 3.8438-6.2344 1.5938-0.5625 3.2812-0.89062 4.9688-1.125 2.5312-0.375 5.0625-0.5625 8.1562-0.89062-10.219-14.203-24.844-19.125-39.75-22.688-2.2031 4.125-4.2188 7.5469-5.9531 11.109-1.3125 2.7188-2.9062 5.4844-3.3281 8.3438-1.0312 7.2656 4.3125 13.547 12.562 14.906 11.062 1.8281 18.797 7.3594 22.969 18.047 1.0781 2.8125 3.5156 5.5312 6.0469 7.2656 5.2031 3.5156 9.4688 7.6875 12.188 13.266 3.6094 7.4531 6.8906 15.047 10.641 22.406 3 5.9062 6.375 11.672 9.8438 17.344 1.875 3.0469 4.875 4.7344 8.4844 5.25 6.9844 0.9375 13.594 0.84375 20.156-2.8125 11.531-6.375 23.203-3.6562 30.188 6.6094 4.125 6.0938 9.9844 8.625 16.875 9.9844 6.7031 1.3125 13.312 2.9531 19.828 4.9219s12.891 4.5938 19.312 6.9375c8.8594 3.2344 16.922 7.4062 23.484 14.625 4.3594 4.8281 9.2812 9.4219 14.719 12.938 7.7812 5.0156 15.094 10.219 20.531 17.812 1.3125 1.8281 3.0938 2.7188 5.3906 2.5312 4.9688-0.32812 9.5156 1.2188 13.266 4.3594 3.0469 2.5312 5.9062 2.5312 9.4688 1.4062 13.5-4.2188 26.016-10.688 38.625-16.828 6.1406-3 12.328-5.4375 19.266-5.5781 16.359-0.23438 32.719-0.42188 49.078-1.0781 13.219-0.51562 25.969-3.1406 37.734-9.75 6.7969-3.7969 14.062-6.8438 21.938-7.7812 6.8906-0.84375 13.547-2.4844 20.156-4.7812 8.7656-3.0469 17.812-5.9062 27.281-5.3906 12.469 0.65625 24.281-1.6875 36-6 13.641-5.0156 23.859-13.266 29.719-26.859 2.8125-6.5156 6.7969-12.516 10.172-18.75 2.3906-4.4062 4.9219-8.8125 6.8906-13.406 7.5469-17.719 9.375-36.562 10.781-55.453 0.60938-8.4844 1.8281-16.922 6.7031-23.906 6.5625-9.4219 13.781-18.375 21.188-27.188 4.4062-5.25 9.0938-10.219 11.812-16.641 3.4688-8.1562 2.4375-15.328-3.9375-21.703-4.3594-4.3594-8.4375-9-12.844-13.359-1.9219-1.9219-4.125-3.75-6.5625-4.9688-7.3594-3.8438-15-7.125-23.344-7.875-7.3594-0.70312-14.859-0.51562-22.219-1.2188-9.2812-0.89062-18.422-0.375-27.562 1.4531-1.2188 0.23438-2.625 0.89062-3.3281 1.8281-1.7812 2.0156-3.375 4.7812-5.2031 7.6875zm-275.06-292.92c-0.79688-5.0156-2.7656-8.7656-5.7656-11.672-3.75-3.7031-7.7812-7.3125-12.141-10.312-4.9219-3.4219-7.875-7.8281-9.5156-13.406-0.75-2.5312-1.4062-5.25-2.7656-7.4531-4.1719-6.7969-8.1094-13.734-14.203-19.172-7.2656-6.4688-14.812-11.625-25.266-9.5156-0.75 0.14062-1.5 0.09375-2.2969 0.14062-5.0156 0.1875-9.75 1.3125-14.156 3.8438-3.4688 1.9688-7.0781 3.7031-10.641 5.4844-5.25 2.5781-10.922 3.75-16.641 2.5781-10.172-2.1094-19.828-0.65625-29.484 2.625-4.5469 1.5469-8.625 3.7969-11.531 7.5469-5.4844 7.0312-13.031 10.922-21.141 13.359-14.531 4.4062-29.109 2.8594-43.641-0.70312-6.7969-1.6875-13.734-2.9062-20.625-4.2656-0.79688-0.1875-1.7344-0.09375-2.5312 0.14062-5.7188 1.4062-11.484 2.7656-17.156 4.3594-3.8438 1.125-6 3.7031-6.7969 7.875-2.0156 10.922-4.1719 21.844-6.7031 32.625-1.8281 7.7344-4.875 15.234-6.5625 23.016-1.4062 6.6094-4.0781 12.141-9 16.734-2.7656 2.5781-5.5312 5.3438-7.5469 8.4844-8.25 12.75-15 26.016-14.344 41.906 0.32812 7.4062-3.6094 12.516-8.9062 17.578-7.5469 7.1719-13.922 15.516-20.766 23.344-0.1875 0.23438-0.28125 0.51562-0.42188 0.75-4.8281 7.7344-5.4375 16.453-5.8594 25.219-0.46875 10.078 2.0625 18.844 9.5156 26.203 6.0938 6 10.078 13.547 13.641 21.281 4.0312 8.7656 7.875 17.812 6.7969 27.656-0.79688 7.3125-3.0938 14.438-4.7812 21.609-0.70312 2.9531-2.0156 5.7656-2.3906 8.7656-1.6406 12.797 1.6406 24.75 6.9375 36.188 2.3906 5.1094 6.2344 9.1875 11.25 11.812 5.8125 3.0469 11.625 6.2344 17.766 8.3438 20.672 7.0781 36.844 20.203 50.766 36.562 0.79688 0.9375 2.25 1.7812 3.4688 1.9219 8.5781 0.98438 16.781 3.2812 24.562 6.9844 6.9375 3.2812 13.922 6.4219 19.828 12-0.84375-10.734-2.4375-21.234-3.4688-31.781-0.51562-4.9688-3.4219-7.3594-7.4531-8.9062-12.984-5.0625-26.484-8.3438-40.312-9.9844-4.4062-0.5625-8.9062-0.23438-13.359-0.60938-2.6719-0.23438-4.2656-2.0625-4.6875-4.6406-0.42188-2.4844 0.51562-4.5469 2.7656-5.7656 1.3125-0.70312 2.7656-1.4062 4.2656-1.5469 3.6094-0.28125 7.2188-0.5625 10.781-0.23438 13.453 1.2656 26.297 5.1094 38.953 9.5156 0.9375 0.32812 1.8281 0.65625 2.8125 0.98438 0.09375-0.5625 0.1875-0.75 0.14062-0.9375-0.14062-0.46875-0.32812-0.89062-0.46875-1.3594-3.0938-10.641-9.7031-17.953-20.438-21.234-6.9844-2.1562-13.969-4.3594-21.047-6.1875-5.3906-1.4062-11.016-2.1562-16.453-3.4219-3.1406-0.75-4.6875-3.1875-4.5-6.0938 0.1875-2.8594 2.1562-5.0156 5.4375-5.25 2.5312-0.1875 5.1562-0.14062 7.6406 0.28125 12.047 2.0625 23.672 5.5781 34.922 10.359 0.5625 0.23438 1.1719 0.28125 1.9688 0.51562-0.51562-5.2969-1.0781-10.312-1.4062-15.328-0.28125-4.7344-2.7188-7.5938-6.9375-9.4688-16.875-7.5-34.5-12.375-52.5-16.031-3.8906-0.79688-7.9219-1.125-11.859-1.8281-4.6875-0.89062-6.8906-5.1562-4.7812-8.9062 1.2656-2.25 3.375-3.2344 5.7656-3 5.7656 0.51562 11.578 1.0312 17.25 2.1094 6.8906 1.3125 13.688 3.2812 20.531 4.9688-11.156-5.1562-22.5-9.75-34.406-12.797-2.0156-0.51562-4.0781-1.0781-6-1.8281-2.8594-1.1719-4.2188-3.9375-3.6094-6.7031 0.60938-2.8594 2.8594-4.6406 6-4.6406 1.2188 0 2.4844 0.14062 3.7031 0.375 12.422 2.3438 24 7.1719 35.438 12.375 4.9688 2.25 9.7969 4.8281 15.562 7.6406-3.9375-12.469 0.89062-23.062 5.1094-34.266-4.6406-0.5625-8.6719-1.4062-12.703-1.4062-6.0469 0-12.094 0.65625-18.188 1.0312-3.8438 0.23438-6.5625-1.4531-7.2188-4.5469-0.70312-3.2344 0.98438-6.0469 4.5938-7.125 2.4375-0.70312 5.0156-1.2656 7.5469-1.4062 3.9375-0.23438 7.9688-0.046875 11.906-0.046875-0.60938-0.70312-1.2188-0.9375-1.8281-1.1719-8.1562-2.7188-16.5-4.4531-25.078-5.1094-6.0469-0.42188-9.1875-2.7656-9.0469-6.6562 0.14062-4.0312 3.5625-6.4219 9.75-5.8125 5.9531 0.5625 11.812 1.8281 17.672 3.0469 3.5625 0.75 6.9844 1.9688 10.172 2.9062-0.23438-4.7812-0.60938-9.2812-0.60938-13.828 0-2.1094-0.42188-3.2344-2.4375-4.125-11.203-4.9219-22.594-9-34.828-10.312-5.4375-0.60938-7.9219-3.1406-7.4531-7.0781 0.42188-3.6562 3.6094-5.7656 8.7188-5.25 4.2188 0.42188 8.5781 1.0312 12.562 2.3438 8.7656 2.8125 17.297 6.1875 25.5 9.1406 4.4062-7.5938 8.9062-15.469 13.641-23.625-2.0625-0.98438-4.7344-2.3906-7.5469-3.5156-3.1875-1.2656-6.4688-2.25-9.6562-3.5156-3-1.2188-4.3125-3.75-3.6562-6.6094 0.5625-2.625 2.8594-4.4062 6-4.1719 2.3438 0.1875 4.8281 0.46875 6.9375 1.4062 5.7656 2.6719 11.391 5.6719 16.922 8.7188 1.3594 0.75 2.2031 0.89062 3.5625 0.046875 4.6875-3.0469 9.4688-6 14.25-8.9531 0.84375-0.51562 1.6406-1.125 3.0938-2.0625-4.6875-3.4219-8.6719-6.8438-13.172-9.4688-11.25-6.5625-22.641-12.891-35.766-15.094-3.0938-0.51562-4.7812-2.7656-4.8281-5.5312-0.046875-2.8125 1.4531-5.2031 4.6406-5.625 3.2344-0.42188 6.7969-0.70312 9.7969 0.28125 17.719 5.8125 34.031 14.25 47.297 27.703 3.3281 3.375 4.4062 3.6094 9.4219 1.4531-1.7344-2.25-3.2344-4.5469-5.0625-6.5156-12.469-13.172-25.922-25.172-41.156-35.109-2.3906-1.5469-4.7812-3.1406-6.9375-4.9688-2.1094-1.7812-2.3906-4.7344-1.125-7.0781 1.2656-2.2969 3.8906-3.4688 6.5625-2.7656 1.1719 0.28125 2.3906 0.75 3.4219 1.3594 20.531 11.859 37.734 27.516 52.219 46.219 0.46875 0.65625 0.98438 1.2656 1.5938 2.0156 1.8281-2.5312 2.7656-4.875 1.6875-7.6875-0.89062-2.3906-1.6406-4.875-2.6719-7.2188-5.2969-11.953-13.078-22.312-21.375-32.25-4.2656-5.0625-9.375-9.4219-14.016-14.156-2.3906-2.4375-2.6719-5.4375-0.98438-7.7812 1.7812-2.5312 4.7344-3.2812 7.875-1.5938 2.3906 1.2656 4.7344 2.8594 6.7969 4.6875 11.203 10.031 19.453 22.359 27.047 35.156 0.46875 0.84375 0.98438 1.6406 1.8281 3.0469 0.46875-6 3.3281-9.75 7.4062-12.797 3.7969-2.8594 7.5-5.8125 11.344-8.625 1.4531-1.0781 1.7812-2.0625 0.84375-3.5625-4.2656-6.9375-8.4375-13.969-12.75-20.859-1.125-1.7812-2.7188-3.1875-3.8438-4.9219-1.5469-2.2969-1.3594-4.7344 0.46875-6.8438 1.6875-2.0156 4.6406-2.5781 6.9844-1.0312 2.1094 1.4062 4.3594 2.9531 5.8125 4.9219 3.2344 4.4531 6.2344 9.0938 9 13.828 2.1094 3.5625 3.7031 7.4062 5.4375 10.922 4.5469-1.1719 8.9531-2.25 13.5-3.4219-0.32812-1.1719-0.5625-2.3906-0.98438-3.5156-2.4844-6.6094-4.8281-13.219-7.5469-19.734-3.2344-7.8281-6.375-15.703-12.844-21.656-2.1562-1.9688-2.0156-5.1562-0.32812-7.3125 1.7344-2.25 4.6875-2.8594 7.4531-1.5 4.6406 2.25 7.875 5.9531 10.219 10.406 7.1719 13.5 12.188 27.844 15.75 42.703 0.46875 1.875 1.3125 2.625 2.9062 3.3281 3.7969 1.6875 7.5 3.5625 11.25 5.3906 1.5469 0.75 3.1406 1.5 5.25 2.5312-0.28125-3.0469-0.1875-5.3438-0.75-7.5469-3.375-13.266-6.8906-26.484-10.359-39.703-0.75-2.9531-1.6875-5.8594-2.1094-8.8594-0.375-2.7188 1.0781-4.875 3.7031-5.7656 2.5781-0.89062 4.9219-0.23438 6.5625 2.1094 0.75 1.0781 1.5 2.25 1.875 3.5156 3.0938 10.359 6.2812 20.719 9.0469 31.172 1.5469 5.8125 2.2969 11.812 3.4688 18.141 0.89062-1.1719 1.5938-2.0625 2.2031-3 3.1406-4.875 6.0469-9.9375 9.4688-14.578 1.9219-2.5781 2.7656-5.1094 2.5781-8.1562-0.09375-1.4062-0.09375-2.8594-0.1875-4.2656-0.51562-6.6562-1.0781-13.266-1.5938-19.922-0.32812-3.9375 1.0781-6.375 4.125-7.125 2.8594-0.75 5.4375 0.5625 6.8906 4.0781 0.98438 2.4375 1.4531 5.1094 1.7344 7.7344 0.42188 4.5938 0.51562 9.2344 0.75 14.016 0.60938-0.09375 1.0781-0.09375 1.5-0.23438 7.8281-2.3438 15.609-4.7812 23.438-7.0781 6.4219-2.1094 13.031-4.3125 20.344-0.98438zm-255.42 387.05c-4.2656 0-8.25-0.1875-12.234 0.046875-6.8438 0.32812-13.641 1.0781-20.484 1.2656-3.6094 0.14062-6-2.25-6.2812-5.3906-0.28125-3.0469 1.9219-5.5781 5.4375-6.2812 0.65625-0.14062 1.3125-0.1875 1.9688-0.23438 11.859-0.98438 23.719-2.2031 35.578-0.51562 2.5781 0.375 2.8594-1.875 3.4688-3.375 0.60938-1.3594 0.75-3.0469-1.5-3.5625-3-0.70312-6-2.25-8.9531-2.1094-12.516 0.5625-25.078 1.125-37.5 2.6719-9.8438 1.2656-19.547 3.9844-29.297 5.9531-3.5625 0.75-6.2812-0.89062-7.2188-3.9375-0.89062-2.9062 0.42188-5.7188 3.7031-7.125 2.625-1.125 5.3438-2.0625 8.0625-2.8125 19.125-5.2969 38.672-7.2656 58.453-6.8438 1.0312 0.046875 2.0625 0 3.7969 0-6.3281-5.9062-12.562-9.5625-20.766-9.8438-17.672-0.65625-34.594 2.6719-51.281 8.1094-3.4219 1.125-6.8438 2.25-10.359 3.0469-2.8594 0.65625-5.3906-1.0312-6.375-3.6562s-0.09375-5.3906 2.3906-6.9375c1.3594-0.84375 2.8125-1.5938 4.3125-2.2031 11.25-4.5469 22.875-7.6406 34.922-9.1406 2.3906-0.28125 4.8281-0.65625 7.5938-1.0312-5.4844-2.9531-10.5-5.8125-15.656-8.4375-1.7344-0.89062-3.7031-1.7344-5.5781-1.7812-7.875-0.375-15.75-0.42188-23.672-0.65625-1.875-0.046875-3.8438-0.09375-5.6719-0.46875-2.7188-0.60938-4.2188-2.5312-4.3125-5.2969-0.14062-2.7188 1.5469-4.9688 4.3125-5.6719 1.3594-0.32812 2.8125-0.51562 4.2188-0.5625 5.4844-0.046875 10.969-0.046875 16.594-0.046875-1.5-4.9219-3.5156-8.8594-9.1406-9.75-6.8438-1.0781-13.594-2.6719-20.391-3.9844-3.1875-0.60938-6.4219-0.84375-9.5625-1.6406-2.9062-0.75-4.5-3.2812-4.2188-6 0.23438-2.8125 2.1562-4.875 5.2031-5.2031 1.875-0.23438 3.8438-0.23438 5.6719 0.09375 7.4531 1.3594 14.906 2.9062 22.359 4.3594 0.79688 0.14062 1.5469 0.28125 2.3438 0.46875-0.5625-5.3906-1.0312-10.453-1.5938-15.562-0.046875-0.5625-0.84375-1.2188-1.4531-1.4531-5.4375-2.5312-10.875-5.0625-16.359-7.4531-4.6875-2.0625-9.5156-3.8438-14.203-5.9531-2.2969-1.0312-3.375-3.0469-3.1875-5.5781 0.14062-2.4375 1.4531-4.3125 3.75-4.875 1.6406-0.42188 3.7031-0.42188 5.2969 0.14062 4.2188 1.4531 8.3438 3.1875 12.422 4.9688 5.1094 2.2969 10.078 4.7812 15.281 7.2656 1.125-3.1875 1.9688-6.1875 3.1875-9.0938 0.98438-2.3438 0.1875-3.4688-1.9688-4.3125-5.0625-1.9688-10.078-4.0312-15.047-6.1875-3.5625-1.5469-7.125-3.1875-10.547-5.0156-3.1875-1.7344-4.2656-4.6406-3.0938-7.3594 1.1719-2.7656 3.8906-3.9375 7.4531-3.0469 1.8281 0.46875 3.6562 1.0781 5.3906 1.8281 4.875 2.1094 9.7031 4.3594 14.578 6.5625 2.0625 0.89062 4.125 1.7344 6.2344 2.6719 1.0781-7.3125-1.125-12.375-7.1719-15.703-6.8438-3.75-13.828-7.1719-20.766-10.734-1.5938-0.84375-3.2344-1.5938-4.7344-2.625-2.5312-1.7344-3.2812-4.4531-2.2031-6.9844s3.6094-3.9375 6.6094-3.1875c2.3906 0.5625 4.7344 1.4531 6.9844 2.4844 3.5156 1.5938 6.8906 3.4219 10.359 5.1562 0.1875-0.1875 0.375-0.32812 0.5625-0.51562-3.0938-3.75-6.0938-7.5938-9.2812-11.297-4.9219-5.6719-8.625-12-9.3281-19.5-0.60938-6.3281-0.51562-12.703-0.375-19.078 0.09375-4.3125 0.375-4.3125-3.7031-6.0938-2.625-1.125-3.9375-3.5156-3.4688-6.1875 0.42188-2.5312 2.3906-4.3125 5.1562-4.5 1.2188-0.09375 2.4375 0.32812 3.6562 0.28125 0.65625-0.046875 1.6406-0.42188 1.9219-0.9375 2.5312-4.5469 4.9688-9.1406 7.5-13.828-1.7344-2.1094-3.9375-4.3594-5.625-6.9375-1.9688-3.0469-1.2188-6.2812 1.3594-8.0625s5.625-1.0312 8.0156 1.7812c1.3125 1.5938 2.8125 3.0938 4.2188 4.6406 3.6562-4.0781 7.0781-7.9219 11.344-12.656-3.2344-2.8594-6.5625-5.8594-9.9375-8.7656-2.4375-2.0625-3.1406-4.7812-1.7812-7.3594 1.3125-2.4844 4.3125-3.6094 7.125-2.3906 1.6875 0.75 3.2812 1.9219 4.6875 3.1406 1.5938 1.4062 2.9062 3.1406 4.3594 4.7344 0.23438-0.1875 0.46875-0.32812 0.75-0.46875 0.1875-2.7188-0.09375-5.5781 0.65625-8.1094 1.6406-5.625-1.7344-8.9062-5.0156-12.375-0.32812-0.32812-0.75-0.60938-1.125-0.89062-2.4375-2.2031-2.9062-5.25-1.1719-7.6406 1.7344-2.4375 4.7812-3.1406 7.6406-1.4531 1.8281 1.0781 3.4219 2.5781 5.0156 3.7969 2.8594-5.2031 5.3906-10.641 8.6719-15.656 3.2344-4.9688 7.2188-9.4688 11.062-14.391-3.4688-3.0938-6.9844-6.7969-11.062-9.75-6.1406-4.4062-13.078-6.7031-20.719-5.1562-10.875 2.2031-17.953 9-22.219 18.984-3.1875 7.5469-6.375 15.047-9.375 22.641-3.9375 10.031-9.2812 18.844-18.234 25.312-2.2969 1.6875-3.8438 4.5938-5.25 7.2188-2.7656 5.1562-1.4062 10.641-0.32812 15.891 1.1719 5.6719 0.79688 11.062-0.84375 16.594-2.5781 8.7656-6.3281 16.922-10.922 24.703-6.2812 10.641-12.141 21.609-22.969 28.688-3.0938 2.0156-4.0312 5.3906-4.3594 8.9531-0.42188 4.2656 1.0781 8.0625 3.0469 11.672 2.0625 3.75 4.3125 7.4062 6.2812 11.203 3.5625 6.9844 4.2656 14.203 2.1094 21.844-1.4531 5.25-2.1094 10.781-2.8594 16.219-0.9375 6.8906-1.3125 13.828-4.4062 20.25-4.3125 8.9531-4.125 17.953-0.46875 27.047 3.0469 7.5938 6.375 15.094 9.1875 22.734 2.8594 7.8281 2.5781 15.281-3.9375 21.609-3.0938 3-3.4688 6.6562-1.3594 10.406 0.9375 1.6406 1.9219 3.2812 3.0469 4.8281 6.8438 9.1406 13.781 18.188 20.578 27.328 3.5156 4.7344 6.0469 9.8438 6.4219 15.891 0.23438 3.6094 0.9375 7.1719 1.2188 10.781 1.0781 12.469 6.7031 22.266 16.266 30.281 4.6875 3.9375 8.8594 8.625 12.75 13.406 3.5625 4.3125 7.3594 8.25 12.094 11.156 5.6719 3.5156 11.297 7.0312 17.062 10.359 11.156 6.4688 23.016 10.172 36.141 9.75 6.75-0.23438 13.266 1.5 19.266 4.6406 6.2344 3.2812 12.375 6.7031 18.469 10.219 14.297 8.2969 27.797 17.578 37.453 31.5 5.3906 7.8281 13.172 11.016 22.688 10.688 8.0625-0.28125 16.078 1.0312 23.297 4.6406 7.5469 3.75 14.719 8.3438 22.078 12.422 4.4062 2.4375 8.8594 4.7812 13.406 6.9375 4.0781 1.9219 8.3906 2.1094 12.844 0.98438 14.625-3.7031 29.297-7.2656 43.969-10.875 1.7344-0.42188 3.5156-0.79688 5.2969-1.125 14.344-2.25 28.453 0.1875 42.516 2.625 5.3438 0.9375 10.547 2.6719 15.844 4.0781-1.0312-1.2188-2.1562-2.2031-3.4688-2.9062-8.5781-4.5938-15.891-10.828-22.312-18.047-4.9219-5.5781-10.969-9.0469-17.766-11.484-3.2344-1.1719-6.5156-2.1094-9.7969-2.9062-0.70312-0.1875-1.9219 0.375-2.4375 1.0312-3 3.5625-5.7188 7.3594-8.8125 10.828-1.5469 1.7344-3.6094 3.1406-5.6719 4.2656-2.7188 1.4531-5.5312 0.65625-7.125-1.5469-1.5-2.1094-1.3125-4.875 0.65625-7.0781 1.3125-1.5 2.9062-2.7656 4.2188-4.2656 2.3906-2.625 4.6406-5.3438 7.4062-8.5781-4.6875-1.1719-8.5312-2.2969-12.422-2.9062-1.3125-0.23438-3.1406 0.5625-4.1719 1.4531-3.0938 2.7188-5.6719 5.9062-8.8125 8.5312-2.5781 2.1562-5.5781 3.9375-8.5781 5.3438-2.1562 1.0312-4.3594-0.09375-5.7188-2.0625-1.4062-2.1094-1.2656-4.3594 0.28125-6.375 0.70312-0.89062 1.6406-1.5938 2.4375-2.3906 2.9531-2.7656 5.9062-5.4844 8.7656-8.1562-3.8906-2.7656-7.5-5.2969-11.953-8.3906-2.2031 2.5312-4.3594 5.4844-7.0781 7.875-2.5312 2.2031-5.4844 4.0781-8.5312 5.5312-2.625 1.2188-5.3438-0.09375-6.6562-2.3438-1.2656-2.2031-0.79688-4.9688 1.3594-6.9375 1.4531-1.3594 3.0938-2.5312 4.5938-3.8438 2.8594-2.5312 5.6719-5.1562 8.9531-8.0625-4.3594-0.46875-7.4531 0.75-10.5 2.4375-4.4062 2.3906-9.0469 4.125-14.156 3.8438-2.3438-0.14062-4.0781 0.65625-6 1.9219-4.5 3-9.0469 5.9531-13.875 8.3438-2.9062 1.4531-5.8594-0.09375-7.0312-2.5781s-0.375-5.1094 2.2031-6.9844c1.6406-1.2188 3.375-2.2969 4.9219-3.375-3.375-3.0469-6.5625-5.9531-9.8906-8.9531-0.32812 0.14062-0.79688 0.375-1.3594 0.60938-4.2188 1.7812-8.3438 3.7031-12.609 5.25-3.0469 1.125-5.625 0.046875-6.9375-2.3438-1.3125-2.4844-0.70312-5.2969 2.0625-7.2188 1.9219-1.3594 4.125-2.25 6.2812-3.2812 2.25-1.0781 4.5938-2.0625 6.9844-3.0938-2.0156-3.9844-3.75-7.5469-5.625-11.203-6.7969 2.0625-13.5 4.2188-20.25 6.0469-3.0938 0.84375-6.3281 1.2656-9.5156 1.4062-2.5312 0.14062-4.2188-1.5469-4.875-4.0312-0.65625-2.5312 0.14062-4.5938 2.25-5.9531 1.1719-0.75 2.5312-1.2656 3.8906-1.6875 5.4844-1.5 11.062-2.9062 16.547-4.3594 2.3438-0.65625 4.6406-1.3594 7.4531-2.1562-2.2969-4.2656-4.3125-8.1562-6.5156-11.859-0.375-0.65625-1.875-1.125-2.7188-0.9375-6.8906 1.4531-13.688 3.3281-20.578 4.5-5.5781 0.9375-11.297 1.2656-16.969 1.4062-2.9531 0.046875-4.875-2.4844-5.0156-5.25-0.14062-2.9531 1.5938-5.3438 4.5469-6.0469 1.5938-0.32812 3.1875-0.42188 4.7812-0.65625 7.7812-1.0312 15.562-2.0625 23.531-3.1406-2.25-4.125-4.125-7.6875-5.9062-10.969-2.3906 0.28125-4.6406 0.60938-6.8906 0.75-8.625 0.65625-17.25 1.0781-25.875 1.8281-6.7969 0.60938-13.594 1.5469-20.391 2.25-1.125 0.14062-2.2969-0.046875-3.4219-0.1875-3.7031-0.5625-5.6719-2.5312-5.7188-5.5781-0.046875-3.0938 1.7812-5.3438 5.4375-5.8125 10.734-1.3594 21.516-2.4844 32.297-3.7031 0.84375-0.09375 1.6875-0.14062 2.25-0.14062-2.5312-2.6719-4.7344-5.3906-7.4062-7.5938-1.5469-1.2656-3.8438-2.3438-5.7656-2.2969-4.3594 0.1875-8.625 1.2656-12.984 1.7344-5.0156 0.5625-10.031 1.125-15.047 1.2188-3.4219 0.09375-5.7656-2.3438-6-5.3438-0.23438-2.8125 1.7344-5.3906 4.9219-6.0469 2.3906-0.51562 4.875-0.70312 7.3594-1.0312 7.2656-0.84375 14.484-1.6875 21.797-2.5312 0.32812-2.7656 0.60938-5.2969 0.89062-8.1094zm494.26-183.98c0.42188 2.2969 0.9375 4.2188 1.125 6.1875 0.1875 1.5 0.79688 1.7812 2.2031 1.875 7.7812 0.42188 15.609 0.65625 23.344 1.5938 5.0156 0.60938 10.078 1.9219 14.766 3.75 3.5156 1.4062 4.3125 4.9688 2.9062 7.875-1.3594 2.8125-4.1719 3.8906-7.8281 2.8125-10.312-3.0469-20.906-3.7031-31.547-4.5938-2.1094-0.1875-2.9062 0.60938-2.8594 2.7188 0.046875 1.7812-0.1875 3.6094-0.46875 5.3906-0.28125 1.6875 0.32812 2.4844 1.875 3.2812 5.4375 2.7656 10.781 5.5781 16.078 8.6719 2.0156 1.1719 3.7969 2.8594 5.2969 4.6406 1.7812 2.1094 1.6406 4.6406-0.09375 6.8438-1.7344 2.1562-4.125 2.7656-6.6562 1.6875-1.5469-0.65625-2.9531-1.6875-4.4062-2.5781-4.8281-2.9062-9.7031-5.8594-15.047-9.0469-3.75 11.719-7.3125 22.828-10.688 33.984-0.23438 0.75 0.5625 2.1094 1.2188 2.8125 2.2031 2.3906 4.6406 4.5 6.7969 6.9375 1.7344 1.9688 1.7812 4.4062 0.32812 6.6094-1.4531 2.25-3.75 3.0938-6.2344 2.25-1.5469-0.51562-3.0469-1.5938-4.2656-2.7188-1.6406-1.4062-3-3.1406-4.5-4.7344-11.531 8.0625-24.891 8.4375-37.922 10.781 2.6719 3.8438 5.3438 7.1719 7.4062 10.875 1.4062 2.5781 2.3438 5.625 2.7656 8.5312 0.32812 2.6719-1.4531 4.6875-4.2188 5.3438-2.7188 0.65625-4.875-0.32812-6.3281-2.7188-0.375-0.65625-0.60938-1.4062-0.98438-2.0625-2.3906-3.9844-4.7812-7.9688-7.2656-11.906-1.0312-1.6406-2.2031-1.8281-4.0781-0.89062-3.7969 1.9219-7.8281 3.4219-11.672 5.25-6.1875 2.9062-12.281 5.8594-18.609 8.9062 0.60938 1.0312 1.125 1.7812 1.5938 2.625 4.2188 6.7969 8.4844 13.547 12.562 20.391 1.3125 2.25 2.25 4.8281 3 7.3594 0.84375 3.0469-0.60938 5.7656-3.1875 6.8438s-5.2031 0.28125-6.9375-2.2969c-1.3125-1.9688-2.4375-4.0781-3.6562-6.1406-4.3125-7.3594-8.6719-14.766-12.984-22.172-0.46875-0.84375-1.1719-1.6406-1.7812-2.4375-0.32812 0.375-0.51562 0.46875-0.60938 0.65625-4.125 8.5312-3.9375 8.4375-0.1875 17.016 3.5625 8.1094 6.8438 16.312 9.8438 24.609 1.3125 3.6094-0.375 6.75-3.3281 7.8281-3.1875 1.1719-6.1875-0.23438-7.7344-3.9844-1.5-3.4688-2.6719-7.125-4.0312-10.688-1.9688-4.9688-4.0312-9.9375-6.1406-15.047-3.5156 3.0469-6.5625 5.9062-9.8438 8.4375-1.9219 1.4531-1.875 2.7188-1.0312 4.7812 3.75 8.9531 7.5469 17.859 10.781 27 1.1719 3.2344 1.2188 7.0781 1.0312 10.641-0.1875 3.75-2.7656 5.8125-5.8594 5.7656-3.2344-0.046875-5.25-2.3438-5.9531-6.1406-0.84375-4.5469-1.7344-9.1406-3.1875-13.547-2.25-6.75-4.9688-13.266-7.7344-20.438-7.6875 5.4375-16.266 6.1875-24.984 7.2188 0.42188 1.0781 0.75 1.7344 0.9375 2.4375 2.5781 7.6406 5.2969 15.234 7.5938 22.969 1.125 3.75 1.1719 7.7344-0.89062 11.391-1.7344 3.0469-4.4531 4.2188-7.4062 3.2344s-4.3594-3.5625-3.8906-7.0781c0.14062-1.0312 0.51562-2.1094 0.42188-3.0938-0.84375-8.2969-3.375-16.172-6.9375-23.672-0.375-0.84375-1.9688-1.7812-2.8125-1.6406-4.2656 0.75-8.5312 1.8281-12.844 2.8594 0 0.70312-0.09375 1.4531 0 2.2031 0.98438 8.625 2.2031 17.156 3 25.781 0.65625 7.4062 0.5625 14.859-1.3125 22.125-0.89062 3.375-3.375 5.3438-6.2812 4.9688-3.0469-0.375-5.0156-2.6719-5.1094-6.2344-0.046875-1.875 0.09375-3.7969 0.14062-5.7188 0.09375-5.5312 0.46875-11.062 0.1875-16.547-0.42188-8.4375-1.3125-16.828-2.0625-25.453-3.1875 0.75-5.7188 1.5-8.3438 1.875-2.7188 0.42188-5.4844 0.75-8.25 0.60938-2.4375-0.09375-3.2812 0.9375-3.3281 3.0938-0.09375 3.2344 0.14062 6.5156-0.28125 9.7031-0.51562 3.9375-1.3125 7.875-2.4844 11.672-0.84375 2.7656-3.5625 3.9844-6.1406 3.4219-2.7656-0.60938-4.2188-2.4844-4.3594-5.25-0.09375-1.3125 0.09375-2.6719 0.23438-3.9844 0.65625-6.1875 1.3125-12.375 2.0156-18.562-5.2969-0.75-9.9375-1.4062-14.578-2.1094-0.84375 5.25-1.5 10.547-2.625 15.75-1.7344 7.9688-3.6094 15.938-5.7656 23.812-1.0781 3.9375-4.0312 5.5781-7.2656 4.7812-3.1406-0.79688-4.7812-3.375-4.2188-7.3125 0.46875-3.0938 1.3594-6.1406 2.0156-9.1875 2.0625-9.5625 4.0781-19.125 6.1875-28.688 0.65625-3.0469-0.79688-4.1719-3.5156-4.875-2.5312-0.65625-4.1719-0.60938-4.875 2.2969-0.51562 2.0156-1.5938 3.8906-1.875 5.9062-0.89062 5.8125-1.4531 11.719-2.3438 17.531-0.51562 3.2344-3.1406 5.25-5.9531 5.0625-3.0469-0.23438-5.25-2.5312-5.3906-5.9531-0.09375-2.1094-0.046875-4.2188 0.23438-6.2812 0.9375-6.2344 2.0625-12.469 3.0938-18.797-1.9219 0.09375-3.9844 0.1875-6.0469 0.375-0.51562 0.046875-1.2656 0.28125-1.4062 0.65625-1.5938 3.2812-3.4219 6.5156-4.5 9.9375-1.4531 4.5-2.25 9.2344-3.4219 13.828-1.4062 5.3906-2.7656 10.828-4.3594 16.219-0.65625 2.2031-2.2969 3.7031-4.7812 3.9375-4.2656 0.42188-7.125-3.0469-5.9531-7.7812 2.5312-10.547 5.3438-21 8.0156-31.453 0.09375-0.32812 0.09375-0.70312 0.14062-1.2188-4.0781 0.98438-7.875 2.2031-11.766 2.7656-3.2812 0.46875-4.5469 2.2969-5.0625 5.1562-0.42188 2.4375-0.65625 4.9219-1.3125 7.2656-1.7812 6.0938-5.5781 7.2656-10.781 3.3281-0.23438 0.89062-0.51562 1.6875-0.75 2.4844-0.89062 3.0938-1.6875 6.2344-2.7656 9.2812-0.9375 2.5781-3.4688 3.9375-5.8594 3.6094-2.7188-0.375-4.5938-2.2969-4.8281-5.2031-0.09375-1.2188-0.046875-2.4844 0.1875-3.7031 0.46875-2.5781 1.0781-5.1562 1.6875-7.9219-0.84375-0.1875-1.6406-0.32812-2.5781-0.5625-0.5625 4.2188-0.84375 8.2031-1.5938 12.094-0.79688 4.3125-3.0938 6.2812-6.3281 5.9531-3.1875-0.32812-4.875-2.7188-5.0156-7.125-0.046875-2.1094 0-4.2188 0-6.7969-0.5625 1.2656-1.0312 2.1094-1.2656 3-1.2656 4.2656-2.3906 8.625-3.75 12.844-1.3125 4.1719-4.0312 5.9531-7.3125 5.1562-3.3281-0.79688-4.8281-3.6562-4.125-7.9219 0.42188-2.3438 0.89062-4.6875 1.6875-6.8906 2.1094-5.7656 4.4062-11.438 6.7031-17.391-1.1719 0.09375-2.5781 0.09375-3.9375 0.28125-8.9531 1.2656-16.922-0.89062-24.703-5.7188-4.5-2.7656-10.031-3.7969-15.141-5.625-0.28125 0.28125-0.51562 0.5625-0.79688 0.79688 0.70312 5.0625 1.3125 10.125 2.1562 15.188 0.14062 0.84375 0.9375 1.9219 1.6875 2.3438 8.9062 5.0156 15.75 11.766 20.812 20.906 5.2969 9.5156 13.406 15.469 25.312 14.906 8.7188-0.375 16.922 2.625 24.703 6.1875 5.5781 2.5781 10.594 6.3281 15.797 9.6562 7.9688 5.1094 16.125 8.2031 25.828 4.875 5.2969-1.8281 10.922-0.75 16.359 0.60938 6.1875 1.5469 12.328 3.1875 18.562 4.5469 5.5781 1.2188 11.062 1.2656 16.406-1.5469 6.0469-3.1406 12.516-3.375 19.219-2.3906 5.5312 0.84375 11.203 2.0625 16.688 1.6406 11.109-0.84375 21.469 1.4531 31.312 5.9531 6.4219 2.9531 12.562 3.0938 19.031 0.79688 5.0625-1.7812 10.219-1.5938 15.516-1.0312 4.5938 0.46875 9.2812 0.70312 13.828 0.14062 7.7812-0.98438 15.516-2.7188 23.297-3.9844 5.1094-0.84375 10.266-1.4062 14.484-4.6875 5.4375-4.1719 11.062-8.1562 16.078-12.75 8.4375-7.7812 15.891-16.453 20.344-27.234 2.25-5.4375 3.9844-11.109 6.2344-16.547 3.8438-9.375 7.2656-19.078 12.047-27.984 5.7656-10.781 12.797-20.906 19.266-31.312 10.641-16.969 23.484-31.828 40.547-42.656 3.8906-2.4844 7.4531-5.2031 9-9.8438 0.23438-0.70312 0.75-1.3125 1.2188-1.9219 9.1875-12.188 20.203-21.797 35.25-26.344 7.2656-2.2031 13.359-6.7031 17.484-13.453 4.2188-6.9375 3.4219-14.531 2.625-21.938-1.3594-13.078-7.8281-23.953-16.594-33.422-9.1875-9.9375-16.453-21.141-22.219-33.328-2.8125-5.9531-3.7031-12.188-1.6875-18.609 0.5625-1.7344 0.23438-3.1406-0.70312-4.7812-1.3594-2.3438-2.7656-4.9688-3-7.5938-0.79688-9.4688-1.7344-18.984-1.4062-28.453 0.51562-13.641-1.6875-26.531-7.9688-38.625-3.2812-6.3281-7.9688-11.016-14.953-13.266-9.7031-3.1406-19.359-6.0469-29.391-8.0625-11.438-2.2969-22.594-5.8594-33.844-9.0938-3.6562-1.0312-6.8438-0.79688-10.078 1.2188-4.0312 2.5312-8.0156 5.2031-12.281 7.2188-5.0156 2.3438-10.359 4.0781-15.938 6.2344 3.6562 3.7031 7.4062 7.5469 11.25 11.344 6.4219 6.375 12.234 13.078 13.312 22.641 0.14062 1.1719 0.60938 2.3438 0.9375 3.4688 0.32812 0.23438 0.65625 0.42188 0.98438 0.65625 0.51562-0.89062 0.89062-1.9219 1.6406-2.625 3.2812-3.2812 6.5625-6.6562 10.125-9.6094 2.2031-1.8281 5.3438-1.2656 7.2656 0.75s2.1562 4.9219 0.46875 7.3125c-0.65625 0.9375-1.4531 1.7344-2.25 2.5312-3.4219 3.4219-6.8438 6.8906-10.312 10.266-1.6875 1.6406-2.1094 3.2812-0.5625 5.3906 0.75-0.60938 1.4531-1.2188 2.2031-1.7344 6.0469-4.2656 11.953-8.8125 18.234-12.703 3.4219-2.1094 7.4062-3.4219 11.297-4.4062 3.5625-0.89062 6.375 1.2656 7.1719 4.5 0.70312 2.9062-0.84375 5.5781-4.0312 6.9844-0.60938 0.28125-1.2656 0.46875-1.875 0.70312-10.219 3.8906-18.984 10.031-27.094 17.156-2.9531 2.5781-2.8594 4.0781-0.14062 6.7031 0.9375 0.89062 1.9219 1.7812 2.8594 2.6719 0.375-0.28125 0.70312-0.375 0.84375-0.60938 11.062-12.281 24.844-20.484 39.797-27 2.3438-1.0312 5.1094-1.4531 7.7344-1.5938s4.4062 1.5938 5.2031 4.125c0.79688 2.5781-0.046875 4.7344-2.1094 6.2812-1.2656 0.9375-2.8125 1.6406-4.3125 2.2031-11.062 4.125-21.047 10.172-30.609 16.969-0.75 0.51562-1.4062 1.1719-2.5312 2.1094 6.1406-1.6875 11.578-3.5156 17.109-4.5938 4.0312-0.75 8.2969-0.9375 12.375-0.5625 3.2812 0.28125 5.0625 3.4219 4.6875 6.4219-0.375 3.0938-2.7188 4.9219-6.1406 5.25-4.6406 0.46875-9.2812 0.84375-13.781 1.875-5.3906 1.2656-10.594 3.2344-15.609 4.7812 7.0781 16.594 13.875 32.531 20.672 48.469 9.4219-5.5312 19.828-7.5938 30.797-7.0781 2.25 0.09375 4.6406 0.9375 6.7031 1.9688 2.25 1.125 2.9531 3.4219 2.4375 5.9062-0.51562 2.5312-2.2031 4.0312-4.6875 4.3594-1.875 0.23438-3.7969 0.046875-5.6719-0.046875-7.0312-0.375-13.922 0.32812-20.391 3.1875-5.1094 2.25-5.3906 3.4219-3.0938 7.9219 0.75 1.4531 1.5 1.5938 3.0938 1.4062 6.7969-0.60938 13.641-1.125 20.438-1.2656 2.1562-0.046875 4.5 0.84375 6.4688 1.875 3.0938 1.5938 4.125 4.6406 2.9531 7.4531-1.0781 2.6719-3.6094 3.8906-7.0781 3.2344-6.9844-1.3594-13.875-1.3125-21.094 0.046875zm-146.68-45.328c2.7656 3.0938 5.625 5.1562 6.9844 7.9219 2.9062 5.9531 7.5469 6.6094 13.453 6.6562 6.5156 0.046875 13.078 1.0781 19.453 2.2969 3.7969 0.70312 5.5312 4.125 4.6406 7.3125-0.84375 3.2812-3.7031 4.875-7.6406 4.2656-2.4375-0.375-4.8281-1.0312-7.2656-1.3125-4.6875-0.51562-9.375-0.84375-14.109-1.2656-0.23438 0.28125-0.42188 0.5625-0.65625 0.84375 0.84375 1.5938 1.5469 3.2812 2.625 4.7344 1.0781 1.4062 2.5781 2.5312 3.8906 3.75 8.0625 7.2188 9.75 16.078 7.2188 26.25-1.7344 6.8438-5.1094 12.844-8.9062 18.703-5.0625 7.6875-6.6094 16.406-7.4531 26.156 2.8125-2.0625 5.0156-3.8438 7.3594-5.2969 4.7344-2.9531 9.4688-5.9062 14.391-8.5312 5.2031-2.7656 10.828-4.7344 15.797-7.8281 8.0156-4.9688 15-11.062 17.766-20.719 2.2969-8.0156 4.7344-16.031 7.3594-23.953 3.5625-10.734 4.5469-21.75 4.125-32.953-0.14062-3.75-0.9375-7.5469-2.0156-11.156-1.1719-3.9844-3.0469-7.7812-4.5938-11.672-2.9062-7.5938-3.1875-15.375-1.9219-23.297 1.0781-6.9844 4.0781-13.219 7.1719-19.453 1.1719-2.3438 1.3125-4.5938 0.51562-7.125-2.25-7.4531-4.2656-15-6.5156-22.453-0.42188-1.4062-1.1719-2.8594-2.2031-3.9375-8.0625-8.4375-16.031-17.062-24.422-25.125-4.5938-4.4062-8.1562-9.0938-10.031-15.234-2.1094-6.9375-6.2812-12.75-10.828-18.281-0.65625-0.79688-1.5469-1.6875-2.4844-1.8281-6.4688-1.2656-13.031-3.375-19.5-3.2344-10.359 0.23438-20.578 0.9375-30.797-1.9688-9.6094-2.7656-19.266-1.7812-28.359 2.5312-8.8594 4.2188-18.047 7.5469-27.609 9.7969-4.2656 0.98438-8.3906 0.89062-12.656-0.42188-1.9688-0.60938-4.3594-0.75-6.375-0.23438-8.7188 2.2969-17.391 4.7812-26.016 7.5-2.3438 0.75-4.8281 2.1562-6.4219 3.9844-4.125 4.7812-7.8281 9.9844-11.672 15.047-3.8906 5.1562-7.3594 10.641-11.578 15.516-4.875 5.5781-11.344 7.3125-18.422 4.9219-3.8906-1.3125-7.6875-3.2344-11.297-5.25-8.3438-4.7344-16.781-6.1406-25.875-2.1094-8.25 3.6562-14.484 10.078-21.703 15.141-0.70313 0.46875-0.9375 1.9688-0.9375 3 0 2.8125 0.60937 5.7188 0.28125 8.4844-1.0312 8.7188-4.3594 16.688-8.2969 24.422-3.8906 7.6875-9.8438 12.422-18.562 13.406-4.6875 0.51562-9.0938 1.7812-13.125 4.3594-6 3.8906-11.906 7.9219-18.141 11.297-7.9688 4.3125-12.938 10.922-16.734 18.797-3.2812 6.75-4.7344 13.828-4.5938 21.234 0.14063 5.9062 3.2344 10.359 6.9375 14.625 5.9062 6.7969 7.8281 14.719 5.625 23.438-0.98437 3.8438-2.5781 7.5469-3.6562 11.391-0.89062 3.2812-1.875 6.6094-2.0625 9.9375-0.32812 8.1562 2.9531 15.141 7.5 21.703 1.9219 2.8125 3.8906 5.625 5.4844 8.6719 3.6094 6.9375 4.0312 14.625 4.6406 22.172 0.5625 6.7969 1.5 13.359 4.5938 19.547 2.2969 4.5938 4.5469 9.1875 6.5156 13.969 5.6719 13.922 9 28.406 10.641 43.359 0.09375 0.75 0.375 1.875 0.89063 2.1094 1.7344 0.79688 3.6094 1.2656 4.8281 1.6406-0.1875-7.1719-0.75-14.156-0.375-21.141 0.23438-4.875 2.2969-9.6562 2.5781-14.578 0.65625-10.547 0.79687-21.094 1.0312-31.641 0.375-18.328-2.8125-35.766-12.844-51.562-8.0625-12.75-9.8906-26.344-4.7344-40.688 0.98438-2.7188 2.25-5.0625 5.4375-5.5781 3.2812-0.51562 5.4844 1.1719 7.125 3.75 0.79688 1.2656 1.2188 2.7656 1.7344 4.1719 1.6875 4.6406 3.0938 9.375 5.1562 13.875 1.1719 2.625 3.3281 4.7812 5.0625 7.125 0.23437-0.14062 0.46875-0.28125 0.75-0.42188-0.9375-9.8906 0.23437-19.594 3.0938-29.062 0.1875-0.5625 0.046874-1.3594-0.28125-1.875-2.0625-3.2812-3.7969-6.8906-6.375-9.7031-7.6406-8.4375-16.266-15.703-26.297-21.234-1.7344-0.9375-3.5156-1.9688-5.0156-3.2344-2.0625-1.7344-2.3438-4.125-1.3125-6.5156 1.125-2.5312 3.3281-3.7969 6.0469-3.2812 2.1094 0.375 4.4062 0.9375 6.1406 2.1094 6 4.0312 12.094 7.9688 17.531 12.609 5.5312 4.7344 10.312 10.312 15.422 15.469 3.2344-3.7969 1.7812-7.9688-0.28125-11.719-5.7188-10.359-13.453-19.078-23.156-26.016-1.8281-1.3125-3.75-2.625-5.3906-4.1719-1.8281-1.7344-2.0625-4.0781-0.9375-6.3281 1.2188-2.3438 3.2812-3.4688 5.9062-2.9531 1.3594 0.23438 2.7656 0.75 4.0312 1.3594 7.7344 3.6094 13.359 9.7031 18.562 16.172 4.0781 5.1094 7.6875 10.594 11.531 15.938 1.1719-1.5469 2.3906-3.3281 3.8906-4.9219 1.3594-1.5 1.5469-2.8125 0.46875-4.5469-2.1094-3.375-4.1719-6.7969-6.0938-10.312-1.5-2.6719-0.89062-5.4375 1.2188-7.2188 2.1094-1.7344 5.0625-1.7344 7.3125 0.28125 1.3125 1.1719 2.4844 2.625 3.4688 4.125 1.3594 2.0156 2.4844 4.2188 3.8438 6.5625 4.6875-5.4375 9.2812-10.688 14.203-16.406-3.7031-2.7188-7.2656-5.3906-10.875-7.9688-2.0156-1.4062-4.2656-2.5312-6.2344-4.0312-2.25-1.7344-2.8594-4.5938-1.7344-6.8906 1.1719-2.4375 3.8906-3.75 6.75-2.9062 1.7344 0.51562 3.4688 1.1719 4.9219 2.2031 5.4844 3.8906 10.781 7.9688 16.406 12.141 3.6094-1.7812 7.7344-3.8438 12.469-6.2344-3.9844-3.7969-7.6406-7.3594-11.344-10.828-2.0156-1.875-4.2188-3.6094-6.0469-5.625-1.875-2.1094-1.7344-5.0625-0.09375-7.0781 1.7344-2.0625 4.4062-2.625 6.9375-1.3594 1.0312 0.51562 2.0156 1.125 2.9062 1.7812 6.7031 4.9688 12.469 10.875 17.25 17.766 0.46875 0.65625 1.4062 1.5938 2.0156 1.5 4.7812-0.65625 9.5156-1.5469 14.766-2.3906-1.0781-1.7812-1.8281-3.5625-3.0469-4.9219-7.1719-8.25-14.438-16.406-21.75-24.562-2.7656-3.0469-3.2344-6.0938-1.1719-8.6719 2.1094-2.625 5.625-3.0469 8.9531-0.51562 2.7656 2.1094 5.4375 4.5 7.6875 7.1719 6.375 7.6406 12.516 15.422 18.609 23.062 2.1562-2.8125 4.4062-6.0938 7.0781-9.0469 1.6406-1.7812 1.9219-3.3281 0.89063-5.3438-1.1719-2.2969-2.3906-4.5469-3.4688-6.8906-1.4062-3.0469-0.60938-5.9531 1.875-7.5469 2.3906-1.5469 5.5312-0.89062 7.5938 1.6406 1.0312 1.2656 1.8281 2.6719 2.6719 4.0312 0.65625 1.0781 1.2188 2.25 2.1562 4.0312 1.3125-2.2969 2.3438-3.9844 3.2812-5.7188 2.5781-4.9688 5.4844-6.3281 10.969-5.0156 0.70313 0.1875 1.4062 0.375 2.4375 0.65625 0.32813-4.2656 0.32813-8.3906 1.0781-12.328 1.4062-7.7344 2.9531-15.469 4.9219-23.109 0.89063-3.5156 3.9844-4.875 7.125-4.125 2.9531 0.70312 4.8281 3.2344 4.4062 6.7031-0.28125 2.7188-1.3594 5.3438-1.7812 8.0625-1.4062 9.1875-2.6719 18.375-3.8906 27.609-0.14063 0.9375 0.60937 1.9688 0.89062 2.9531 0.28125-0.09375 0.5625-0.1875 0.84375-0.23438 0.14063-0.42188 0.28125-0.89062 0.375-1.3594 2.1562-8.7656 4.1719-17.531 6.5625-26.25 0.98438-3.6562 2.4844-7.1719 4.125-10.594 1.4062-2.9531 4.6406-4.0312 7.5-2.9531 2.8125 1.0312 4.4062 4.0312 3.75 7.1719-0.32812 1.4531-0.9375 2.8594-1.4062 4.3125-3.0938 10.266-6.3281 20.531-9.0938 30.844-0.46875 1.7812 0.28125 4.8281 1.6406 5.9531 5.1562 4.1719 11.062 6.5156 18.047 5.1094 0.28125-1.9219 0.42188-3.7031 0.79688-5.4844 2.9062-14.438 8.1094-28.125 14.672-41.25 1.0781-2.1094 2.3906-4.125 3.9375-5.9062 1.9219-2.25 4.875-2.5781 7.2656-1.2188 2.3438 1.3594 3.4688 4.0312 2.5781 6.8906-0.65625 2.0625-1.6406 4.0781-2.5781 6-5.8594 11.953-11.109 24.188-14.344 37.172-0.51563 2.0625-0.23438 3.0938 2.25 2.8594 0.23437-0.70312 0.42187-1.4062 0.65625-2.1094 5.4375-17.203 14.391-32.438 26.062-46.125 1.4531-1.6875 3.3281-3.1406 5.25-4.3125 2.25-1.3125 4.6406-1.0312 6.6094 0.79688 2.0625 1.9219 2.4375 4.2656 1.2188 6.75-0.65625 1.3594-1.5469 2.625-2.5312 3.75-8.25 9.3281-14.859 19.781-20.531 30.797-2.25 4.3594-3.7969 9.0938-5.4844 13.734-0.28125 0.79688 0.09375 2.5781 0.60937 2.7656 6.2344 2.5312 12.516 4.8281 18.75 7.2188 3.3281-4.4531 6.6562-9.1406 10.219-13.547 2.7656-3.375 5.7188-6.6562 8.8594-9.6562 2.3906-2.2969 5.8125-2.0156 8.0625 0.09375 2.2031 2.0625 2.4375 5.3438 0.5625 8.0625-0.79688 1.1719-1.8281 2.1562-2.7656 3.2812-4.875 5.9531-9.75 11.906-14.672 17.812-2.0156 2.3906-1.8281 4.3125 0.70312 6.1406 11.812-9.0469 24.938-15.609 39.141-19.875 3.9844-1.2188 8.1094-2.0625 12.234-2.6719 3.2344-0.46875 5.8594 1.4531 6.6094 4.2188 0.84375 3.0469-0.46875 5.7656-3.6562 7.1719-1.875 0.84375-3.9375 1.3125-5.9062 2.0156-7.5469 2.5312-15.328 4.5938-22.641 7.7812-6.375 2.8125-12.281 6.7969-18.234 10.453-0.98438 0.60938-1.9688 2.3906-1.8281 3.4219 0.89063 5.7656 2.1562 11.484 3.2812 17.391-0.28125 0 0.046876 0.09375 0.23438 0 12.328-5.25 25.453-7.7344 38.578-9.9844 5.7188-0.98438 11.531-1.4531 17.297-1.8281 3.6562-0.23438 6.1875 1.9219 6.6094 4.9688 0.46875 3.2344-1.125 5.7656-4.5938 6.8906-1.5469 0.51562-3.1406 0.75-4.7344 0.98438-9.2812 1.4062-18.656 2.4375-27.891 4.2188-7.2656 1.2656-14.719 3.5156-22.312 5.4375zm13.875-274.45c-0.32812-4.2188-0.84375-7.875-0.89062-11.531-0.046876-2.4375 1.5938-4.0781 3.9375-4.6406s4.4062 0.14062 5.7188 2.2031c0.79687 1.2656 1.4062 2.7188 1.7344 4.1719 0.5625 2.5781 0.60938 5.2969 1.2656 7.875 0.46875 1.7812 1.3594 4.3125 2.7656 4.8281 2.625 0.98438 5.7188 0.79688 8.8594 1.125 0-1.3594 0.046874-2.25 0-3.1875-0.23438-3.5156-0.65625-7.0312-0.70313-10.547 0-3 1.875-5.1094 4.4062-5.5312 2.625-0.46875 5.0156 0.75 6.1875 3.4688 0.70313 1.5469 1.125 3.2344 1.3125 4.9219 0.32813 2.9062 0.46875 5.8125 0.65625 8.7656 8.25-1.8281 16.312-3.5625 24.328-5.3906 4.125-0.9375 4.125-1.0312 4.1719-5.2969 0.046876-1.2188 0.046876-2.4844 0.09375-3.7031 0.51563-9.0469-2.5781-16.969-7.6406-24.281-2.625-3.75-6.0938-5.625-10.781-4.6406-2.2969 0.51562-4.6406 1.125-6.9844 1.3594-12.188 1.2656-24 0.84375-33.75-8.1094-0.84375-0.79688-2.0625-1.5938-3.1875-1.7344-5.4375-0.60938-10.734-0.84375-16.312 0.70312-10.406 2.8594-15.844 0.09375-20.578-7.5-1.7812-2.9062-4.125-5.4844-6.4219-7.9688-1.0312-1.125-2.625-2.1094-4.0781-2.3906-10.5-2.0156-20.578-1.2188-30 4.4531-6.2344 3.75-10.359 9.4219-14.766 14.906-7.2188 9.0938-16.922 14.438-27.891 17.297-3.9375 1.0312-8.5781 0.84375-12.656 0-7.9688-1.6406-14.672-6.0938-20.766-11.438-2.7656-2.4375-5.6719-4.7812-8.4375-7.2656-3.1875-2.7656-6.75-4.125-11.016-3.8438-8.8125 0.51562-17.672 1.125-26.484 1.4531-10.875 0.46875-19.359 4.4062-23.484 15.234-0.046876 0.1875-0.1875 0.32812-0.28125 0.46875-4.0312 7.1719-10.688 11.766-16.734 16.969-8.4375 7.3125-17.906 11.953-29.109 13.359-7.4531 0.9375-13.594 4.6406-18.516 10.312-15.938 18.375-19.078 39.984-15.797 63.188 0.23437 1.7812 1.1719 2.3438 2.8594 2.3438 11.391 0.1875 21.328-3.0469 29.109-11.766 1.3125-1.5 2.7188-2.9531 4.3125-4.125 11.531-8.4844 24.75-11.297 38.719-11.109 3.2812 0.046875 6.5156 0.75 10.312 1.2188-0.60938-1.6875-1.125-2.8594-1.5-4.0781-1.2188-4.0781-2.7188-8.1094-3.5625-12.281-0.60938-3.0469 1.2188-5.5312 3.75-6.2344 2.8125-0.79688 5.2969 0.375 6.75 3.375 0.75 1.6406 1.1719 3.375 1.7812 5.1094 1.3125 3.6094 2.6719 7.2188 4.0781 11.062 4.3594-2.2969 8.25-4.4062 12.281-6.5625-2.8594-8.25-5.8594-16.219-11.203-23.109-2.25-2.9062-1.9688-6.1406 0.32812-8.25 2.3906-2.25 5.7188-2.2031 8.4375 0.5625 2.1094 2.1562 4.2188 4.5469 5.4375 7.2188 2.7656 6.0469 4.9688 12.328 7.5469 18.422 0.42187 1.0312 1.5469 2.4375 2.3906 2.5312 4.0781 0.28125 8.1562 0.14062 12.797 0.14062-1.2188-3.6094-2.1562-6.4688-3.1875-9.2812-3.375-9.1875-6.8438-18.328-10.172-27.562-1.5469-4.3125-0.60937-7.3594 2.5312-8.8594 3.1875-1.5469 6.2344-0.1875 8.5312 3.9844 1.2656 2.3438 2.4844 4.7344 3.3281 7.2656 3.9375 11.719 7.8281 23.438 11.625 35.203 0.75 2.2969 1.9219 3.9375 3.9375 5.2969 2.9062 1.9688 5.5781 4.2656 8.3438 6.4688 1.125 0.89062 2.1562 1.9688 3.375 3.0938 0.09375-0.60938 0.23437-0.79688 0.1875-0.98438-3.9844-14.953-6.1406-30.422-12.094-44.812-1.4531-3.4688-0.70313-6.4688 1.9219-8.0625 2.7656-1.6406 6.1406-1.0312 8.1562 2.25 2.2031 3.6094 4.3125 7.4531 5.4375 11.531 2.4844 8.8594 4.3594 17.906 6.4219 26.906 1.1719 5.0156 2.2031 10.078 3.4219 15.656 1.875-3.8438 3.2344-7.2656 5.1094-10.312 1.6875-2.7188 1.9219-5.625 1.4531-8.4375-1.7812-10.312-1.7344-20.672-0.70312-31.031 0.42187-4.5 1.3594-9.0469 2.7656-13.312 1.2656-3.8906 4.5938-5.2969 7.875-4.1719 2.9531 1.0312 4.0781 3.8906 3.6094 7.7344-1.125 9.2344-2.0156 18.516-2.9531 27.75-0.09375 0.89062 0.09375 1.7812 0.1875 3 0.65625-0.5625 0.98438-0.75 1.2188-1.0312 6.4688-8.0156 14.203-14.531 22.969-19.875 0.75-0.46875 1.2188-1.7812 1.3594-2.7188 0.46875-3.6562 0.46875-7.4531 1.2656-11.016 0.60938-2.7188 1.875-5.3438 3.375-7.7344 1.3125-2.1562 3.75-2.5312 6.1406-1.6875 2.2969 0.84375 3.4688 2.7188 3.375 5.1094-0.046876 1.5938-0.5625 3.1875-0.89063 4.7344-0.51562 2.3438-1.0781 4.7344-1.7344 7.5 7.2188-1.8281 13.828-3.4219 20.438-5.1562 6.75-1.7812 13.5-1.5938 20.203-0.42188 0.60938-1.9688 0.9375-3.6562 1.6406-5.2031 1.2188-2.6719 3.7031-3.8438 6.2812-3.2344 2.625 0.60938 4.2656 2.7188 4.2656 5.6719 0 1.3125-0.32812 2.6719-0.14062 3.9844 0.14062 0.89062 0.65625 2.25 1.3125 2.5312 5.625 2.3906 11.203 4.4531 17.016 6.7031zm-141 305.9c3.1406-0.46875 3.5625-2.9531 4.125-5.0625 3.9375-14.625 6.2812-29.391 3.2812-44.531-0.5625-2.9062 0.89063-5.4844 3.5156-6.375 2.7656-0.98438 5.5781 0.14062 6.9375 2.8594 0.46875 0.9375 0.98437 1.9219 1.0312 2.9531 0.5625 8.4375 1.3594 16.828 1.3594 25.266 0 5.1562-1.2656 10.312-1.9688 15.375 6.9844-2.8594 13.828-5.5781 20.625-8.4844 0.70313-0.28125 1.2656-1.3594 1.4531-2.2031 1.5469-6.8906 2.3438-13.922 1.1719-20.953-0.65625-4.125-1.6875-8.1562-2.5781-12.234-0.98438-4.4531 2.4375-8.2969 6.5156-6.9375 1.7812 0.60938 3.7031 2.5312 4.3594 4.3125 3.2344 8.4375 4.5469 17.25 4.1719 26.297-0.14062 3-0.46875 6-0.70312 9.1406 5.3438 0.32812 10.172-0.1875 14.531-2.9531 0.89062-0.60938 1.7344-1.9688 1.8281-3.0469 0.42188-5.4844 0.5625-11.016 0.84375-16.5 0.1875-3.8438 2.2969-6.2812 5.5781-6.375 3.3281-0.09375 5.6719 2.4375 5.8125 6.4219 0.09375 2.7656 0.09375 5.5312 0.09375 8.2969v5.8125c1.5938-0.46875 2.7656-0.89062 3.9375-1.0781 2.1562-0.32812 3-1.4531 3.0938-3.6094 0.14062-3.2344 0.65625-6.4219 0.89062-9.6562 0.28125-4.1719 2.25-6.5156 5.6719-6.5625 3.5156-0.046875 5.6719 2.4844 5.7188 6.75 0.046874 3 0 6.0469 0 9.1875 2.0156-0.28125 4.125-0.75 6.2812-0.79688 1.9219-0.046875 2.5781-0.79688 2.8125-2.6719 1.3125-10.359-0.9375-19.734-6.6094-28.547-3.2344-4.9688-7.4531-8.1562-12.938-10.125-6.2344-2.25-12.328-4.875-18.375-7.6875-2.5781-1.1719-4.8281-1.7812-7.6406-1.0312-10.266 2.7656-19.594 0.5625-28.688-4.7344-7.3594-4.3125-15.234-7.7344-22.922-11.531-0.75-0.375-1.5469-0.46875-1.9688-0.60938-2.1562 2.3906-3.7969 4.7812-6.0469 6.5156-7.5469 5.8594-13.875 12.656-18.234 21.234-2.5781 5.0625-6.9375 8.0156-12.422 9.2344-2.6719 0.60938-5.4375 0.79688-8.1562 1.1719-13.734 1.9688-26.578 6.0469-36.469 16.359-5.7656 6.0469-10.875 12.75-16.828 18.609-7.875 7.8281-14.016 16.734-18.75 26.719-7.125 15-11.016 30.562-8.4844 47.297 0.23437 1.5 0.046874 3.2812 0.79687 4.4062 3 4.4531 6.2812 8.6719 9.8906 13.5 0.84375-2.7188 1.3594-4.6406 1.9688-6.5156 4.4531-13.172 11.016-24.984 23.156-32.531 6.1875-3.8438 12.891-6.8906 19.594-9.7969 2.3906-1.0781 2.625-2.1094 2.1562-4.2188-1.4062-6.4219-3.0938-12.75-6.5625-18.422-0.70313-1.125-1.0781-2.4375-1.3594-3.7031-0.70312-2.8125 0.65625-5.5312 3.1406-6.6094 2.5781-1.0781 5.5781-0.23438 6.9375 2.2969 3.2812 6.1875 7.0781 12.188 8.4375 19.266 0.51562 2.5781 1.3594 5.0625 2.0625 7.7344 2.8594-0.51562 5.4844-0.89062 8.0625-1.4531 2.6719-0.5625 5.25-1.3594 8.7656-2.25-1.7812-3.0469-3.1406-5.625-4.7812-8.0625-1.5-2.2031-1.9688-4.3125-0.5625-6.6562 1.4062-2.2969 3.7031-3.4219 6.0938-2.3906 2.1562 0.89062 4.3594 2.4375 5.7656 4.3125 1.5938 2.1562 2.3906 4.9219 3.2812 7.5 1.4531 4.0781 1.6406 4.2188 6.0469 1.9688-1.0781-4.3125-2.2969-8.7188-3.2812-13.172-0.84375-3.8906 0.84375-6.9375 4.0781-7.6406 3.3281-0.75 5.9062 1.125 7.0312 5.0156s2.25 7.7812 3.4219 11.906zm-137.44 46.688c1.3594 2.5781 2.4844 4.875 3.75 7.0312 6.2344 10.453 10.125 21.891 10.969 33.891 0.98438 14.391 1.0312 28.875 0.84375 43.312-0.09375 6.2812-1.4531 12.656-2.8594 18.797-1.5469 6.9844-1.9688 13.922-0.65625 20.953 0.46875 2.4844 0.98437 5.25 2.3906 7.2188 3.7031 5.25 9 7.7344 15.469 7.3125 7.4062-0.46875 14.812-1.125 22.172-1.875 2.4375-0.23438 4.875-0.79688 7.1719-1.6406 5.3438-1.9219 10.688-3.2344 16.453-3 8.9062 0.32812 17.531-0.75 26.109-3.5156 20.203-6.4688 40.453-7.6875 60.375 1.5 1.5469 0.70312 3.2812 1.2188 4.9219 1.3125 11.719 0.60938 23.531 2.25 35.062-1.6875 1.0781-0.375 2.25-0.46875 3.375-0.5625 7.6875-0.65625 15.422-1.3125 22.641-4.1719 6.0938-2.3906 12.281-3.7969 18.703-4.7812 3.8906-0.60938 8.0625-1.4531 11.25-3.5156 7.2188-4.5938 14.156-9.6094 20.672-15.094 3.9844-3.375 7.2656-7.7344 9.1406-13.781-10.828 0-21.141-0.1875-31.453 0.046875-9.0469 0.1875-18.047 1.0312-27.047 1.2188-3.4219 0.09375-7.3125-2.2031-10.125-1.125-3 1.1719-4.9219 5.1094-7.4531 7.6875-3.9375 4.0312-8.4844 7.125-14.344 7.5469-13.547 0.98438-26.906 0.75-40.078-3.5625-6.4219-2.1094-12.844-4.5938-19.922-4.4531-11.625 0.1875-22.547-2.8594-32.906-8.1562-1.7812-0.89062-3.6094-1.7344-5.4844-2.3906-3.0469-1.0312-4.125-0.46875-4.9219 2.7188-0.5625 2.1094-0.5625 4.3594-1.125 6.4688-0.60937 2.3438-1.1719 4.8281-2.3906 6.8906-1.7344 2.9062-4.875 3.6562-7.4062 2.3438-2.5312-1.2656-3.375-3.7969-2.6719-7.125 0.98438-4.4531 1.7812-8.9062 2.7188-13.406-3.1406-1.4062-6.1875-2.7656-9.3281-4.1719-1.6406 7.0312-3.1875 13.781-4.875 20.531-0.5625 2.25-1.4062 4.5469-2.4844 6.6562-1.4062 2.7188-4.3125 3.7031-7.0781 2.7188-2.625-0.9375-4.0312-3.2812-3.7031-6.3281 0.09375-0.84375 0.32813-1.6875 0.5625-2.4844 2.2031-8.5781 4.4531-17.109 6.6562-25.688 0.23438-0.84375 0.375-2.25-0.09375-2.6719-2.5781-2.4375-5.3438-4.6406-8.25-7.125-0.23437 0.9375-0.375 1.5-0.46875 2.0625-1.7344 10.688-3.3281 21.422-5.2031 32.109-0.60938 3.5156-1.7344 7.0312-2.9531 10.406-1.0781 3-3.7969 4.2188-6.6562 3.5625-2.5781-0.60938-4.3125-2.9531-4.2188-6 0.046876-1.5 0.1875-3.0469 0.46875-4.5469 2.2969-12.516 4.5938-25.078 6.9844-37.547 1.3125-6.8438 2.2969-13.5-2.6719-19.547-3.6562-4.3594-7.0781-8.9531-10.5-13.5-8.4375-11.391-18.469-21.328-29.531-30.844zm355.31-47.016c2.8125 0.70312 5.6719 0.98438 8.1094 2.1562 2.1094 0.98438 4.0781 2.6719 5.5781 4.5 1.5938 1.9219 1.2656 4.3594-0.375 6.3281-1.6875 1.9688-3.8906 2.1562-6.2344 1.3125-1.5938-0.60938-3.1406-1.3594-4.7812-1.7812-5.3906-1.5-5.4375-1.4531-6.8906 3.8438-0.1875 0.75-0.28125 1.5-0.60938 2.2031-0.9375 2.2031-0.51562 3.375 2.0156 4.0781 3.1875 0.89062 6.2812 2.2031 9.375 3.4219 2.9531 1.1719 4.4062 3.75 3.7969 6.5156-0.65625 2.9062-2.8594 4.7344-6.0938 4.4062-2.2969-0.23438-4.5938-1.0312-6.8438-1.7344-2.0625-0.65625-4.0312-1.5938-6.2812-2.5312-1.9688 4.6406-3.7969 9.0469-5.5781 13.219 7.5 1.9219 14.812 3.5625 21.984 5.8125 2.5312 0.79688 4.9219 2.8594 6.75 4.9219 2.3438 2.7188 2.0625 5.9531 0.046875 8.0625-2.1094 2.1562-4.7812 2.1562-8.1094 0.28125-2.1562-1.2188-4.3125-2.4844-6.7031-3.1406-6.8906-1.8281-13.828-3.375-20.766-4.9688-0.84375-0.1875-2.1094-0.28125-2.7188 0.1875-3.1406 2.2969-6.0938 4.7344-9.0938 7.125 4.6875 7.2188 9.375 14.156 13.641 21.328 1.4531 2.4844 2.3438 5.625 2.5312 8.5312 0.23438 3.3281-2.1094 5.6719-4.9219 6.0938-2.9062 0.42188-4.8281-1.2656-6.5625-4.3594-4.7344-8.5312-9.7969-16.922-14.766-25.359-0.14062-0.1875-0.46875-0.28125-0.65625-0.42188-2.5312 1.0312-4.9688 2.0625-7.6406 3.1406 1.0312 1.875 2.1094 3.6562 3.0469 5.4844 1.875 3.6562 3.8438 7.2188 5.4375 10.969 1.5 3.5156 0.42188 6.4688-2.3906 7.875-2.7656 1.3594-5.7656 0.375-7.7812-2.7656-1.3594-2.1562-2.3906-4.5469-3.6094-6.7969-1.5469-2.9531-3.1406-5.9531-4.7812-9.1406-2.3906 1.8281-4.4062 3.375-6.4219 4.9219 1.2656 2.3438 2.625 4.3594 3.4219 6.5625 1.4531 3.8906 2.9531 7.7812 3.7969 11.859 0.60938 3.0469-1.2656 5.3438-3.8906 6.1875-3.375 1.125-6.2812-0.9375-7.6406-4.875-1.6406-4.7812-3.6094-9.4688-5.25-13.781-5.9531 1.0312-11.016 1.9219-16.172 2.8125 1.0781 3.6094 2.3906 7.3594 3.3281 11.203 0.75 2.9531-0.46875 5.3906-2.8594 6.4688-2.4844 1.125-5.25 0.32812-6.9375-2.2969-1.0312-1.5938-1.7344-3.375-2.4375-5.1562-0.84375-2.1094-1.5-4.3125-2.25-6.4688-0.60938-1.7812-1.5938-2.0625-3.4688-1.5938-6.7969 1.6406-13.688 3.1875-20.578 4.5-6.8438 1.3125-13.781 2.2969-20.672 3.4688 3.9375 11.719 16.219 22.547 31.5 20.953 16.547-1.6875 33.188-2.7188 49.828-0.98438 10.781 1.125 20.812-0.46875 29.906-6.7031 1.7812-1.2188 3.8906-2.0156 5.9531-2.7188 7.5-2.5781 14.344-6.3281 21.141-10.5 3.7969-2.3438 8.5781-3.4688 13.031-4.5 6.2812-1.4531 12.75-2.0625 19.031-3.5625 4.5938-1.0781 9.1875-2.5781 10.875-8.0156 3.4219-10.875 6.9375-21.75 10.5-32.578 4.6875-14.203 5.1094-28.5-0.375-42.469-7.2656-18.469-15.094-36.75-22.641-55.078-5.2969-12.891-12.047-24.75-23.859-33.047 0.1875-0.14062-0.046875-0.046875-0.09375 0.09375-0.23438 0.51562-0.46875 1.0312-0.70312 1.5938-2.9531 8.4375-3.6562 17.016 0.1875 25.312 5.1094 11.016 7.7812 22.406 6.6562 34.594-0.42188 4.8281-0.65625 9.8438-1.0312 15zm-318.74 402.28c2.7656 1.9688 5.1562 3.6562 7.5 5.3906 3.2812 2.4375 6.8906 3.7031 10.969 4.3594 6.2812 1.0312 12.609 2.1094 18.609 4.1719 8.2031 2.8125 16.453 4.7344 25.078 4.6875 8.9062-0.046874 17.953 0.375 26.766-0.84375 15.281-2.2031 30.047-6.6094 44.062-13.312 5.25-2.5312 10.172-5.7656 15.469-8.8125-1.0781-0.9375-1.5-1.5-2.0625-1.7812-6.6094-3.2812-13.078-7.0312-19.969-9.6094-12.703-4.7812-26.016-6.8906-39.516-8.1562-7.5938-0.70313-15.234-1.4062-22.734 0.32812-16.172 3.8438-32.297 7.9219-48.375 11.953-0.89062 0.23437-1.6875 0.75-2.4375 1.3594-2.7656 2.1562-5.3906 4.4531-8.1562 6.6094-1.5938 1.1719-3.2344 2.25-5.2031 3.6562zm201.74-385.6c1.875-2.5781 3.375-5.25 5.4375-7.3594 2.2031-2.3438 5.2969-2.2969 7.4531-0.46875 2.25 1.8281 2.625 4.6406 1.0312 7.4531-1.2656 2.25-2.3906 4.5469-3.7031 6.75-0.98438 1.6875-0.51562 2.7188 0.65625 4.2188 5.2969 6.7031 11.25 12.984 14.203 21.234 1.125 3.0938 2.0156 6.2344 3.1406 9.8906 2.1094-8.7188 6.7031-15.75 11.109-22.828 1.0312-1.6875 1.5469-3.6562 2.2969-5.4844 3.2344-7.6875 1.7344-14.016-5.1094-19.078-4.5938-3.375-7.125-8.1094-7.6406-13.828-0.70312-7.5-4.8281-12.891-10.688-17.062-1.6406-1.1719-4.0312-2.0156-6-1.9688-12.984 0.32812-25.359 3.8438-37.125 9.0938-7.0781 3.1875-14.062 5.5312-21.844 5.5781-2.625 0-5.3906 0.14062-7.9219 0.79688-12.094 3.3281-23.016 9.2812-34.594 15.797 13.688 4.5469 26.438 9.5625 40.406 10.125 0.28125-1.4531 0.375-2.5312 0.75-3.4688 1.3594-3.6094 2.3906-7.4531 4.3594-10.734 2.3438-3.8438 8.2031-3.1406 9.6562 0.98438 0.5625 1.5938 0.09375 3.7031-0.32812 5.4375-0.5625 2.2031-1.5938 4.3125-2.6719 7.0781 2.9531-0.60938 5.0625-1.125 7.1719-1.4531 2.1562-0.32812 3-1.5469 3.6094-3.6562 1.0781-3.7031 2.3906-7.4062 4.3125-10.734 1.9688-3.4688 5.25-4.2188 7.9688-2.5781 2.8125 1.6875 3.4219 4.5469 1.8281 8.2969-0.65625 1.5-1.3125 3-2.25 5.0156 5.7188-1.125 10.406 0.09375 14.484 2.9531zm-127.18 38.484c-1.4062-2.4844-2.5312-4.4531-3.6562-6.4688-2.4844-4.3594-4.8281-8.8125-7.4531-13.078-1.5-2.4375-1.6875-5.1094 0-7.125 1.7344-2.0625 4.3125-2.5312 6.9844-1.4062 3.4219 1.4531 5.1094 4.4062 6.6562 7.5 0.89062 1.7812 1.7344 3.6094 2.625 5.3906 0.23438-0.046875 0.46875-0.046875 0.70312-0.09375 0.5625-7.8281 3.5625-14.766 7.7812-21.75-1.6875 0.28125-2.7656 0.42188-3.8906 0.60938-9.4219 1.8281-18.797 3.8438-28.266 5.4844s-18.047 5.3906-25.969 10.594c-11.344 7.4531-17.062 18.703-21.047 31.266-1.7344 5.5312-0.70312 10.125 2.4844 14.625 1.5469 2.1562 3.1406 4.3125 4.4531 6.6562 7.2188 12.656 17.953 21.469 30.656 28.172 1.0312 0.5625 2.1562 0.84375 3.2344 1.2188 0.1875-0.42188 0.28125-0.51562 0.28125-0.60938l-0.14062-1.125c-1.6875-10.5-1.4531-20.812 2.8594-30.797 0.28125-0.65625-0.09375-1.9688-0.60938-2.5781-2.9062-3.4688-6.1406-6.75-9-10.312-2.2969-2.8594-2.1094-5.8594 0.09375-7.9688 2.1562-2.1094 5.1094-2.1094 7.9688 0.23438 1.5469 1.2656 2.8594 2.7656 4.2188 4.2656 1.5938 1.7812 3.0469 3.6094 4.5469 5.4375 5.5312-4.2656 5.5781-4.5938 1.7344-9.75-1.3594-1.8281-2.7656-3.6562-4.1719-5.4375-2.1562-2.6719-4.5-5.2031-6.4688-7.9688-1.8281-2.5781-1.4062-5.3438 0.60938-7.2656 1.9688-1.875 4.8281-2.2031 7.3125-0.32812 1.9219 1.5 3.7031 3.2812 5.2969 5.1562 2.8125 3.375 5.3906 6.9375 8.25 10.688 0.75-1.3125 1.4531-2.4375 1.9219-3.2344zm66.656-24.047c-12.891-3.7031-25.594-7.2188-37.219-13.453-1.4062 2.2031-2.5781 4.4062-4.0781 6.3281-3.7969 4.8281-5.9062 10.312-6.8438 16.359-0.98438 6.0938-1.6875 12.422-5.2969 17.625-5.4844 7.8281-11.391 15.422-17.156 23.109-2.0625 2.7188-4.4062 5.2969-6.0938 8.2031-3.2812 5.5781-3.6562 11.766-3.4219 19.125 17.484-17.906 38.953-20.344 61.453-19.125-0.51562-3.7031-1.2188-7.0781-1.4531-10.453-0.14062-2.3906-0.51562-4.0781-3.1875-4.7812-1.2656-0.32812-2.3906-1.5469-3.4219-2.4844-4.0781-3.7031-8.1562-7.4531-12.234-11.156-3.5156-3.2344-4.2188-6.1875-2.1562-8.9062s5.5781-2.8125 9.4219-0.1875c1.0781 0.75 2.1094 1.6406 3.0469 2.5312 2.6719 2.5781 5.25 5.2031 7.9219 7.7812 0.46875 0.46875 1.125 0.84375 1.4531 1.0781 4.0312-5.1094 2.4844-9.4219-1.3594-13.547-3.7969-4.125-7.5469-8.2969-11.297-12.469-2.25-2.4375-2.625-5.25-1.0781-7.5 1.6406-2.3906 4.6406-3.2812 7.5938-1.5469 2.5781 1.5 4.9219 3.5625 6.9375 5.7656 3 3.2344 5.625 6.8438 8.5781 10.453 3.3281-4.2188 6.5156-8.3438 9.8906-12.75zm31.031 97.734c-7.9688-7.5469-13.078-15.141-16.641-23.766-0.28125-0.65625-1.5-1.3125-2.25-1.2656-0.5625 0-1.5 1.0312-1.6406 1.7344-0.46875 2.625-0.60938 5.2969-0.98438 7.9219-0.32812 2.3906-1.6875 4.0312-4.125 4.5-2.5312 0.46875-4.7344-0.42188-5.625-2.8125-0.79688-2.1562-0.98438-4.5938-1.1719-6.8906-0.14062-1.6406 0.28125-3.3281 0.42188-5.1562-2.625-0.1875-4.9219-0.28125-7.1719-0.51562-1.5938-0.1875-2.4844 0.32812-3 1.8281-0.98438 2.7656-2.0156 5.5312-3.1875 8.2031-0.9375 2.2031-2.8594 3.75-5.1562 3.2812-1.8281-0.375-3.8906-1.6875-4.875-3.1875-0.79688-1.2656-0.375-3.4688-0.14062-5.2031 0.23438-1.7812 0.9375-3.5156 1.4531-5.3438-19.969-2.25-43.688 5.7188-51.562 17.25 1.875 0.84375 3.8438 1.6406 5.6719 2.625 9.8438 5.25 20.297 7.6875 31.5 7.6406 3.7031 0 7.5938 0.84375 11.156 2.0156 13.266 4.3594 26.719 7.3594 40.828 6.3281 3.1406-0.23438 6.2344-0.51562 8.8125-2.7188 2.5312-2.2969 5.1094-4.3594 7.6875-6.4688zm-1.4062-83.016c5.5312-0.23438 10.781-1.3125 15.703-3.8438 1.3125-0.70312 2.7656-1.3125 4.2188-1.6406 3.2344-0.70312 5.9062 0.79688 6.8906 3.6094 1.0312 2.8125-0.046875 5.6719-3.0469 7.1719-3.1406 1.5469-6.375 2.9531-9.7031 4.0312-3.1875 1.0312-6.5625 1.5-9.9375 2.25 0.5625 2.7656 1.125 5.4844 1.6875 8.2969 4.5-2.1562 8.8125-4.3594 13.266-6.1875 2.2969-0.9375 4.9688-1.6406 7.4062-1.4062 1.5938 0.14062 3.4688 1.8281 4.4062 3.3281 1.1719 1.875 0.42188 4.125-1.3125 5.6719-1.0781 0.9375-2.2969 1.6875-3.5625 2.2969-7.0781 3.3281-14.203 6.6094-21.328 9.8906-0.23438 0.14062-0.51562 0.28125-0.65625 0.51562-1.6406 3.3281-3.2344 6.7031-5.0156 10.5 16.875-2.4375 33.047-6.6562 49.031-11.062-0.23438-3.5156-0.28125-7.125-0.70312-10.688-0.51562-4.125-0.98438-8.3438-2.2031-12.328-3.375-11.156-11.391-19.078-19.219-27.188-2.7188-2.8125-5.9062-3.6562-9.6094-2.7656-7.4531 1.7812-14.906 3.6094-22.406 5.4375-0.14062 0.046875-0.23438 0.28125-0.42188 0.5625 2.1094 4.3125 4.2656 8.7656 6.5156 13.547zm-25.266 44.859c-0.28125-1.1719-0.65625-2.0625-0.75-2.9531-0.5625-6.6094-1.4531-13.172-1.3594-19.781 0.046875-4.0312 3.3281-6.0938 6.8438-5.5312 3.375 0.51562 4.8281 3.375 4.7344 7.5469-0.14062 5.2031 0.32812 10.453 0.5625 15.703 6.7969-5.7188 8.9531-12.891 8.1094-20.719-1.0781-9.6562-5.3438-18.328-9.7031-27.328-1.4531 1.125-2.9531 1.8281-3.9375 3-6 7.2656-11.766 14.719-15.094 23.719-2.9531 7.9688-2.9531 15.984-0.23438 24.047 0.1875 0.60938 0.79688 1.4531 1.3125 1.5 3.0469 0.375 6.1875 0.5625 9.5156 0.79688z" fill="#fff" fill-rule="evenodd"/>
</svg>
