<?xml version="1.0" encoding="UTF-8"?>
<svg width="1200pt" height="1200pt" version="1.1" viewBox="0 0 1200 1200" xmlns="http://www.w3.org/2000/svg">
 <path d="m556.8 547.2 1.1992-1.1992v-2.3984c0-1.1992 0-3.6016-1.1992-6v-4.8008-1.1992c0-1.1992 0-2.3984-1.1992-4.8008l1.1992-1.1992c0-1.1992 1.1992-1.1992 0-2.3984-1.1992-2.3984-1.1992-4.8008-1.1992-8.3984 0-3.6016 0-8.3984-2.3984-12 1.1992-2.3984 0-4.8008 0-6v-1.1992-3.6016c0-1.1992 0-3.6016-1.1992-4.8008 0 0 0-1.1992-1.1992-1.1992 0-3.6016 0-6-1.1992-7.1992 0 0 0-1.1992-1.1992-1.1992 0-1.1992-1.1992-2.3984-2.3984-3.6016v-1.1992c1.1992 0 1.1992-1.1992 1.1992-2.3984v-4.8008-1.1992c0-1.1992 0-2.3984-1.1992-3.6016-1.1992-3.6016-1.1992-8.3984-3.6016-10.801l1.1992-1.1992c0-1.1992 0-2.3984-1.1992-2.3984v-2.3984c0-2.3984 0-4.8008-1.1992-8.3984 0 0 0-1.1992-1.1992-1.1992 0-1.1992-1.1992-1.1992-1.1992-2.3984 0 0 0-1.1992-1.1992-1.1992 0-1.1992-1.1992-2.3984-1.1992-3.6016 0-2.3984-1.1992-3.6016-1.1992-4.8008 0-1.1992-1.1992-1.1992-1.1992-1.1992v-1.1992l-1.1992-1.1992c-1.1992-1.1992-2.3984-1.1992-2.3984-2.3984 0-1.1992-1.1992-2.3984-2.3984-2.3984s-1.1992 0-2.3984-1.1992c0 0-1.1992 0-1.1992-1.1992l-1.1992-1.1992h-1.1992-1.1992s-1.1992-1.1992-1.1992-1.1992h-1.1992c-1.1992-1.1992-3.6016-2.3984-6-2.3984l-3.6211 1.1797h-2.3984-2.3984c-1.1992 0-2.3984-1.1992-3.6016-1.1992-1.1992-1.1992-3.6016-1.1992-4.8008-2.3984-1.1992 0-3.6016 0-4.8008-1.1992h-1.1992s-1.1992-1.1992-2.3984-1.1992h-1.1992s-1.1992 0-1.1992 1.1992c-1.1992-1.1992-2.3984-1.1992-4.8008-1.1992-4.8008 0-12-1.1992-18-2.3984-1.1992 0-1.1992-1.1992-3.6016-1.1992h-1.1992-1.1992-1.1992-4.8008-7.1992-2.3984v-1.1992c0-1.1992-1.1992-1.1992-2.3984-1.1992h-1.1992c-2.3984 0-4.8008-1.1992-7.1992-1.1992 0-1.1992-1.1992-1.1992-3.6016-1.1992h-1.1992c-1.1992-1.1992-2.3984-2.3984-2.3984-2.3984h-14.398-10.801c-2.3984 0-3.6016 0-4.8008-1.1992-2.3984 0-3.6016-1.1992-6-1.1992h-6-8.3984c-2.3984-1.1992-9.6016-1.1992-14.398-1.1992 0 0-1.1992-1.1992-2.3984-1.1992h-2.3984-1.1992-1.1992-2.3984-1.1992-1.1992-1.1992-2.3984c-7.1992 0-15.602 0-25.199 1.1992-1.1992 0-1.1992 0-2.3984 1.1992-1.1992 0-2.3984-1.1992-4.8008-1.1992h-1.1992-2.3984c-1.1992 0-1.1992 0-2.3984 1.1992h-7.1992-9.6016c-7.1992 0-14.398 1.1992-21.602 1.1992-3.6016 0-7.1992 1.1992-10.801 1.1992h-3.6016c-1.1992 0-2.3984 0-3.6016 1.1992-1.1992 0-2.3984 0-3.6016 1.1992h-6-1.1992-2.3984c-1.1992 0-1.1992 0-1.1992 1.1992h-3.6016c-1.1992 0-3.6016 1.1992-4.8008 1.1992h-1.1992-2.3984s-1.1992 0-1.1992 1.1992c-1.1992 0-1.1992 0-2.3984 1.1992h-1.1992c-1.1992 0-2.3984 1.1992-3.6016 1.1992-2.3984 0-3.6016 0-6 1.1992-1.1992 0-1.1992 1.1992-2.3984 2.3984h-1.1992s-1.1992 0-2.3984 1.1992c-3.6016 2.3984-7.1992 4.8008-9.6016 8.3984-1.1992 1.1992-1.1992 1.1992-1.1992 2.3984-1.1992 0-2.3984 0-2.3984 1.1992l-4.8008 4.8008c-1.1992 1.1992-1.1992 1.1992-2.3984 2.3984-1.1992 1.1992-2.3984 2.3984-3.6016 3.6016l-2.3984 2.3984v1.1992s-1.1992 1.1992-1.1992 2.3984v2.3984c-1.1992 0-1.1992 1.1992-2.3984 1.1992v2.3984 1.1992s-1.1992 0-1.1992 1.1992c-1.1992 1.1992-1.1992 2.3984-1.1992 3.6016-1.1992 2.3984-1.1992 6-2.3984 10.801 0 2.3984 0 4.8008-1.1992 6l-1.1992 3.6016c-1.1992 3.6016-1.1992 6-1.1992 9.6016l-1.1992 1.1992v1.1992c0 2.3984 1.1992 4.8008 1.1992 6 0 0-1.1992 1.1992-1.1992 3.6016 0 1.1992 0 1.1992 1.1992 1.1992 0 0 0 1.1992-1.1992 2.3984v6 2.3984 2.3984c0 1.1992 0 1.1992 1.1992 2.3984v1.1992c0 1.1992-1.1992 1.1992-1.1992 3.6016l1.1602 19.211v4.8008c0 4.8008-1.1992 9.6016 0 15.602v1.1992 2.3984s0 1.1992 1.1992 1.1992v1.1992 1.1992c-1.1992 0-2.3984 1.1992-1.1992 3.6016 0 0 0 1.1992 1.1992 1.1992v6 1.1992 1.1992 2.3984 1.1992 1.1992 1.1992 6 3.6016 1.1992 9.6016 3.6016 6 9.6016 1.1992 2.3984 1.1992 1.1992 2.3984c0 1.1992-1.1992 2.3984 0 2.3984 0 0 0 1.1992 1.1992 1.1992v1.1992c-1.1992 1.1992 0 2.3984 0 3.6016v1.1992c0 6 0 13.199 1.1992 20.398 0 0 0 1.1992-1.1992 1.1992 0 1.1992 0 2.3984 1.1992 2.3984v1.1992 2.3984 1.1992 1.1992c0 2.3984 0 4.8008 1.1992 7.1992 0 1.1992 1.1992 2.3984 1.1992 3.6016v1.1992 1.1992c0 1.1992 0 3.6016 1.1992 7.1992 0 1.1992 0 2.3984 1.1992 3.6016 0 1.1992 1.1992 3.6016 1.1992 6 0 3.6016 1.1992 7.1992 1.1992 10.801v2.3984 3.6016c0 3.6016 1.1992 6 0 9.6016 0 1.1992 0 1.1992 1.1992 2.3984 1.1992 1.1992 1.1992 2.3984 1.1992 3.6016v1.1992 1.1992 1.1992 2.3984h1.1992s0 1.1992 1.1992 2.3984v2.3984c0 1.1992 0 2.3984 1.1992 3.6016 0 0 0 1.1992 1.1992 2.3984v1.1992s0 1.1992 1.1992 1.1992c0 3.6016 1.1992 7.1992 1.1992 10.801 0 1.1992 0 2.3984 1.1992 2.3984 0 0 0 1.1992 1.1992 3.6016 0 1.1992 1.1992 3.6016 1.1992 3.6016v1.1992 1.1992 3.6016 1.1992 2.3984c0 2.3984 0 6 1.1992 8.3984 0 1.1992 0 2.3984 1.1992 3.6016v1.1992 2.3984l1.1992 3.6016c0 1.1992 1.1992 3.6016 1.1992 4.8008v2.3984 3.6016c0 1.1992 1.1992 1.1992 2.3984 2.3984v1.1992c0 1.1992 0 2.3984 1.1992 3.6016 0 0 0 1.1992 1.1992 1.1992 0 3.6016 1.1992 4.8008 1.1992 4.8008v1.1992c1.1992 2.3984 1.1992 3.6016 1.1992 3.6016v2.3984c0 1.1992 0 1.1992 1.1992 2.3984 0 0 0 1.1992 1.1992 1.1992v1.1992 2.3984 1.1992c0 1.1992 0 2.3984 1.1992 2.3984 0 1.1992 1.1992 1.1992 1.1992 2.3984v2.3984c0 1.1992 1.1992 1.1992 1.1992 2.3984v2.3984c0 2.3984 1.1992 6 3.6016 8.3984 1.1992 1.1992 1.1992 2.3984 2.3984 4.8008 0 1.1992 1.1992 2.3984 1.1992 3.6016 0 1.1992 0 1.1992 1.1992 2.3984 0 1.1992 1.1992 1.1992 1.1992 1.1992 0 1.1992 0 2.3984 1.1992 2.3984 0 1.1992 1.1992 2.3984 2.3984 2.3984 0 1.1992 1.1992 2.3984 2.3984 2.3984 0 1.1992 0 4.8008 2.3984 6v1.1992s0 1.1992 1.1992 1.1992l4.7969 4.7969s0 1.1992 1.1992 1.1992c0 0 0 1.1992 1.1992 1.1992v1.1992c1.1992 1.1992 1.1992 1.1992 2.3984 1.1992l1.1992 1.1992h1.1992s0 1.1992 1.1992 1.1992c0 0 1.1992 1.1992 2.3984 1.1992 0 1.1992 1.1992 2.3984 2.3984 3.6016 1.1992 1.1992 2.3984 1.1992 2.3984 1.1992l3.5977 3.5977c1.1992 0 1.1992 1.1992 1.1992 1.1992 0 2.3984 2.3984 2.3984 3.6016 2.3984h1.1992s1.1992 1.1992 1.1992 1.1992c1.1992 0 1.1992 1.1992 2.3984 1.1992 2.3984 1.1992 3.6016 2.3984 3.6016 4.8008 0 1.1992 1.1992 1.1992 1.1992 1.1992 1.1992 0 2.3984 1.1992 3.6016 2.3984 1.1992 0 1.1992 1.1992 2.3984 1.1992 1.1992 1.1992 3.6016 2.3984 4.8008 2.3984h1.1992c0 1.1992 1.1992 1.1992 1.1992 2.3984h2.3984s0 1.1992 1.1992 1.1992c1.1992 1.1992 2.3984 1.1992 4.8008 1.1992 0 1.1992 1.1992 3.6016 3.6016 3.6016 1.1992 0 2.3984 1.1992 3.6016 1.1992 1.1992 0 1.1992 1.1992 2.3984 1.1992 0 1.1992 1.1992 1.1992 2.3984 1.1992h1.1992 1.1992c1.1992 1.1992 4.8008 3.6016 7.1992 3.6016 0 0 1.1992 0 1.1992 1.1992 0 0 1.1992 0 1.1992 1.1992h1.1992 1.1992 1.1992c1.1992 1.1992 2.3984 2.3984 3.6016 2.3984 4.8008 1.1992 7.1992 2.3984 9.6016 4.8008 0 0 1.1992 0 1.1992 1.1992l6 1.1992c6 1.1992 12 2.3984 19.199 3.6016 2.3984 0 4.8008 0 6 1.1992 0 1.1992 1.1992 1.1992 2.3984 1.1992h1.1992c2.3984-1.1992 6-1.1992 9.6016-1.1992h3.6016c3.6016 0 6 0 8.3984-1.1992 1.1992 0 2.3984-1.1992 2.3984-1.1992h1.1992c3.6016 1.1992 6 1.1992 9.6016 0h1.1992 1.1992 1.1992 1.1992c1.1992 0 3.6016-1.1992 4.8008-1.1992h2.3984c1.1992 0 2.3984 0 3.6016-1.1992 1.1992 0 1.1992-1.1992 2.3984-1.1992h1.1992c2.3984-1.1992 3.6016-1.1992 6-1.1992 1.1992 0 2.3984-1.1992 2.3984-2.3984s1.1992-1.1992 2.3984-3.6016l1.1992-1.1992c1.1992-1.1992 2.3984-2.3984 2.3984-3.6016v-3.6016c1.1992-1.1992 1.1992-1.1992 1.1992-2.3984 0 0 0-4.8008-1.1992-8.3984 0 0 0-1.1992-1.1992-1.1992 0-1.1992-1.1992-2.3984-2.3984-2.3984l-2.3984-2.3984c0-1.1992-1.1992-1.1992-2.3984-2.3984 0 0-1.1992 0-1.1992-1.1992 0-1.1992 0-2.3984-1.1992-2.3984 0-1.1992 0-1.1992-1.1992-2.3984 0-1.1992 0-2.3984-1.1992-2.3984l-1.1992-1.1992c-1.1992 0-2.3984-1.1992-2.3984-2.3984 0 0 0-1.1992-1.1992-1.1992 0-1.1992 0-1.1992-1.1992-2.3984l-1.1992-1.1992c0-1.1992-2.3984-3.6016-4.8008-6 2.4609-1.1523 1.2578-1.1523 1.2578-1.1523l-2.3984-2.3984c-1.1992-1.1992-1.1992-1.1992-2.3984-2.3984 0 0-1.1992-1.1992-1.1992-1.1992 0-1.1992 0-2.3984-1.1992-2.3984 0 0-1.1992-1.1992-2.3984-1.1992 0-1.1992 0-1.1992-1.1992-2.3984 0 0 0-1.1992-1.1992-1.1992 0 0 0-1.1992-1.1992-1.1992-1.1992-1.1992-1.1992-2.3984-1.1992-3.6016l-1.1992-2.3984c0-1.1992 0-1.1992-1.1992-2.3984 0 0 0-1.1992-1.1992-1.1992 0-1.1992-1.1992-2.3984-1.1992-4.8008 0-1.1992 0-2.3984-1.1992-3.6016 0 0 0-1.1992-1.1992-1.1992v-1.1992-1.1992-2.3984c0-1.1992 0-1.1992-1.1992-1.1992v-3.6016c0-1.1992-1.1992-1.1992-1.1992-2.3984v-2.3984-3.6016s0-1.1992-1.1992-1.1992v-2.3984-1.1992s0-1.1992 1.1992-1.1992v-2.3984-2.3984c0-1.1992 0-3.6016-1.1992-4.8008 0-1.1992-1.1992-2.3984-1.1992-2.3984v-2.3984c0-1.1992 1.1992-2.3984 1.1992-3.6016 0-1.1992 0-2.3984-1.1992-3.6016 0 0 0-1.1992 1.1992-1.1992v-2.3984l1.1992-1.1992v-3.6016-1.1992-1.1992c0-1.1992 0-1.1992 1.1992-2.3984v-1.1992-2.3984-2.3984-4.8008c1.1992-1.1992 1.1992-2.3984 1.1992-2.3984v-1.1992-4.8008c1.1992-1.1992 1.1992-3.6016 2.3984-6 0-1.1992 1.1992-2.3984 1.1992-3.6016l1.1992-1.1992s0-1.1992 1.1992-1.1992c0 0 1.1992-1.1992 2.3984-2.3984h3.6016c14.398 0 28.801 1.1992 45.602 1.1992h3.6016 2.3984 1.1992 2.3984c3.6016 0 9.6016 1.1992 12 0 1.1992 1.1992 4.8008 2.3984 7.1992 1.1992h1.1992 1.1992c1.1992 0 2.3984 0 3.6016 1.1992 1.1992 0 3.6016 1.1992 6 1.1992 2.3984 0 6 0 8.3984 1.1992 7.1992 1.1992 15.602 1.1992 21.602 0h2.3984 2.3984s1.1992 0 1.1992-1.1992c1.1992 0 1.1992-1.1992 2.3984-1.1992h1.1992 1.1992 1.1992c1.1992 0 3.6016-1.1992 4.8008-1.1992 0 0 1.1992 0 1.1992-1.1992 1.1992 0 1.1992-1.1992 2.3984-1.1992h2.3984c1.1992 0 1.1992-1.1992 1.1992-2.3984h2.3984c1.1992 0 1.1992-1.1992 1.1992-2.3984 0 0 1.1992-1.1992 1.1992-2.3984 0-1.1992 0-1.1992 1.1992-1.1992 0 0 0-1.1992 1.1992-1.1992 0-1.1992 1.1992-1.1992 1.1992-2.3984v-1.1992c1.1992 0 1.1992-1.1992 1.1992-2.3984v-1.1992l1.1992-1.1992v-2.3984-1.1992c1.1992 0 1.1992-1.1992 1.1992-2.3984v-1.1992-2.3984-2.3984-2.3984c1.1992-3.6016 1.1992-8.3984 1.1992-13.199v-1.1992-2.3984-1.1992-1.1992-1.1992c0-1.1992 1.1992-3.6016 1.1992-6v-4.8008-6-7.1992-1.1992-2.3984-1.1992-1.1992-2.3984c0-1.1992 1.1992-3.6016 1.1992-6v-6-4.8008c0-1.1992 0-2.3984 1.1992-3.6016 0-1.1992 1.1992-2.3984 1.1992-3.6016v-2.3984-1.1992-1.1992-2.3984c0-4.8008 1.1992-9.6016 1.1992-13.199 0-3.6016 1.1992-7.1992 1.1992-10.801 0 0 1.1992-1.1992 1.1992-2.3984v-3.6016c1.1992-1.1992 1.1992-2.3984 1.1992-3.6016 0-1.1992 0-2.3984-1.1992-3.6016v-1.1992c0-1.1992 0-1.1992 1.1992-2.3984v-9.6016-2.3984s0-1.1992 1.1992-1.1992v-7.1992-8.3984-1.1992s0-1.1992 1.1992-2.3984v-1.1992-1.1992c0-1.1992 1.1992-2.3984 0-3.6016 0-1.1992 0-2.3984-1.1992-2.3984 1.1992-1.1992 1.1992-2.3984 1.1992-2.3984s0-1.1992-1.1992-1.1992v-2.3984-1.1992-4.8008zm-49.199 27.602v2.3984 3.6016c-1.1992 1.1992-1.1992 3.6016-1.1992 4.8008v1.1992c-1.1992 1.1992-1.1992 2.3984 0 4.8008v2.3984c0 1.1992-1.1992 2.3984 0 3.6016v1.1992 6c0 2.3984-1.1992 4.8008 0 6v1.1992 1.1992c-2.4023-1.1992-2.4023 0-2.4023 1.1992v4.8008 3.6016 2.3984 1.1992 2.3984 1.1992l-1.1992 1.1992v4.8008 4.8008s-1.1992 1.1992-1.1992 2.3984v2.3984c-1.1992 7.1992-2.3984 16.801-2.3984 26.398 0 6-1.1992 10.801-1.1992 15.602v8.3984 4.8008 1.1992 2.3984 7.1992c0 3.6016 0 7.1992-1.1992 10.801-1.1992 0-3.6016 0-4.8008-1.1992-2.3984 0-6-1.1992-8.3984-1.1992h-8.3984-8.3984-4.8008-1.1992c-4.8008 1.1992-12 0-18 0h-4.8008s-1.1992-1.1992-2.3984-1.1992-1.1992 0-2.3984 1.1992c0 0-1.1992-1.1992-2.3984-1.1992h-1.1992-1.1992-14.398-15.602-9.6016c-6 0-10.801 0-13.199 1.1992-1.1992 0-2.3984 0-3.6016 1.1992h-1.1992-3.6016-1.1992c-1.1992 0-1.1992 0-2.3984 1.1992s-2.3984 2.3984-4.8008 2.3984c-1.1992 0-2.3984 1.1992-3.6016 2.3984l-3.5977 3.5977c-1.1992 0-1.1992 0-2.3984 1.1992-1.1992 0-1.1992 1.1992-1.1992 1.1992v1.1992s-1.1992 0-2.3984 1.1992c-1.1992 0-1.1992 1.1992-1.1992 1.1992s-1.1992 0-1.1992 1.1992c0 0-1.1992 1.1992-1.1992 2.3984v1.1992s-1.1992 1.1992-1.1992 2.3984c0 0-1.1992 0-1.1992 1.1992-3.6211-2.375-3.6211-1.1758-3.6211-1.1758v1.1992c-1.1992 2.3984-2.3984 3.6016-2.3984 6 0 1.1992 0 1.1992-1.1992 2.3984v1.1992c0 1.1992-1.1992 2.3984-1.1992 3.6016v2.3984 1.1992s0 1.1992-1.1992 1.1992c0 0-1.1992 1.1992-1.1992 1.1992 0 1.1992-1.1992 3.6016-1.1992 4.8008v2.3984 1.1992 2.3984l-1.1992 1.1992v3.6016 1.1992 2.3984l-1.1992 1.1992c0 1.1992 0 2.3984 1.1992 3.6016 0 1.1992-1.1992 3.6016-1.1992 4.8008 0 1.1992-1.1992 3.6016-1.1992 4.8008v3.6016 4.8008s-1.1992 1.1992-1.1992 2.3984v2.3984 1.1992 2.3984 1.1992 1.1992 1.1992 2.3984 1.1992 3.6016c0 4.8008 0 8.3984 1.1992 10.801v1.1992 1.1992s0 1.1992 1.1992 2.3984c0 1.1992 1.1992 2.3984 1.1992 4.8008v1.1992c0 1.1992 0 2.3984 1.1992 3.6016 1.1992 3.6016 1.1992 7.1992 3.6016 9.6016 0 2.3984 0 4.8008 1.1992 6 0 1.1992 0 2.3984 1.1992 2.3984 0 1.1992 1.1992 2.3984 1.1992 3.6016 1.1992 2.3984 2.3984 4.8008 2.3984 6v1.1992 2.3984 1.1992c1.1992 1.1992 1.1992 3.6016 2.3984 3.6016v2.3984c0 1.1992 1.1992 1.1992 2.3984 2.3984v0c0 1.1992 1.1992 2.3984 1.1992 2.3984 0 1.1992 1.1992 1.1992 1.1992 2.3984 0 1.1992 0 1.1992 1.1992 2.3984 0 1.1992 1.1992 1.1992 2.3984 2.3984 1.1992 1.1992 2.3984 2.3984 3.6016 2.3984v1.1992h-2.3984-1.1992-2.3984c-1.1992 0-1.1992 0-2.3984-1.1992 0 0-1.1992-1.1992-2.3984-1.1992h-1.1992l-1.1992-1.1992c-1.1992 0-1.1992 0-2.3984-1.1992-1.1992 0-1.1992-1.1992-1.1992-1.1992-1.1992 0-1.1992-1.1992-2.3984-1.1992-1.1992 0-2.3984-1.1992-3.6016-1.1992-1.1992 0-1.1992 0-2.3984-1.1992 0 0-1.1992-1.1992-1.1992-1.1992-1.1992 0-1.1992 0-2.3984-1.1992h-1.1992c-3.6016-1.1992-6-3.6016-8.3984-4.8008-1.1992-1.1992-2.3984-1.1992-4.8008-2.3984-2.3984-1.1992-3.6016-2.3984-4.8008-3.6016 0-1.1992-1.1992-1.1992-2.3984-1.1992h-1.1992s-1.1992 0-1.1992-1.1992c-1.1992 0-1.1992 0-2.3984-1.1992l-3.5977-3.5977c-1.1992 0-1.1992-1.1992-2.3984-1.1992s-1.1992-1.1992-2.3984-1.1992l-3.5977-3.5977c-1.1992-1.1992-2.3984-1.1992-3.6016-2.3984-1.1992-1.1992-3.6016-2.3984-3.6016-3.6016l-2.3984-2.3984c-2.3984-2.3984-3.6016-3.6016-3.6016-6-1.1992-1.1992-2.3984-2.3984-3.6016-3.6016-1.1992 0-1.1992-1.1992-1.1992-1.1992v-1.1992c0-1.1992-1.1992-2.3984-1.1992-2.3984v-1.1992c0-1.1992-1.1992-2.3984-1.1992-2.3984v-1.1992-1.1992c0-1.1992-1.1992-1.1992-1.1992-1.1992s0-1.1992-1.1992-2.3984c0-1.1992 0-1.1992-1.1992-2.3984 0-1.1992-1.1992-1.1992-1.1992-1.1992v-1.1992c0-1.1992 0-1.1992-1.1992-2.3984v-1.1992-1.1992c0-1.1992 0-1.1992-1.1992-1.1992v-1.1992l-2.3984-7.1992c0-1.1992 0-1.1992-1.1992-1.1992v-1.1992-1.1992s0-1.1992-1.1992-2.3984c0-1.1992-1.1992-2.3984-1.1992-2.3984s0-1.1992-1.1992-2.3984v-2.3984c0-2.3984-1.1992-3.6016-1.1992-4.8008v-1.1992-1.1992-1.1992-2.3984c0-1.1992-1.1992-2.3984-1.1992-3.6016v-1.1992-1.1992c-1.1992-3.6016-1.1992-4.8008-2.3984-6v-1.1992-1.1992c0-1.1992 0-2.3984-1.1992-3.6016 0-1.1992 0-2.3984-1.1992-2.3984 0-3.6016-1.1992-6-1.1992-9.6016-1.1992-3.6016-1.1992-8.3984-2.3984-12-1.1992-6-2.3984-9.6016-3.6016-14.398v-1.1992c0-1.1992-1.1992-3.6016-1.1992-4.8008 0-1.1992 0-2.3984-1.1992-2.3984-1.1992-2.3984-1.1992-6-1.1992-8.3984 0-2.3984-1.1992-4.8008-1.1992-7.1992 0-1.1992-1.1992-2.3984-1.1992-2.3984 0-1.1992 1.1992-1.1992 0-3.6016 0-1.1992-1.1992-2.3984-1.1992-3.6016v-1.1992-2.3984-3.6016-2.3984-1.1992-3.6016s0-1.1992-1.1992-1.1992c0-2.3984-1.1992-4.8008-1.1992-8.3984 0-2.3984 0-4.8008-1.1992-7.1992 0-1.1992-1.1992-2.3984-1.1992-2.3984v-1.1992-2.3984c0-2.3984 0-3.6016-1.1992-4.8008 0-1.1992 0-2.3984-1.1992-4.8008 0-1.1992 1.1992-1.1992 1.1992-2.3984v-1.1992-2.3984-2.3984s1.1992-1.1992 0-2.3984c0 0 0-1.1992-1.1992-1.1992v-12-10.801-1.1992-3.6016-1.1992-2.3984-2.3984-3.6016-1.1992-1.1992-1.1992-6c0-6 1.1992-13.199 0-16.801v-1.1992-1.1992-1.1992c0-1.1992 1.1992-1.1992 0-3.6016 0-1.1992-1.1992-2.3984-1.1992-4.8008v-1.1992s0-1.1992 1.1992-1.1992v-3.6016-2.3984-14.398-20.398l1.1992-12c0-6 1.1992-10.801 1.1992-16.801v-9.6016-3.6016-1.1992c0-1.1992 1.1992-1.1992 1.1992-3.6016v-2.3984-1.1992l1.1992-3.6016v-2.3984-1.1992c0-1.1992 0-1.1992 1.1992-2.3984 0-1.1992 1.1992-2.3984 1.1992-3.6016v-6-4.8008c1.1992-1.1992 1.1992-2.3984 1.1992-2.3984s1.1992-1.1992 1.1992-1.1992c1.1992-2.3984 3.6016-3.6016 3.6016-4.8008 1.1992 0 1.1992 0 2.3984-1.1992 1.1992-1.1992 1.1992-1.1992 2.3984-2.3984 1.1992-1.1992 4.8008-1.1992 7.1992-1.1992h3.6016 3.6016 2.3984 2.3984c2.3984 0 3.6016 0 4.8008-1.1992h4.8008 3.6016c6-1.1992 12-1.1992 18-1.1992h12 7.1992c3.6016 0 8.3984 0 12-1.1992 8.3984-1.1992 14.398-1.1992 24 0 4.8008 0 9.6016 1.1992 14.398 1.1992 1.1992 0 2.3984 0 2.3984-1.1992 2.3984 0 4.8008 1.1992 8.3984 1.1992h4.8008 2.3984 2.3984l1.1992 1.1992h1.1992 2.3984 1.1992c2.3984 1.1992 6 0 8.3984 0h1.1992 2.3984 1.1992c1.1992 1.1992 2.3984 1.1992 2.3984 0h7.1992 2.3984 4.8008c2.3984 0 4.8008 1.1992 7.1992 0h1.1992c1.1992 0 3.6016 0 4.8008-1.1992 1.1992 0 1.1992-1.1992 1.1992-1.1992h1.1992 2.3984 1.1992 1.1992c1.1992 1.1992 2.3984 1.1992 2.3984 1.1992h2.3984c1.1992 0 1.1992 0 2.3984-1.1992 2.3984 0 4.8008 0 6 1.1992 1.1992 0 3.6016 0 4.8008 1.1992 3.6016 0 4.8008 1.1992 6 1.1992h4.8008l1.1992 1.1992c12 2.3984 21.602 4.8008 27.602 8.3984 1.1992 2.3984 1.1992 6 2.3984 8.3984 0 2.3984 0 4.8008 1.1992 6 0 2.3984 1.1992 3.6016 2.3984 4.8008 1.1992 1.1992 1.1992 2.3984 1.1992 4.8008 0 1.1992 0 3.6016 1.1992 4.8008 0 2.3984 0 4.8008 1.1992 6 0 2.3984 1.1992 3.6016 2.3984 3.6016 3.6016 15.602 4.8008 30 6 43.199v2.3984 1.1992c-1.1992 1.1992 0 2.3984 0 3.6016v2.3984s0 1.1992 1.1992 2.3984v1.1992 2.3984 1.1992 1.1992 1.1992 1.1992 2.3984 7.1992 1.1992c0 1.1992 0 2.3984 1.1992 3.6016v7.1992l-1.1992 1.1992c-6.0078 1.168-6.0078 1.168-4.8047 2.3672z" fill="#4d4b66"/>
 <path d="m1056 572.4s0-1.1992 1.1992-2.3984v-1.1992-1.1992c0-1.1992 1.1992-2.3984 0-3.6016 0-1.1992 0-2.3984-1.1992-2.3984 1.1992-1.1992 1.1992-2.3984 1.1992-2.3984s0-1.1992-1.1992-1.1992v-2.3984-1.1992-4.8008l1.1992-1.1992v-2.3984c0-1.1992 0-3.6016-1.1992-6v-4.8008-1.1992c0-1.1992 0-2.3984-1.1992-3.6016l1.1992-1.1992c0-1.1992 1.1992-1.1992 0-2.3984-1.1992-2.3984-1.1992-4.8008-1.1992-8.3984 0-3.6016 0-8.3984-2.3984-12 1.1992-2.3984 0-4.8008 0-6v-1.1992-2.3984c0-1.1992 0-3.6016-1.1992-4.8008 0 0 0-1.1992-1.1992-1.1992 0-3.6016 0-6-1.1992-7.1992 0 0 0-1.1992-1.1992-1.1992 0-1.1992-1.1992-2.3984-2.3984-3.6016v-1.1992c1.1992 0 1.1992-1.1992 1.1992-2.3984 0-1.1992 0-3.6016-1.1992-4.8008v-1.1992-2.3984c-1.1992-3.6016-1.1992-8.3984-3.6016-10.801l1.1992-1.1992c0-1.1992 0-2.3984-1.1992-2.3984v-2.3984c0-2.3984 0-4.8008-1.1992-8.3984 0 0 0-1.1992-1.1992-1.1992 0-1.1992-1.1992-1.1992-1.1992-2.3984 0 0 0-1.1992-1.1992-1.1992 0-1.1992-1.1992-2.3984-1.1992-3.6016 0-2.3984-1.1992-3.6016-1.1992-4.8008s-1.1992-1.1992-1.1992-1.1992v-1.1992l-1.1992-1.1992c-1.1992-1.1992-2.3984-1.1992-2.3984-2.3984s-1.1992-2.3984-2.3984-2.3984c-1.1992 0-1.1992 0-2.3984-1.1992 0 0-1.1992 0-1.1992-1.1992l-1.1992-1.1992h-1.1992-1.1992l-1.1992-1.1992h-1.1992c-1.1992-1.1992-3.6016-2.3984-6-2.3984l-3.6211-4.832h-2.3984-2.3984c-1.1992 0-2.3984-1.1992-3.6016-1.1992-1.1992-1.1992-3.6016-1.1992-4.8008-2.3984-1.1992 0-3.6016 0-4.8008-1.1992h-1.1992c-1.1992-1.1992-2.3984-1.1992-3.6016-1.1992 0 0-1.1992 0-1.1992 1.1992-1.1992-1.1992-2.3984-1.1992-4.8008-1.1992-4.8008 0-10.801-1.1992-18-2.3984-1.1992 0-1.1992-1.1992-3.6016-1.1992h-1.1992-1.1992-1.1992-4.8008-7.1992-2.3984v-1.1992c0-1.1992-1.1992-1.1992-2.3984-1.1992h-1.1992c-2.3984 0-4.8008-1.1992-7.1992-1.1992 0-1.1992-1.1992-1.1992-3.6016-1.1992h-1.1992c-1.1992-1.1992-2.3984-2.3984-2.3984-2.3984h-14.398-10.801c-2.3984 0-3.6016 0-4.8008-1.1992-2.3984 0-3.6016-1.1992-6-1.1992h-6-8.3984c-2.3984-1.1992-10.801-1.1992-14.398-1.1992 0 0-1.1992-1.1992-2.3984-1.1992h-2.3984-1.1992-1.1992-2.3984-1.1992-1.1992-1.1992-2.3984c-7.1992 0-15.602 0-25.199 1.1992-1.1992 0-1.1992 0-2.3984 1.1992-1.1992 0-2.3984-1.1992-4.8008-1.1992h-1.1992-2.3984c-1.1992 0-1.1992 0-2.3984 1.1992h-7.1992-9.6016c-7.1992 0-14.398 1.1992-21.602 1.1992-3.6016 0-7.1992 1.1992-10.801 1.1992h-3.6016c-1.1992 0-2.3984 0-3.6016 1.1992-1.1992 0-2.3984 0-3.6016 1.1992h-6-1.1992-2.3984c-1.1992 0-1.1992 0-1.1992 1.1992h-3.6016c-1.1992 0-3.6016 1.1992-4.8008 1.1992h-1.1992-2.3984s-1.1992 0-1.1992 1.1992c-1.1992 0-1.1992 0-2.3984 1.1992h-1.1992c-1.1992 0-2.3984 1.1992-3.6016 1.1992-2.3984 0-3.6016 0-6 1.1992-1.1992 0-1.1992 1.1992-2.3984 1.1992h-1.1992s-1.1992 0-2.3984 1.1992c-3.6016 2.3984-7.1992 4.8008-9.6016 8.3984-1.1992 1.1992-1.1992 1.1992-1.1992 2.3984-1.1992 0-2.3984 0-2.3984 1.1992l-6 7.1992c-1.1992 1.1992-2.3984 2.3984-3.6016 3.6016l-1.1992 1.1992c-1.1992 0-1.1992 1.1992-1.1992 1.1992v2.3984s-1.1992 1.1992-1.1992 2.3984v2.3984c-1.1992 0-1.1992 1.1992-2.3984 1.1992v2.3984 1.1992s-1.1992 0-1.1992 1.1992c-1.1992 1.1992-1.1992 2.3984-1.1992 3.6016-1.1992 2.3984-1.1992 6-2.3984 10.801 0 2.3984 0 4.8008-1.1992 7.1992l-1.1992 3.6016c-1.1992 3.6016-1.1992 6-1.1992 9.6016 0 0-1.1992 1.1992-1.1992 2.3984v1.1992c0 2.3984 1.1992 4.8008 1.1992 6 0 0-1.1992 1.1992-1.1992 3.6016 0 1.1992 0 1.1992 1.1992 1.1992 0 0 0 1.1992-1.1992 2.3984v4.8008 2.3984 2.3984c0 1.1992 0 1.1992 1.1992 2.3984v1.1992c0 1.1992-1.1992 1.1992-1.1992 3.6016l-0.035156 18.012v4.8008c0 4.8008-1.1992 9.6016 0 15.602v1.1992 2.3984s0 1.1992 1.1992 1.1992v1.1992 1.1992c-1.1992 0-2.3984 1.1992-1.1992 3.6016 0 0 0 1.1992 1.1992 1.1992v2.3984 3.6016 1.1992 1.1992 2.3984 1.1992 1.1992 1.1992 6 4.8008 1.1992 9.6016 3.6016 4.8008 9.6016 1.1992 2.3984 1.1992 1.1992 2.3984c0 1.1992-1.1992 2.3984 0 2.3984 0 0 0 1.1992 1.1992 1.1992v1.1992c-1.1992 1.1992 0 2.3984 0 3.6016v1.1992c0 6 0 13.199 1.1992 20.398 0 0 0 1.1992-1.1992 1.1992 0 1.1992 0 2.3984 1.1992 3.6016v1.1992 2.3984 1.1992 1.1992c0 2.3984 0 4.8008 1.1992 7.1992 0 1.1992 1.1992 2.3984 1.1992 2.3984v1.1992 1.1992c0 1.1992 0 3.6016 1.1992 7.1992 0 1.1992 0 2.3984 1.1992 3.6016 0 1.1992 1.1992 3.6016 1.1992 6 0 3.6016 1.1992 6 1.1992 9.6016v3.6016 3.6016c0 3.6016 1.1992 6 0 9.6016 0 1.1992 0 2.3984 1.1992 2.3984 1.1992 0 1.1992 2.3984 1.1992 3.6016v1.1992 1.1992 1.1992 2.3984h1.1992s0 1.1992 1.1992 2.3984v2.3984c0 1.1992 0 2.3984 1.1992 3.6016 0 0 0 1.1992 1.1992 2.3984v1.1992s0 1.1992 1.1992 1.1992c0 3.6016 1.1992 7.1992 1.1992 10.801 0 1.1992 0 2.3984 1.1992 3.6016 0 0 0 1.1992 1.1992 3.6016 0 1.1992 1.1992 3.6016 1.1992 4.8008v1.1992 1.1992 3.6016 1.1992 2.3984c0 2.3984 0 6 1.1992 8.3984 0 1.1992 0 2.3984 1.1992 3.6016v1.1992 3.6016l1.1992 3.6016c0 1.1992 1.1992 3.6016 1.1992 4.8008v2.3984 2.3984c0 1.1992 1.1992 1.1992 2.3984 2.3984v1.1992c0 1.1992 0 2.3984 1.1992 3.6016 0 0 0 1.1992 1.1992 1.1992 0 1.1992 0 3.6016 1.1992 4.8008 0 1.1992 1.1992 3.6016 1.1992 3.6016v2.3984c0 1.1992 0 1.1992 1.1992 2.3984 0 0 0 1.1992 1.1992 1.1992l1.1992 2.3984v1.1992c0 1.1992 0 2.3984 1.1992 2.3984 0 1.1992 1.1992 1.1992 1.1992 1.1992v2.3984c0 1.1992 1.1992 1.1992 2.3984 2.3984v2.3984c0 2.3984 1.1992 6 3.6016 8.3984 1.1992 1.1992 1.1992 2.3984 2.3984 4.8008 0 1.1992 1.1992 2.3984 1.1992 3.6016 0 1.1992 0 1.1992 1.1992 2.3984 0 1.1992 1.1992 1.1992 2.3984 1.1992 0 1.1992 0 2.3984 1.1992 2.3984 0 1.1992 1.1992 2.3984 2.3984 2.3984 0 1.1992 1.1992 2.3984 2.3984 2.3984 0 1.1992 0 4.8008 2.3984 6v1.1992l1.1992 1.1992s1.1992 1.1992 1.1992 1.1992l2.3984 2.3984s1.1992 1.1992 1.1992 1.1992 0 1.1992 1.1992 1.1992c0 0 0 1.1992 1.1992 1.1992 1.1992 1.1992 1.1992 1.1992 2.3984 1.1992 0 0 1.1992 1.1992 1.1992 1.1992h1.1992s0 1.1992 1.1992 1.1992c0 0 1.1992 1.1992 2.3984 1.1992 0 1.1992 1.1992 2.3984 2.3984 3.6016 1.1992 1.1992 2.3984 1.1992 2.3984 1.1992l1.1992 1.1992c0 1.1992 1.1992 1.1992 2.3984 2.3984 1.1992 0 1.1992 1.1992 1.1992 1.1992 0 2.3984 2.3984 2.3984 3.6016 2.3984h1.1992l1.1992 1.1992c1.1992 0 1.1992 1.1992 2.3984 1.1992 2.3984 1.1992 3.6016 2.3984 3.6016 4.8008 0 1.1992 1.1992 1.1992 1.1992 1.1992 1.1992 0 2.3984 1.1992 3.6016 2.3984 1.1992 0 1.1992 1.1992 2.3984 1.1992 1.1992 1.1992 3.6016 2.3984 4.8008 2.3984h1.1992c0 1.1992 1.1992 1.1992 1.1992 2.3984h2.3984s0 1.1992 1.1992 1.1992c-2.3398 2.457-1.1406 2.457 1.2578 2.457 0 1.1992 1.1992 3.6016 3.6016 3.6016 1.1992 0 2.3984 1.1992 3.6016 1.1992 1.1992 0 1.1992 1.1992 2.3984 1.1992 0 1.1992 1.1992 1.1992 2.3984 1.1992h1.1992 1.1992c1.1992 1.1992 4.8008 3.6016 7.1992 3.6016 0 0 1.1992 0 1.1992 1.1992 0 0 1.1992 0 1.1992 1.1992h1.1992 1.1992 1.1992c1.1992 1.1992 2.3984 2.3984 3.6016 2.3984 4.8008 1.1992 7.1992 2.3984 9.6016 4.8008 0 0 1.1992 0 1.1992 1.1992l6 1.1992c6 1.1992 12 2.3984 19.199 3.6016 2.3984 0 4.8008 0 6 1.1992 0 1.1992 1.1992 1.1992 2.3984 1.1992h1.1992c2.3984-1.1992 4.8008-1.1992 6-1.1992h3.6016 3.6016c3.6016 0 6 0 8.3984-1.1992 1.1992 0 2.3984-1.1992 2.3984-1.1992h1.1992c3.6016 1.1992 6 1.1992 9.6016 0h1.1992 1.1992 1.1992 1.1992c1.1992 0 3.6016-1.1992 4.8008-1.1992h2.3984c1.1992 0 2.3984 0 3.6016-1.1992 1.1992 0 1.1992-1.1992 2.3984-1.1992h1.1992c2.3984-1.1992 3.6016-1.1992 6-1.1992 1.1992 0 2.3984-1.1992 2.3984-2.3984 0-1.1992 1.1992-2.3984 2.3984-3.6016l1.1992-1.1992c1.1992-1.1992 2.3984-2.3984 2.3984-3.6016v-3.6016c1.1992-1.1992 1.1992-1.1992 1.1992-2.3984 0 0 0-4.8008-1.1992-8.3984 0 0 0-1.1992-1.1992-1.1992 0-1.1992-1.1992-2.3984-2.3984-2.3984l-1.1992-1.1992s-1.1992-1.1992-1.1992-1.1992c0-1.1992-1.1992-1.1992-2.3984-2.3984 0 0-1.1992 0-1.1992-1.1992s0-2.3984-1.1992-2.3984c0-1.1992 0-1.1992-1.1992-2.3984 0-1.1992 0-2.3984-1.1992-2.3984l-1.1992-1.1992c0.007813-1.2148-1.1914-1.2148-1.1914-2.4141 0 0 0-1.1992-1.1992-1.1992 0-1.1992 0-1.1992-1.1992-2.3984l-1.1992-1.1992c0-1.1992-2.3984-3.6016-4.8008-6 0-0.003906 0-0.003906-1.2031-0.003906l-2.3984-2.3984c-1.1992-1.1992-1.1992-1.1992-2.3984-2.3984 0 0-1.1992-1.1992-1.1992-1.1992 0-1.1992 0-2.3984-1.1992-2.3984 0 0-1.1992 0-1.1992-1.1992s0-1.1992-1.1992-2.3984c0 0 0-1.1992-1.1992-1.1992 0 0 0-1.1992-1.1992-1.1992-1.1992-1.1992-1.1992-2.3984-1.1992-3.6016l-1.207-4.8086c0-1.1992 0-1.1992-1.1992-2.3984 0 0 0-1.1992-1.1992-2.3984 0-1.1992-1.1992-2.3984-1.1992-4.8008 0-1.1992 0-2.3984-1.1992-3.6016 0 0 0-1.1992-1.1992-1.1992v-1.1992-1.1992-2.3984s0-1.1992-1.1992-1.1992v-3.6016c0-1.1992-1.1992-1.1992-1.1992-1.1992v-2.3984-3.6016s0-1.1992-1.1992-1.1992v-2.3984-1.1992s0-1.1992 1.1992-1.1992v-2.3984-2.3984c0-1.1992 0-3.6016-1.1992-4.8008 0-1.1992-1.1992-2.3984-1.1992-2.3984v-2.3984c0-1.1992 1.1992-2.3984 1.1992-3.6016 0-1.1992 0-2.3984-1.1992-3.6016 0 0 0-1.1992 1.1992-1.1992v-2.3984l1.1992-1.1992v-3.6016-1.1992-1.1992c0-1.1992 0-1.1992 1.1992-2.3984v-1.1992-2.3984-2.3984-4.8008c1.1992-1.1992 1.1992-1.1992 1.1992-2.3984v-1.1992-4.8008c1.1992-1.1992 1.1992-3.6016 2.3984-6 0-1.1992 1.1992-3.6016 1.1992-3.6016v-1.1992s0-1.1992 1.1992-1.1992c0 0 1.1992-1.1992 2.3984-2.3984h3.6016c14.398 0 28.801 1.1992 45.602 1.1992h3.6016 2.3984 1.1992 2.3984c3.6016 0 9.6016 1.1992 12 0 1.1992 1.1992 4.8008 2.3984 7.1992 1.1992h1.1992 1.1992c1.1992 0 2.3984 0 3.6016 1.1992 1.1992 0 3.6016 1.1992 6 1.1992 2.3984 0 6 0 8.3984 1.1992 7.1992 1.1992 15.602 1.1992 21.602 0h2.3984 2.3984s1.1992 0 1.1992-1.1992c1.1992 0 1.1992-1.1992 2.3984-1.1992h1.1992 1.1992 1.1992c1.1992 0 3.6016-1.1992 4.8008-1.1992 0 0 1.1992 0 1.1992-1.1992 1.1992 0 1.1992-1.1992 2.3984-1.1992h2.3984c1.1992 0 1.1992-1.1992 1.1992-2.3984h2.3984c1.1992 0 1.1992-1.1992 1.1992-2.3984 0 0 1.1992-1.1992 1.1992-2.3984s0-1.1992 1.1992-1.1992c0 0 0-1.1992 1.1992-1.1992 0-1.1992 0-1.1992 1.1992-2.3984v-1.1992c1.1992 0 1.1992-1.1992 1.1992-2.3984v-1.1992s0-1.1992 1.1992-1.1992v-2.3984-1.1992c1.1992 0 1.1992-1.1992 1.1992-2.3984v-1.1992-2.3984-2.3984-2.3984c1.1992-3.6016 1.1992-8.3984 1.1992-12v-1.1992-2.3984-2.3984-1.1992c0-1.1992 1.1992-3.6016 1.1992-6v-4.8008-6-7.1992-1.1992-2.3984-1.1992-1.1992-2.3984c0-1.1992 1.1992-3.6016 1.1992-6v-6-4.8008c0-1.1992 0-2.3984 1.1992-3.6016 0-1.1992 1.1992-2.3984 1.1992-3.6016v-2.3984-1.1992-1.1992-2.3984c0-4.8008 1.1992-9.6016 1.1992-14.398 0-3.6016 1.1992-6 1.1992-9.6016 0 0 1.1992-1.1992 1.1992-2.3984v-2.3984c1.1992-1.1992 1.1992-2.3984 1.1992-3.6016 0-1.1992 0-2.3984-1.1992-3.6016v-1.1992c0-1.1992 0-1.1992 1.1992-2.3984v-9.6016-2.3984s0-1.1992 1.1992-1.1992v-7.1992c-1.1719-6.0586-1.1719-8.457-1.1719-12.059zm-50.398 2.4023v2.3984 3.6016c-1.1992 1.1992-1.1992 3.6016-1.1992 4.8008v1.1992c-1.1992 1.1992-1.1992 2.3984 0 4.8008v1.1992c0 1.1992-1.1992 3.6016 0 4.8008v1.1992 6c0 2.3984-1.1992 4.8008 0 6v1.1992 1.1992c-1.1992 1.1992-1.1992 2.3984-1.1992 3.6016v3.6016 3.6016 2.3984 1.1992 2.3984 1.1992l-1.1992 1.1992v6 4.8008s-1.1992 1.1992-1.1992 1.1992v2.3984c-1.1992 7.1992-2.3984 16.801-2.3984 26.398 0 6 0 10.801-1.1992 15.602v8.3984 4.8008 1.1992 2.3984 7.1992c0 3.6016 0 7.1992-1.1992 10.801-1.1992 0-3.6016 0-4.8008-1.1992-2.3984 0-6-1.1992-8.3984-1.1992h-8.3984-8.3984-4.8008-1.1992c-4.8008 1.1992-12 0-18 0h-4.8008s-1.1992-1.1992-2.3984-1.1992-1.1992 0-2.3984 1.1992c0 0-1.1992-1.1992-2.3984-1.1992h-1.1992-1.1992-14.398-15.602-9.6016c-6 0-10.801 0-13.199 1.1992-1.1992 0-2.3984 0-3.6016 1.1992h-1.1992-1.1992-3.6016-1.1992c-1.1992 0-1.1992 0-2.3984 1.1992-1.1992 1.1992-2.3984 2.3984-4.8008 2.3984-1.1992 0-2.3984 1.1992-3.6016 2.3984-1.1992 1.1992-1.1992 1.1992-2.3984 2.3984 0 0-1.1992 1.1992-1.1992 1.1992-1.1992 0-1.1992 0-2.3984 1.1992-1.1992 0-1.1992 1.1992-2.3984 2.3984v1.1992s-1.1992 0-2.3984 1.1992c-1.1992 0-1.1992 1.1992-1.1992 1.1992s-1.1992 0-1.1992 1.1992c0 0-1.1992 1.1992-1.1992 2.3984v1.1992s-1.1992 1.1992-1.1992 2.3984c0 0-1.1992 0-1.1992 1.1992-1.1992 1.1992-1.1992 1.1992-1.1992 2.3984v1.1992c-1.1992 2.3984-2.3984 4.8008-2.3984 6v2.3984 1.1992c0 1.1992-1.1992 2.3984-1.1992 4.8008v2.3984 1.1992s0 1.1992-1.1992 1.1992l-1.1992 1.1992c0 1.1992-1.1992 3.6016-1.1992 4.8008v2.3984 1.1992 2.3984l-1.1992 1.1992v3.6016 1.1992 2.3984l-1.1992 1.1992c0 1.1992 0 2.3984 1.1992 3.6016 0 1.1992-1.1992 3.6016-1.1992 4.8008 0 1.1992-1.1992 3.6016-1.1992 4.8008v3.6016 4.8008s-1.1992 1.1992-1.1992 2.3984v2.3984 1.1992 2.3984 1.1992 1.1992 1.1992 2.3984 1.1992 3.6016c0 4.8008 0 8.3984 1.1992 10.801v1.1992 1.1992s0 1.1992 1.1992 2.3984c0 2.3984 1.1992 3.6016 1.1992 6 0 1.1992 0 2.3984 1.1992 3.6016 1.1992 3.6016 1.1992 7.1992 3.6016 9.6016 0 2.3984 0 4.8008 1.1992 6 0 1.1992 0 2.3984 1.1992 2.3984 0 1.1992 1.1992 2.3984 1.1992 3.6016 1.1992 2.3984 2.3984 4.8008 2.3984 6v1.1992c0 1.1992 0 1.1992 1.1992 2.3984v1.1992c1.1992 1.1992 1.1992 3.6016 2.3984 4.8008v2.3984c0 1.1992 1.1992 1.1992 2.3984 2.3984v1.1992c0 1.1992 1.1992 2.3984 1.1992 2.3984 0 1.1992 1.1992 1.1992 1.1992 2.3984v2.3984c1.1992 1.1992 1.1992 1.1992 2.3984 2.3984s2.3984 2.3984 3.6016 2.3984v1.1992h-2.3984-1.1992-2.3984c-1.1992 0-1.1992 0-2.3984-1.1992 0 0-1.1992-1.1992-2.3984-1.1992h-1.1992l-1.1992-1.1992c-1.1992 0-1.1992-1.1992-2.3984-1.1992-1.1992 0-1.1992-1.1992-1.1992-1.1992-1.1992 0-1.1992-1.1992-2.3984-1.1992-1.1992 0-2.3984-1.1992-3.6016-1.1992-1.1992 0-1.1992 0-2.3984-1.1992l-1.1992-1.1992c-1.1992 0-1.1992 0-2.3984-1.1992h-1.1992c-3.6016-1.1992-6-3.6016-8.3984-4.8008-1.1992-1.1992-2.3984-1.1992-3.6016-2.3984h-1.1992c-1.1992-1.1992-3.6016-2.3984-4.8008-2.3984 0-1.1992-1.1992-1.1992-2.3984-1.1992s-1.1992 0-1.1992-1.1992c0 0-1.1992 0-1.1992-1.1992-1.1992 0-1.1992 0-2.3984-1.1992l-1.1992-1.1992c-1.1992-1.1992-1.1992-1.1992-2.3984-2.3984-1.1992 0-1.1992-1.1992-2.3984-1.1992-1.1992 0-1.1992-1.1992-2.3984-1.1992l-1.1992-1.1992c-1.1992-1.1992-1.1992-1.1992-2.3984-2.3984-1.1992-1.1992-2.3984-1.1992-3.6016-2.3984-1.1992-1.1992-3.6016-2.3984-3.6016-3.6016l-2.3984-2.3984c-2.3984-2.3984-3.6016-3.6016-3.6016-6-1.1992-1.1992-2.3984-2.3984-3.6016-3.6016-1.1992 0-1.1992-1.1992-1.1992-1.1992v-1.1992c0-1.1992-1.1992-2.3984-1.1992-2.3984v-1.1992c0-1.1992-1.1992-2.3984-1.1992-2.3984v-1.1992-1.1992c0-1.1992-1.1992-1.1992-1.1992-1.1992s0-1.1992-1.1992-1.1992c0-1.1992 0-1.1992-1.1992-2.3984 0-1.1992-1.1992-1.1992-1.1992-1.1992v-1.1992c0-1.1992 0-1.1992-1.1992-2.3984v-1.1992-1.1992c0-1.1992 0-1.1992-1.1992-1.1992v-1.1992-1.1992c-1.1992-2.3984-1.1992-3.6016-2.3984-6 0 0 0-1.1992-1.1992-1.1992v-1.1992-1.1992s0-1.1992-1.1992-2.3984c0-1.1992-1.1992-2.3984-1.1992-2.3984s0-1.1992-1.1992-2.3984v-2.3984c0-2.3984-1.1992-3.6016-1.1992-4.8008v-1.1992-1.1992-1.1992-2.3984c0-1.1992-1.1992-2.3984-1.1992-3.6016v-1.1992-2.3984c-1.1992-3.6016-1.1992-4.8008-2.3984-6v-1.1992-1.1992c0-1.1992 0-2.3984-1.1992-3.6016 0-1.1992 0-2.3984-1.1992-2.3984 0-3.6016-1.1992-6-1.1992-9.6016s-1.1992-7.1992-2.3984-12c-1.1992-6-2.3984-9.6016-3.6016-14.398v-1.1992c0-1.1992-1.1992-3.6016-1.1992-4.8008 0-1.1992 0-2.3984-1.1992-2.3984-1.1992-3.6016-1.1992-6-1.1992-8.3984 0-2.3984-1.1992-4.8008-1.1992-6 0-1.1992-1.1992-2.3984-1.1992-2.3984 0-1.1992 1.1992-1.1992 0-3.6016 0-1.1992-1.1992-2.3984-1.1992-3.6016v-1.1992-2.3984-3.6016-2.3984-1.1992-3.6016s0-1.1992-1.1992-1.1992c0-2.3984-1.1992-6-1.1992-8.3984 0-2.3984 0-4.8008-1.1992-7.1992 0-1.1992-1.1992-2.3984-1.1992-2.3984v-1.1992-2.3984c0-1.1992 0-3.6016-1.1992-4.8008 0-1.1992 0-2.3984-1.1992-4.8008 0-1.1992 1.1992-1.1992 1.1992-2.3984v-1.1992-2.3984-2.3984s1.1992-1.1992 0-2.3984c0 0 0-1.1992-1.1992-1.1992v-12-10.801-1.1992-3.6016-1.1992-2.3984-2.3984-3.6016-1.1992-1.1992-1.1992-6c0-6 1.1992-13.199 0-16.801v-1.1992-1.1992c0-1.1992 1.1992-1.1992 0-3.6016 0-1.1992-1.1992-2.3984-1.1992-4.8008v-1.1992-1.1992-3.6016-2.3984-15.602-20.398-7.1992c0-7.1992 1.1992-15.602 1.1992-21.602v-1.1992-9.6016-3.6016-1.1992c0-1.1992 1.1992-1.1992 1.1992-3.6016v-2.3984-1.1992l1.1992-3.6016v-2.3984-1.1992s0-1.1992 1.1992-2.3984c0-1.1992 1.1992-2.3984 1.1992-3.6016v-6-3.6016c1.1992-1.1992 1.1992-2.3984 1.1992-2.3984l1.1992-1.1992c1.1992-2.3984 3.6016-3.6016 3.6016-4.8008 1.1992 0 1.1992 0 2.3984-1.1992l2.3984-2.3984v-1.1992c1.1992-1.1992 4.8008-1.1992 7.1992-1.1992h3.6016 2.3984 2.3984 2.3984c2.3984 0 3.6016 0 4.8008-1.1992h4.8008 3.6016c6-1.1992 12-1.1992 18-1.1992h12 7.1992c3.6016 0 8.3984 0 12-1.1992 8.3984-1.1992 14.398-1.1992 24 0 4.8008 0 9.6016 1.1992 14.398 1.1992 1.1992 0 2.3984 0 2.3984-1.1992 2.3984 0 4.8008 1.1992 8.3984 1.1992h4.8008 2.3984 2.3984s1.1992 1.1992 1.1992 1.1992h1.1992 2.3984 1.1992c2.3984 1.1992 6 0 8.3984 0h1.1992 2.3984 1.1992c1.1992 1.1992 2.3984 1.1992 2.3984 0h7.1992 2.3984 4.8008c2.3984 0 4.8008 1.1992 7.1992 0h1.1992c1.1992 0 3.6016 0 4.8008-1.1992 1.1992 0 1.1992-1.1992 1.1992-1.1992h1.1992 2.3984 1.1992 1.1992c1.1992 1.1992 2.3984 1.1992 2.3984 1.1992h2.3984c1.1992 0 1.1992 0 2.3984-1.1992 2.3984 0 4.8008 0 6 1.1992 1.1992 0 3.6016 0 4.8008 1.1992 3.6016 0 4.8008 1.1992 6 1.1992h4.8008l1.1992 1.1992c12 2.3984 21.602 4.8008 27.602 8.3984 1.1992 2.3984 1.1992 6 2.3984 8.3984 0 2.3984 0 4.8008 1.1992 6 0 2.3984 1.1992 3.6016 2.3984 4.8008 1.1992 1.1992 1.1992 2.3984 1.1992 4.8008 0 1.1992 0 3.6016 1.1992 4.8008 0 2.3984 0 4.8008 1.1992 6 0 2.3984 1.1992 3.6016 2.3984 3.6016 3.6016 14.398 4.8008 26.398 6 43.199v2.3984 1.1992c-1.1992 1.1992 0 2.3984 0 3.6016v2.3984s0 1.1992 1.1992 2.3984v1.1992 2.3984 1.1992 1.1992 1.1992 1.1992 2.3984 7.1992 1.1992c0 1.1992 0 2.3984 1.1992 2.3984v7.1992s-1.1992 1.1992-1.1992 2.3984c-3.6289-8.4023-3.6289-8.4023-3.6289-7.2031z" fill="#4d4b66"/>
</svg>
